<svg width="490" height="280" viewBox="0 0 490 280" fill="none" xmlns="http://www.w3.org/2000/svg">
<path fill-rule="evenodd" clip-rule="evenodd" d="M375.539 164.53C371.226 158.786 370.481 148.626 361.736 147.724C353.246 145.43 344.796 142.983 336.229 141L285.896 149.194L280 176.329L361.386 186.945L382.614 201.105L438.051 207L464 197.565C437.109 188.883 409.567 181.969 383.427 171.155C380.214 169.676 377.985 166.968 375.539 164.53V164.53Z" fill="#DB0026"/>
<path d="M475.503 197.126C473.679 194.749 470.736 193.8 468.703 192.886C466.713 191.947 466.999 190.01 465.335 189.446C463.635 188.901 460.655 192.369 458.341 191.648C456.03 190.891 456.2 186.574 454.271 185.936C452.293 185.314 448.858 188.55 447.061 187.975C445.25 187.451 444.898 182.915 443.152 182.34C441.426 181.813 437.76 185.037 435.97 184.483C434.173 183.879 434.059 179.464 432.063 178.808C430.075 178.198 426.585 181.499 424.853 180.902C423.06 180.35 422.887 175.944 420.983 175.304C419.057 174.691 415.53 177.927 413.752 177.345C411.922 176.754 411.422 172.227 409.756 171.679C408.052 171.159 404.73 173.832 402.025 173.678C383.264 171.929 376.089 160.135 374.81 163.624C373.559 167.042 378.723 175.359 385.212 178.167C390.388 180.415 446.27 195.879 447.736 196.569C449.163 197.274 452.691 198.844 451.433 200.88C449.492 203.485 444.033 200.91 442.643 199.759C441.238 198.592 441.559 198.167 440.24 197.813C437.245 197.104 435.584 202.558 432.417 201.828C429.533 201.181 429.736 195.392 426.809 194.715C423.577 193.933 422.114 199.42 419.039 198.706C416.488 198.13 416.14 192.233 413.401 191.574C410.258 190.814 408.831 196.316 405.556 195.553C402.74 194.894 402.897 189.142 399.952 188.433C397.009 187.737 394.954 193.071 392.175 192.439C389.387 191.793 388.98 185.918 386.506 185.333C383.97 184.769 381.977 187.756 378.572 188.199C378.572 188.199 368.796 190.841 353.341 174.706C337.855 158.605 331.505 155.476 322.69 162.035C308.302 172.748 299.367 165.666 296.76 162.482C293.633 158.83 296.908 155.476 296.908 155.476C296.908 155.476 301.477 162.528 307.229 162.651C316.5 162.928 323.491 150.288 339.378 150.063C359.503 149.34 364.75 156.483 370.25 157.053C375.346 157.552 377.047 156.73 380.572 154.682H380.553C383.406 153.669 385.887 159.178 388.875 158.069C392.036 156.877 389.726 151.326 393.127 150.045C396.31 148.905 398.386 154.488 401.431 153.355C404.632 152.185 402.592 146.479 405.667 145.367C408.831 144.225 410.68 149.863 413.964 148.659C417.264 147.486 415.135 141.835 418.136 140.699C421.236 139.569 423.476 145.118 426.52 144.034C429.404 143.006 427.755 137.097 430.756 136.022C433.874 134.904 435.886 140.471 439.208 139.252C441.938 138.3 440.428 132.385 443.259 131.314C446.088 130.258 448.713 135.742 451.658 134.639C454.419 133.623 452.805 127.745 455.741 126.646C458.853 125.525 461.253 131.006 464.192 129.971C467.104 128.927 464.895 124.185 468.691 122.304C468.691 122.304 473.947 120.576 473.614 116.721C473.571 116.075 472.487 107.835 463.832 106.089C455.507 104.417 389.781 122.584 388.931 121.537C382.882 109.59 375.13 112.912 373.95 113.177C372.749 113.485 365.41 116.604 357.282 113.485C341.322 106.264 328.578 124.626 319.837 122.208C311.786 119.948 305.633 121.251 302.257 122.399C299.166 123.468 294.156 127.489 283.539 123.84C201.474 95.838 137.335 120.318 137.335 120.318C101.173 132.391 96.5449 120.318 96.5449 120.318C96.5449 120.318 84.6426 104.161 168.439 84.8913C288.879 57.2399 292.514 11.4826 291.088 8.58814C289.11 4.39116 288.355 9.33639 284.389 13.8844C281.062 17.6657 277.192 15.7966 277.192 15.7966C273.402 13.9799 270.977 18.3031 270.977 18.3031C270.977 18.3031 266.103 25.8657 261.793 21.5671C257.649 17.4255 252.149 26.771 250.094 27.1405C247.632 27.5716 246.43 26.3707 243.131 24.8557C238.182 22.6694 232.871 31.6793 230.153 32.3167C225.991 33.2712 223.067 27.4145 219.489 29.8841C208.786 37.2742 207.103 38.2996 204.22 35.4267C202.094 33.2497 201.776 30.8941 194.628 37.7361C188.543 43.5651 185.631 44.6582 183.188 40.9508C180.674 37.2188 181.321 32.1227 170.864 42.1517C165.872 46.9399 163.321 47.0323 160.462 44.8799C158.308 43.2633 158.324 35.5498 150.824 42.5335C144.027 48.8151 139.092 51.571 137.169 45.9915C135.043 39.7222 127.032 47.1462 125.181 48.8952C123.258 50.6411 119.142 55.263 116.255 50.4933C113.371 45.6928 106.463 52.8582 102.356 57.4031C99.1854 60.935 96.625 58.2099 93.2789 55.9682C89.48 53.3632 78.1015 69.2366 77.0724 70.185C76.031 71.0903 75.2392 70.185 72.6326 67.9772C68.6272 64.5839 57.8218 83.441 56.0718 84.6696C56.0718 84.6696 55.3323 86.2985 52.3868 83.4872C48.1965 79.5027 25.9418 108.777 17.5428 141.9C6.79904 184.363 23.9175 216.929 23.9175 216.929C23.9175 216.929 29.0599 217.082 31.2505 213.612L34.5812 206.105C37.2833 199.848 41.7108 201.816 41.7108 201.816L31.2166 233.036C29.559 237.147 30.5604 242.963 34.2269 248.463C37.6808 253.987 40.0624 257.722 42.8323 260.29C51.3515 268.308 50.4796 258.824 50.7014 257.642C51.6997 252.564 57.3258 256.463 61.7409 258.895C69.7548 263.391 68.8644 253.464 70.6206 250.227C71.8408 247.909 75.7815 247.804 80.058 251.385C83.3856 254.166 86.6977 244.746 86.6977 244.746C90.851 224.67 81.0902 222.348 75.8123 222.052L65.1271 221.566C65.1271 221.566 65.8296 218.511 66.9418 215.651L67.4194 213.625C79.0721 184.603 59.5965 179.002 53.7702 179.464C47.343 180.036 47.7929 175.944 47.7929 175.944C47.7929 175.944 82.9912 169.016 76.4285 206.324C76.4285 206.324 75.1344 212.821 74.3549 216.208L84.0295 217.338C92.3515 218.376 93.8305 228.217 93.8305 228.217C93.8305 228.217 124.447 236.306 141.812 233.073C141.812 233.073 149.573 231.225 151.727 226.397C151.727 226.397 162.973 199.916 195.805 198.798C195.805 198.798 196.961 202.225 191.713 204.011C185.428 206.13 164.47 207.792 160.117 231.847V231.943C159.642 235.89 160.702 244.297 169.268 248.192C176.57 251.484 179.14 264.767 180.655 268.355C184.907 278.538 191.27 268.804 191.27 268.804C191.27 268.804 195.306 260.583 198.763 265.143C204.611 272.832 207.328 268.958 208.656 264.062C210.111 258.778 212.227 256.472 218.349 262.898C220.962 265.688 226.095 263.533 226.607 258.76C227.691 248.25 234.793 256.604 235.81 257.011C237.027 257.473 244.465 255.801 240.302 243.949C240.302 243.949 234.679 232.654 209.328 227.783C203.382 226.656 204.327 222.351 204.327 222.351L209.91 223.136C211.574 223.407 226.317 225.042 227.888 225.292C289.726 231.389 336.648 210.425 338.059 208.932C386.093 218.129 451.412 214.995 463.675 210.579C475.999 206.237 476.917 199.044 475.5 197.126H475.503ZM376.32 120.518C377.324 118.901 378.273 117.987 379.145 117.547C382.873 115.428 385.252 122.058 384.799 122.301C384.777 122.313 384.691 122.341 384.654 122.356C384.648 122.365 384.648 122.39 384.642 122.399C384.056 122.683 376.865 124.721 376.156 124.253C374.733 123.268 376.32 120.518 376.32 120.518V120.518ZM349.009 122.615C349.009 122.615 349.933 121.445 351.733 120.851C353.507 120.204 356.185 120.096 359.734 122.381C363.817 124.974 363.712 127 363.712 127C363.542 127.077 363.368 127.145 363.191 127.203C360.233 128.348 348.094 129.836 348.094 129.836C347.401 128.708 347.115 127.377 347.281 126.064C347.447 124.752 348.057 123.535 349.009 122.615V122.615ZM122.611 63.9126C124.651 65.483 122.697 74.5328 121.243 73.1995L110.761 67.6569C110.761 67.6569 120.522 62.3884 122.611 63.9126V63.9126ZM105.563 69.6923C107.624 71.2257 105.693 80.2941 104.232 78.9454L93.7781 73.3935C93.7812 73.3935 103.493 68.1188 105.563 69.6923V69.6923ZM99.666 87.3824C101.737 88.9282 99.7954 98.0119 98.3165 96.7002L87.847 91.0806C87.847 91.0806 97.5832 85.8459 99.666 87.3824ZM89.6895 111.136L79.2076 105.571C79.2076 105.571 88.9562 100.294 91.0236 101.846C93.1187 103.391 91.116 112.469 89.6895 111.136V111.136ZM87.7176 129.054L77.2635 123.486C77.2635 123.486 86.9905 118.233 89.064 119.751C91.1376 121.285 89.2057 130.325 87.7145 129.051L87.7176 129.054ZM87.5235 75.9985C89.6032 77.5412 87.6405 86.5695 86.1801 85.2855L75.6921 79.7028C75.6921 79.7028 85.4592 74.4312 87.5235 75.9985V75.9985ZM78.4312 89.7904C80.4832 91.33 78.539 100.361 77.094 99.0773L66.6245 93.5132C66.6245 93.5132 76.3607 88.2231 78.4312 89.7873V89.7904ZM59.7475 111.428C59.7475 111.428 69.5145 106.132 71.5573 107.699C73.6401 109.233 71.6805 118.282 70.217 116.971L59.7475 111.428ZM67.7706 134.091L57.3258 128.505C57.3258 128.505 67.0682 123.265 69.1263 124.81C71.2061 126.35 69.2557 135.391 67.7706 134.091ZM60.3206 96.072C62.3849 97.5808 60.4346 106.643 58.971 105.334L48.5385 99.7517C48.5385 99.7517 58.2285 94.5108 60.3206 96.072V96.072ZM50.9048 114.319C52.9783 115.853 51.0342 124.955 49.5368 123.616L39.0919 118.061C39.095 118.061 48.8343 112.829 50.9048 114.319V114.319ZM37.1416 135.936C37.1416 135.936 46.884 130.701 48.9483 132.241C51.0373 133.768 49.05 142.845 47.6142 141.528L37.1416 135.936ZM55.8191 156.382L45.3588 150.811C45.3588 150.811 55.1074 145.537 57.1779 147.086C59.2483 148.637 57.2703 157.678 55.8191 156.385V156.382ZM70.8178 168.529L60.3575 162.98C60.3575 162.98 70.1092 157.706 72.1797 159.236C74.2317 160.757 72.2505 169.869 70.8178 168.529V168.529ZM75.5072 149.57L65.0408 143.982C65.0408 143.982 74.7893 138.747 76.8598 140.247C78.9303 141.795 76.9677 150.842 75.5072 149.57ZM89.4245 176.711L78.9796 171.147C78.9796 171.147 88.6727 165.884 90.7648 167.427C92.8291 168.982 90.9096 177.989 89.4245 176.711ZM94.4467 159.245L83.9956 153.684C83.9956 153.684 93.7226 148.45 95.7869 149.995C97.8513 151.517 95.9287 160.582 94.4467 159.245ZM97.9098 142.741L87.4557 137.167C87.4557 137.167 97.1857 131.933 99.2747 133.472C101.348 135.027 99.3672 144.04 97.9098 142.741V142.741ZM112.616 174.601L102.159 169.003C102.159 169.003 111.892 163.778 113.978 165.296C116.073 166.836 114.089 175.922 112.616 174.601ZM117.145 157.213L106.694 151.661C106.694 151.661 116.439 146.368 118.51 147.935C120.55 149.429 118.587 158.513 117.142 157.213H117.145ZM120.935 138.793L110.481 133.226C110.481 133.226 120.217 128.007 122.303 129.522C124.358 131.067 122.395 140.105 120.935 138.79V138.793ZM135.622 171.341L125.134 165.773C125.134 165.773 134.883 160.505 136.975 162.038C139.027 163.624 137.046 172.68 135.622 171.337V171.341ZM139.135 152.742L128.684 147.147C128.684 147.147 138.432 141.9 140.493 143.424C142.57 144.985 140.604 153.998 139.138 152.739L139.135 152.742ZM142.783 133.645L132.326 128.071C132.326 128.071 142.059 122.827 144.138 124.355C146.203 125.934 144.249 134.956 142.783 133.645ZM158.521 163.987L148.054 158.472C148.054 158.472 157.8 153.207 159.846 154.737C161.947 156.271 159.984 165.308 158.521 163.987V163.987ZM161.386 145.666L150.901 140.13C150.901 140.13 160.641 134.873 162.699 136.388C164.825 137.943 162.831 147.03 161.383 145.666H161.386ZM165.016 127.714L154.525 122.178C154.525 122.178 164.292 116.888 166.344 118.412C168.411 119.973 166.455 129.054 165.016 127.711V127.714ZM181.037 160.117L170.574 154.543C170.574 154.543 180.292 149.275 182.384 150.818C184.479 152.373 182.504 161.401 181.034 160.117H181.037ZM183.891 143.012L173.421 137.463C173.421 137.463 183.179 132.157 185.231 133.737C187.298 135.234 185.345 144.333 183.891 143.012ZM187.335 124.761L176.853 119.206C176.853 119.206 186.602 113.888 188.691 115.474C190.761 117.023 188.823 126.051 187.335 124.761V124.761ZM201.832 160.434L191.393 154.87C191.393 154.87 201.123 149.586 203.194 151.162C205.267 152.684 203.301 161.733 201.832 160.434ZM205.286 142.069L194.798 136.518C194.798 136.518 204.565 131.221 206.638 132.792C208.69 134.344 206.731 143.375 205.286 142.069ZM209.205 123.788L198.732 118.233C198.732 118.233 208.484 112.937 210.557 114.513C212.646 116.044 210.665 125.109 209.202 123.788H209.205ZM223.633 160.434L213.164 154.842C213.164 154.842 222.9 149.589 224.968 151.165C227.035 152.684 225.112 161.733 223.633 160.434V160.434ZM226.983 143.089L216.538 137.503C216.538 137.503 226.262 132.293 228.329 133.777C230.406 135.338 228.452 144.41 226.983 143.089ZM230.942 125.334L220.506 119.776C220.506 119.776 230.239 114.529 232.319 116.044C234.359 117.583 232.402 126.646 230.942 125.334ZM244.129 163.054L233.659 157.432C233.659 157.432 243.408 152.219 245.478 153.774C247.57 155.282 245.614 164.351 244.126 163.054H244.129ZM247.826 146.233L237.366 140.687C237.366 140.687 247.127 135.428 249.179 136.967C251.271 138.535 249.25 147.566 247.826 146.236V146.233ZM251.822 129.051L241.334 123.511C241.334 123.511 251.092 118.245 253.175 119.748C255.236 121.282 253.246 130.322 251.822 129.047V129.051ZM268.134 149.863L257.683 144.354C257.683 144.354 267.413 139.076 269.502 140.588C271.557 142.146 269.597 151.193 268.134 149.863V149.863Z" fill="#00532C"/>
</svg>
