<svg width="55" height="48" viewBox="0 0 55 48" fill="none" xmlns="http://www.w3.org/2000/svg">
<path d="M34.6836 32.576C34.616 32.5293 34.392 32.7513 34.3025 32.7163C34.2014 32.6812 34.1231 32.541 34.0446 32.5059C33.9438 32.4711 33.8877 32.5293 33.7869 32.5059C33.7084 32.4945 33.7645 32.3659 33.6971 32.3308C33.6073 32.296 33.5624 32.3893 33.4617 32.3542C33.3831 32.3308 33.3272 32.1793 33.2599 32.1442C33.1816 32.121 33.1591 32.2258 33.0696 32.1908C32.9461 32.1442 32.9125 32.0507 32.8342 32.0158C32.7668 31.969 32.6212 32.109 32.5204 32.0507C32.4194 32.0041 32.4194 31.6422 32.352 31.6071C32.2737 31.5722 32.027 31.864 31.9263 31.794C31.8365 31.7474 31.8702 31.4787 31.7916 31.4321C31.7245 31.3853 31.422 31.6539 31.3434 31.6188C31.2763 31.5837 31.2648 31.4438 31.1641 31.4321C31.0743 31.4204 30.9174 31.5488 30.8166 31.5137C30.6149 31.4321 30.3683 31.4671 30.0658 30.72C30.0321 30.6267 29.965 30.5682 29.8977 30.6033C29.7183 30.6733 29.7857 30.7433 30.0321 31.257C30.3683 31.9341 30.7942 31.794 32.3854 32.3659C33.3268 32.7163 33.9093 32.8211 33.9879 32.9496C34.0555 33.0779 34.1226 33.253 33.8535 33.2764C33.4277 33.3114 33.3268 33.0779 33.2483 33.0429C33.1475 33.0078 33.0802 33.1247 32.8787 33.0896C32.6544 33.0546 32.7327 32.9496 32.6544 32.9146C32.5534 32.9029 32.3516 32.9146 32.2173 32.8912C32.0829 32.8561 32.0717 32.6811 32.0043 32.7161C31.926 32.7512 31.8587 32.8912 31.6232 32.8211C31.4105 32.7278 31.4105 32.5408 31.3207 32.5291C31.2646 32.5057 30.962 32.6811 30.8277 32.646C30.5364 32.5525 30.5701 32.2959 30.48 32.2725C30.3793 32.2608 30.3459 32.5408 29.7182 32.4943C29.0908 32.4242 28.8217 32.471 28.4294 32.2607C27.9027 31.9689 27.2862 32.004 27.4655 31.7472C27.6676 31.4787 27.9812 31.6188 28.1827 31.7239C28.3847 31.8055 28.6087 31.9689 28.7654 31.8755C28.8216 31.8289 28.6981 31.6422 28.6422 31.3853C28.5639 30.9302 28.945 30.79 28.9114 30.72C28.8552 30.6382 28.6422 30.5216 28.1268 30.6033C27.7794 30.6616 27.1069 31.2103 26.9387 31.2921C26.7706 31.397 26.0762 31.7823 25.6948 31.2103C25.314 30.6267 25.6614 30.0314 25.8183 29.8446C25.9639 29.6579 26.2106 29.5178 26.3 29.6579C26.4235 29.8797 26.1319 29.938 26.0087 30.0898C25.8964 30.2416 25.7174 30.7552 25.9189 30.9887C26.1319 31.2221 26.5241 31.2455 26.9723 30.8954C27.3422 30.6036 27.9474 30.1949 28.5411 30.2418C29.1463 30.2766 29.4603 30.5685 29.5498 30.592C29.6396 30.6036 29.7179 30.3936 29.8412 30.3468C29.931 30.3118 30.0542 30.4285 30.1325 30.3935C30.1998 30.3468 30.2784 30.16 30.3679 30.1249C30.4689 30.0898 30.7156 30.2649 30.7939 30.2066C30.8613 30.1715 30.85 29.9498 30.962 29.9382C31.074 29.9148 31.2646 30.1249 31.3431 30.0898C31.4439 30.0315 31.4439 29.9146 31.5446 29.9146C31.6232 29.9146 31.8025 30.1949 31.8923 30.1715C31.9594 30.16 31.9372 29.8799 32.038 29.8448C32.1388 29.8097 32.3967 30.0315 32.4863 29.9965C32.5534 29.9615 32.5646 29.6228 32.6878 29.5529C32.8001 29.5062 32.9121 29.693 32.9794 29.6579C33.0692 29.6228 33.1251 29.2375 33.2261 29.226C33.3156 29.2143 33.495 29.3309 33.5733 29.3077C33.6406 29.296 33.6069 28.9459 33.7414 28.8758C33.8761 28.8291 34.0442 29.0509 34.0891 29.0394C34.1561 29.016 34.1898 28.8291 34.2572 28.8174C34.3355 28.7941 34.5373 28.9691 34.6383 28.9459C34.7166 28.9108 34.6832 28.6541 34.7727 28.6423C34.8401 28.6189 35.1201 28.6773 35.0977 28.3505C35.0865 28.0236 34.6832 27.7084 34.3022 27.7084C33.6072 27.7084 32.9125 28.0236 32.3184 28.1403C31.7246 28.2454 30.5031 28.6189 30.2003 28.6775C29.8978 28.7241 29.6064 28.549 29.8754 28.3271C30.0884 28.117 30.2003 28.2805 30.2003 28.2105C30.2003 28.1403 30.0659 28.0704 29.8754 28.0353C29.6736 28.0004 29.4384 28.2105 29.1806 28.1754C28.923 28.1403 28.6652 27.9304 28.3851 27.9887C27.7016 28.0704 27.6006 28.3857 27.2532 28.5138C26.9057 28.6541 26.648 28.549 26.4574 28.5723C25.9869 28.6423 25.8188 28.9342 25.4714 28.899C25.0566 28.8639 24.8549 28.6189 24.4068 28.4903C23.9807 28.3503 23.1628 28.2219 22.9721 28.1519C22.7706 28.0701 21.8853 27.8483 21.6723 27.825C21.437 27.79 21.3249 27.86 21.2241 27.86C21.1119 27.86 20.9662 27.79 20.8093 27.7783C20.6636 27.7549 20.4282 27.7433 20.3276 27.7783C20.2384 27.8253 20.2048 27.8253 20.0815 27.7902C19.9807 27.7786 19.6108 27.7086 19.454 27.7319C19.2297 27.7436 19.1401 27.8953 18.9721 27.9187C18.8152 27.9304 18.6583 27.8485 18.4791 27.8836C18.2999 27.9187 18.1542 27.9887 17.9973 28.0353C17.8516 28.0937 17.5826 28.0587 17.4594 28.0702C17.1232 28.152 17.0783 28.3271 16.9551 28.3271C16.843 28.3271 16.4397 28.2571 16.3164 28.3271C16.1818 28.3855 16.0698 28.4904 15.9689 28.5021C15.8457 28.5137 15.3974 28.584 15.1172 28.5489C14.9603 28.5372 14.6913 28.6773 14.5793 28.7122C14.4449 28.7473 14.131 28.7473 14.0413 28.584C13.9517 28.3855 14.1982 28.0937 14.613 27.7435C14.8931 27.5215 16.4732 26.3659 19.0394 25.9341C21.0455 25.584 23.3874 24.7085 23.8807 24.1715C24.0937 23.9497 24.9565 23.1909 25.1692 22.7241C25.3822 22.2571 25.4493 21.9887 25.3373 22.0004C25.2254 22.0354 25.0909 22.2805 24.8779 22.3622C24.6762 22.4321 24.4968 22.3155 24.3401 22.3855C24.1944 22.4321 24.0263 22.6773 23.8696 22.689C23.7015 22.7123 23.6341 22.5606 23.5106 22.6189C23.3874 22.7123 23.1859 22.8642 23.0512 22.899C22.7711 22.9457 22.7599 22.6073 22.5022 22.7473C22.2332 22.8873 22.0427 23.1209 21.7739 23.1792C21.5272 23.2143 21.5607 23.0159 21.3928 23.0159C21.1236 23.0159 20.8661 23.4012 20.7428 23.4012C20.6196 23.4012 20.5186 23.1909 20.3618 23.2144C20.216 23.226 19.7566 23.5879 19.5773 23.6464C19.3867 23.6814 19.3532 23.3779 19.1962 23.4013C19.0058 23.413 18.6583 23.7633 18.4678 23.81C18.2661 23.8449 18.154 23.7049 18.0196 23.7049C17.8852 23.7049 17.4705 24.0669 17.2687 24.1252C16.9774 24.1952 16.955 23.8101 16.6412 23.8334C16.4171 23.8451 16.1817 24.1604 16.0026 24.1719C15.8119 24.1952 15.7335 24.0435 15.5206 24.0903C15.2853 24.1602 14.8259 24.487 14.6689 24.5222C14.5232 24.5572 14.4111 24.4639 14.2318 24.5222C13.8956 24.6272 13.5819 25.0942 13.3688 25.211C13.1336 25.351 12.9655 25.281 12.8422 25.3626C12.6181 25.526 12.5844 25.8529 12.3714 25.9464C12.1811 26.0514 12.1922 25.8996 12.0127 26.0162C11.7103 26.2496 11.8224 26.5066 11.7328 26.6233C11.6431 26.7399 11.3964 26.8333 11.2508 27.0202C11.105 27.1952 11.105 27.3004 11.049 27.4172C10.9819 27.5339 10.7241 27.884 10.668 28.0358C10.6346 28.1871 10.7017 28.3505 10.6346 28.4672C10.5899 28.5723 10.489 28.7475 10.433 28.8758C10.3433 29.1794 10.4666 29.4829 10.4554 29.5996C10.433 29.7045 10.3209 29.8797 10.3209 30.0198C10.3209 30.16 10.4554 30.4284 10.4217 30.6384C10.3882 30.8486 9.97356 32.2376 10.2089 32.868C10.4666 33.5215 10.8476 33.8719 10.9821 33.8135C11.1277 33.7667 11.038 33.4865 11.1837 33.23C11.3294 32.9846 11.4975 32.6814 11.632 32.8913C11.744 33.0898 11.363 33.0898 11.3294 33.6618C11.2846 34.2102 11.3517 33.9768 11.3294 34.1403C11.3181 34.3154 10.9819 34.6422 10.9819 34.7939C10.9819 34.9573 11.0156 35.366 11.5085 35.7979C11.8112 36.0779 11.8784 36.2647 11.9567 36.2764C12.024 36.2998 12.0913 35.9494 12.237 35.8793C12.4387 35.7858 12.8757 36.1946 12.9541 36.1829C13.055 36.1478 13.0886 35.5875 13.2679 35.4826C13.4474 35.4008 13.8845 35.7628 13.9741 35.7161C14.0637 35.6459 13.9628 35.2957 14.0077 35.1557C14.0637 35.0274 14.3102 34.9923 14.2318 34.7589C14.1645 34.5254 14.1309 34.0702 13.3354 34.0118C13.0999 33.9884 12.7751 33.9536 12.9879 33.6967C13.2345 33.4399 13.5034 32.4943 12.9206 31.7591C12.6742 31.4438 12.1138 31.6188 11.9569 31.6889C11.6768 31.794 11.3966 32.1793 11.2846 32.0742C11.1837 31.9692 11.5087 31.5373 12.0129 31.3855C12.5059 31.222 13.1336 31.2572 13.3801 31.8991C13.8171 33.0195 13.3801 33.5449 13.4363 33.6617C13.5034 33.7783 13.7499 33.65 14.0973 33.8718C14.5904 34.2102 14.5232 34.502 14.6464 34.6072C14.7584 34.7004 15.3524 34.7472 15.9016 34.7822C16.4619 34.8173 17.0782 34.969 17.3359 34.8173C17.7506 34.5955 17.7841 33.7666 18.7479 33.1595C19.2297 32.8561 19.8685 32.5526 20.5857 32.6811C21.3814 32.7977 21.3926 32.9146 21.3253 33.0195C21.3141 33.0779 21.2919 33.1595 21.2805 33.1481C20.8994 32.9379 20.3505 32.9146 20.0141 32.9844C19.521 33.0779 18.6805 33.2182 18.0642 34.3386C17.459 35.4592 18.434 35.4709 18.5349 35.506C18.647 35.5527 18.8263 35.6109 18.8151 35.9379C18.7926 36.2649 18.8935 36.4515 19.0056 36.6616C19.1401 36.8483 19.3531 37 19.3531 37C19.3531 37 19.5098 36.6265 19.6893 36.5448C19.8686 36.4399 20.0815 36.6267 20.1824 36.7435C20.4961 37.1638 20.3618 36.3815 20.5858 36.2999C20.9109 36.1947 21.034 36.6968 21.2134 36.6033C21.5384 36.4516 21.3591 36.2181 21.5945 36.1247C21.841 36.0546 21.9867 36.265 22.0875 36.1949C22.1995 36.1131 22.1884 35.3896 21.9754 35.0977C21.7401 34.7941 21.3928 34.2805 20.653 34.2805C19.9246 34.2805 19.6893 34.1755 19.7228 34.0236C19.7565 33.8719 19.9021 33.7667 20.0815 33.8369C20.3618 33.9418 20.3952 33.9184 20.8434 33.9418C21.4934 33.9537 21.3477 34.2454 21.8857 34.4904C22.2893 34.6655 22.8159 34.3736 23.4659 34.4904C24.1269 34.6073 24.6762 34.7356 25.2811 34.7006C26.4245 34.6655 27.6908 34.1405 27.9372 34.1054C28.1951 34.0587 28.3295 34.0937 28.3295 34.0119C28.3295 33.9418 27.22 33.7667 27.2871 33.4866C27.3769 33.2183 27.9035 33.4401 28.6319 33.6152C29.3604 33.7785 30.9179 33.9185 31.5233 33.8837C32.1734 33.8721 33.2826 34.1757 34.1904 33.9539C34.6499 33.837 35.0869 33.5451 35.1318 33.2185C35.1879 32.8912 34.7731 32.6461 34.6836 32.576V32.576ZM28.4302 28.5723C28.6095 28.5372 28.9234 28.6189 28.845 28.829C28.7776 29.0393 28.7442 29.004 28.5983 29.0393C28.4526 29.074 28.1501 29.1091 28.0716 28.969C28.0043 28.829 28.2285 28.6189 28.4302 28.5723ZM23.8694 23.1909C23.9814 23.2494 23.9926 23.4129 23.9814 23.5179C23.9477 23.6113 23.8919 23.7047 23.8358 23.7047C23.746 23.7047 23.746 23.5762 23.7126 23.4478C23.6786 23.3427 23.746 23.1209 23.8694 23.1909V23.1909ZM22.8385 23.5178C23.0737 23.5761 22.9841 23.798 22.9392 24.0548C22.9056 24.2298 22.7599 24.2766 22.7375 24.3115C22.659 24.4633 22.6367 23.798 22.6367 23.798C22.6367 23.798 22.7039 23.4827 22.8385 23.5178ZM21.6953 23.7047C21.785 23.693 21.942 24.0549 21.8522 24.3701C21.7514 24.6736 21.6281 24.6736 21.6281 24.6736C21.6281 24.6736 21.5945 24.335 21.5607 24.3C21.5272 24.2415 21.46 23.763 21.6953 23.7047V23.7047ZM20.6642 23.8797C20.8774 23.798 20.9335 24.3 20.8325 24.5568C20.7428 24.8252 20.7428 24.9887 20.5858 24.8835C20.3952 24.7902 20.5522 24.4635 20.4961 24.3701C20.4289 24.2064 20.485 23.9731 20.6642 23.8797V23.8797ZM19.5212 24.16C19.7902 24.1249 19.7565 24.5684 19.6893 24.8137C19.6108 25.0354 19.5548 25.1404 19.4429 25.1055C19.3195 25.0587 19.4764 24.7668 19.4092 24.6385C19.3195 24.5218 19.3755 24.1715 19.5212 24.16ZM18.3446 24.3816C18.5015 24.4166 18.6136 24.6617 18.5351 25.0003C18.4679 25.3505 18.367 25.4322 18.2774 25.4322C18.1877 25.4322 18.3109 24.8835 18.2325 24.8835C18.1652 24.8835 18.1542 24.3466 18.3446 24.3816ZM17.1903 24.7902C17.2912 24.7902 17.5153 24.9886 17.4032 25.3505C17.2912 25.724 17.2912 25.6891 17.1903 25.724C17.0782 25.7474 17.1567 25.5022 17.0894 25.3622C17.011 25.2453 16.9101 24.7785 17.1903 24.7902V24.7902ZM16.1481 25.1755C16.3499 25.1638 16.4283 25.6074 16.3834 25.794C16.3499 25.9807 16.2826 26.2144 16.1593 26.1793C16.0472 26.1561 16.1817 25.8175 16.0809 25.8175C16.0025 25.8174 15.8456 25.1872 16.1481 25.1755ZM15.4869 26.4477C15.3525 26.7046 15.3636 26.7046 15.2741 26.7046C15.1844 26.7046 15.2404 26.3311 15.1396 26.3311C15.05 26.3311 14.9715 25.7825 15.2516 25.7591C15.5541 25.7474 15.5654 26.261 15.4869 26.4477ZM15.0387 24.6968C15.106 24.6968 15.2741 24.8136 15.1172 24.9886C14.9715 25.1637 14.9603 25.2804 14.8259 25.2104C14.6913 25.1638 14.8257 24.7085 15.0387 24.6968ZM11.2285 28.3855C11.318 28.3855 11.4302 28.6189 11.419 28.7124C11.3966 28.7824 11.3855 28.8991 11.2509 28.9342C11.1277 28.969 11.0829 28.7591 11.0829 28.7241C11.0717 28.6775 11.038 28.3621 11.2285 28.3855V28.3855ZM11.363 29.9145C11.2958 29.9145 11.2172 29.9145 11.1612 29.868C11.1276 29.8096 10.9035 29.5762 11.0716 29.3426C11.0828 29.3077 11.363 29.5061 11.419 29.6345C11.4527 29.7278 11.4527 29.9145 11.363 29.9145ZM11.5982 27.9652C11.5645 28.0235 11.475 28.0585 11.419 28.0235C11.3294 27.9652 11.3294 27.7784 11.363 27.7435C11.3853 27.7318 11.3966 27.4516 11.5758 27.4865C11.6654 27.4982 11.5645 27.7317 11.5758 27.755C11.5982 27.7902 11.6431 27.9185 11.5982 27.9652ZM19.0618 29.1559C19.073 29.0742 19.1962 29.0042 19.3195 29.0393C19.4764 29.0508 19.6557 29.1909 19.6222 29.296C19.611 29.401 19.4429 29.4827 19.2748 29.401C19.129 29.3309 19.0282 29.2609 19.0618 29.1559V29.1559ZM19.2859 29.9145C19.3867 29.903 19.6557 29.8797 19.6333 30.0314C19.6222 30.1714 19.5548 30.2064 19.342 30.2415C19.129 30.2763 18.9945 30.1364 18.9945 30.0665C19.0058 29.9497 19.1739 29.938 19.2859 29.9145V29.9145ZM18.7255 28.3155C18.8488 28.3155 18.9609 28.4205 18.9272 28.5021C18.8937 28.584 18.8824 28.6889 18.6583 28.6423C18.5799 28.6072 18.479 28.4904 18.479 28.4205C18.4791 28.2805 18.6136 28.2922 18.7255 28.3155ZM17.5153 28.6072C17.5376 28.4904 17.7506 28.4672 17.8515 28.5138C17.9636 28.5723 18.0308 28.7241 17.9636 28.7941C17.8852 28.8525 17.8067 28.8291 17.6722 28.7941C17.5377 28.759 17.5042 28.7239 17.5153 28.6072V28.6072ZM17.3696 29.1443C17.5377 29.1443 17.7394 29.2726 17.6497 29.366C17.5825 29.436 17.5153 29.4827 17.3359 29.4827C17.1566 29.4827 17.0894 29.4127 17.0894 29.3077C17.0894 29.2143 17.2015 29.1209 17.3696 29.1443V29.1443ZM17.0782 29.9145C17.2687 29.8797 17.4032 29.9963 17.3921 30.1014C17.3921 30.2064 17.224 30.2998 17.1119 30.2998C16.9774 30.2998 16.7869 30.2647 16.7644 30.1014C16.7421 29.9614 16.9774 29.938 17.0782 29.9145ZM16.5628 30.8485C16.5292 30.7434 16.7644 30.6967 16.8765 30.6733C16.9774 30.6616 17.1903 30.7083 17.1567 30.8134C17.1232 30.8951 17.0559 31.0001 16.8765 31.0001C16.6972 30.9886 16.5963 30.9302 16.5628 30.8485ZM16.8429 31.5021C16.8093 31.6539 16.6749 31.6771 16.574 31.6888C16.4619 31.7122 16.2826 31.6888 16.2826 31.5722C16.2826 31.4438 16.4396 31.3504 16.5292 31.3153C16.7086 31.2805 16.8765 31.3853 16.8429 31.5021V31.5021ZM16.3499 28.6423C16.417 28.6539 16.63 28.7122 16.6412 28.8173C16.6412 28.899 16.6972 29.0157 16.4619 29.0157C16.249 29.0157 16.1593 28.9807 16.1144 28.8639C16.0472 28.7239 16.2826 28.6189 16.3499 28.6423ZM16.3162 29.471C16.5403 29.5178 16.574 29.5178 16.5963 29.6227C16.6075 29.7278 16.4396 29.7978 16.2489 29.8328C16.0471 29.8679 15.9351 29.7745 15.879 29.6695C15.8456 29.5762 16.0921 29.436 16.3162 29.471V29.471ZM15.9353 30.4282C16.0472 30.4166 16.1817 30.4632 16.1817 30.5917C16.1593 30.6967 16.0921 30.7434 15.98 30.7902C15.8791 30.8485 15.655 30.7551 15.6214 30.6734C15.5877 30.5917 15.8119 30.4516 15.9353 30.4282V30.4282ZM15.7333 31.397C15.7333 31.5021 15.5317 31.5837 15.4308 31.6071C15.3524 31.6188 15.2852 31.6888 15.2179 31.6188C15.1395 31.5488 15.1507 31.4787 15.2067 31.4321C15.2403 31.3853 15.4533 31.2804 15.4982 31.257C15.5877 31.222 15.7447 31.3153 15.7333 31.397V31.397ZM15.2741 28.9107C15.4534 28.9107 15.5318 29.0157 15.5655 29.1091C15.5878 29.1908 15.5655 29.2374 15.5206 29.2725C15.4871 29.3075 15.2853 29.2958 15.1732 29.2259C15.0163 29.1443 15.0723 28.9107 15.2741 28.9107V28.9107ZM14.3775 26.3311C14.6241 26.3077 14.6689 26.658 14.6129 26.9732C14.5232 27.2765 14.4895 27.2765 14.3775 27.2417C14.2767 27.2066 14.3775 27.0315 14.3102 26.9498C14.2318 26.8798 14.0973 26.3427 14.3775 26.3311ZM14.1981 25.0237C14.4223 24.9887 14.3439 25.2805 14.299 25.3622C14.2318 25.4673 14.3102 25.619 14.1645 25.6073C14.0077 25.584 14.0301 25.3855 14.0077 25.2804C13.9964 25.1638 14.0638 25.0352 14.1981 25.0237ZM13.4026 26.0743C13.4474 26.0043 13.481 25.8292 13.6267 25.8175C13.7274 25.7941 13.6939 26.0859 13.6827 26.2261C13.6827 26.366 13.7164 26.5412 13.537 26.4712C13.3465 26.4011 13.3465 26.1559 13.4026 26.0743ZM12.7077 26.1092C12.7413 26.1092 12.7413 26.0858 12.7413 26.0858C12.7413 26.0858 12.8981 25.8174 13.055 25.8991C13.1222 25.9107 12.9541 26.2492 12.9318 26.3077C12.8983 26.4011 12.7862 26.4711 12.6853 26.3777C12.5845 26.2727 12.6742 26.1092 12.7077 26.1092ZM12.2371 26.7278C12.3268 26.7629 12.2371 27.0664 12.2034 27.2064C12.1923 27.3465 12.0914 27.4165 11.9905 27.3814C11.8897 27.3699 11.9458 27.1246 11.912 27.1246C11.8897 27.1015 12.0241 26.6929 12.2371 26.7278V26.7278ZM11.912 29.0509C11.9793 29.0742 11.9905 29.2143 11.9905 29.2375C11.9905 29.296 12.0578 29.3309 12.0914 29.436C12.1138 29.5178 12.0578 29.5995 11.9795 29.6227C11.8898 29.6227 11.8113 29.4477 11.8113 29.4477C11.8113 29.471 11.744 29.0393 11.912 29.0509ZM12.1923 30.4865C12.125 30.5333 12.0467 30.5682 11.9458 30.5565C11.8449 30.5216 11.7329 30.3466 11.8226 30.2415C11.912 30.1598 12.0467 30.2298 12.1138 30.2763C12.1811 30.335 12.2595 30.4282 12.1923 30.4865ZM12.2259 28.5138C12.0914 28.4904 12.1474 28.222 12.125 28.222C12.125 28.222 12.2595 27.7436 12.394 27.8253C12.4949 27.8953 12.4389 28.2105 12.4276 28.3621C12.4052 28.5021 12.338 28.549 12.2259 28.5138V28.5138ZM12.4723 29.401C12.4276 29.3777 12.3714 29.074 12.5732 29.0508C12.6516 29.0508 12.7862 29.2142 12.7862 29.3075C12.7749 29.4126 12.8085 29.5527 12.6181 29.5409C12.4389 29.5178 12.5059 29.4127 12.4723 29.401V29.401ZM12.9543 30.8952C12.8872 30.8952 12.7525 30.8837 12.6742 30.7551C12.607 30.6617 12.5845 30.4984 12.6742 30.4516C12.7414 30.4166 12.9206 30.5333 12.9992 30.6967C13.0887 30.8485 12.9992 30.8952 12.9543 30.8952ZM13.1896 30.3115C13.0999 30.2999 12.9992 30.2647 12.9206 30.1598C12.8423 30.0665 12.8423 29.868 12.9655 29.8446C13.1559 29.8096 13.2679 29.9848 13.3354 30.1364C13.3801 30.2998 13.2457 30.3115 13.1896 30.3115V30.3115ZM13.3688 29.4827C13.2791 29.4827 13.2345 29.4477 13.1896 29.3777C13.1224 29.3309 13.0999 29.1209 13.2791 29.1209C13.3688 29.1209 13.5034 29.1909 13.5144 29.296C13.537 29.4127 13.4474 29.471 13.3688 29.4827ZM13.537 27.1247C13.6602 27.1247 13.8846 27.2648 13.8171 27.6734C13.7274 28.0702 13.6827 27.9302 13.6042 27.9535C13.537 27.9885 13.5819 27.7318 13.537 27.6734C13.4474 27.5683 13.2345 27.1247 13.537 27.1247V27.1247ZM13.7611 30.9652C13.6827 30.9302 13.5819 30.8835 13.5706 30.7551C13.537 30.6384 13.6602 30.6034 13.7611 30.6268C13.8845 30.6384 13.9741 30.7434 13.9741 30.8252C13.9741 30.9302 13.8283 30.9886 13.7611 30.9652ZM13.9741 30.1598C13.918 30.1714 13.8845 30.2064 13.7611 30.1714C13.6491 30.1248 13.4137 29.868 13.6267 29.7278C13.6939 29.6695 13.9517 29.7395 14.0078 29.9379C14.0973 30.1014 14.0412 30.1248 13.9741 30.1598ZM13.9964 29.366C13.9628 29.3309 14.03 29.1443 14.2093 29.1909C14.3775 29.226 14.4223 29.3426 14.4111 29.4477C14.3775 29.5527 14.2654 29.5527 14.1756 29.541C14.0973 29.5178 14.0412 29.401 13.9964 29.366V29.366ZM14.6689 31.397C14.6129 31.4321 14.4895 31.4671 14.3214 31.4438C14.1756 31.4321 14.1421 31.3853 14.1981 31.2921C14.2654 31.2103 14.3102 31.187 14.4448 31.1403C14.5792 31.082 14.7362 31.1518 14.7699 31.2103C14.8033 31.257 14.7361 31.3853 14.6689 31.397V31.397ZM14.893 30.6382C14.8033 30.6967 14.6129 30.6382 14.5567 30.4982C14.512 30.3466 14.5904 30.3114 14.6576 30.2763C14.7361 30.2646 14.9265 30.3581 14.9603 30.4865C14.9715 30.5682 14.9715 30.5917 14.893 30.6382V30.6382ZM15.0723 29.9614C14.9938 29.9614 14.7024 29.9145 14.7585 29.7628C14.7921 29.5995 14.9603 29.5995 15.05 29.6227C15.106 29.6227 15.3413 29.7044 15.2853 29.8445C15.2516 29.9963 15.1507 29.9497 15.0723 29.9614V29.9614ZM17.6497 32.7161C17.6497 32.7977 17.6049 32.8561 17.5377 32.8561C17.4593 32.8561 17.2352 32.7977 17.1231 32.8912C17.011 32.9727 16.9437 33.1247 16.955 33.2299C16.9774 33.3114 16.9774 33.44 16.9214 33.4748C16.8767 33.5215 16.6637 33.44 16.574 33.4514C16.4956 33.4514 16.2153 33.5215 16.1481 33.6735C16.0697 33.8135 16.1258 33.9184 16.0809 33.9537C16.0361 34.0119 15.9688 34.0353 15.9016 34.0353C15.8344 34.0587 15.5317 34.0119 15.4869 34.0587C15.4197 34.1054 15.2516 34.3155 15.2067 34.2454C15.1507 34.1755 15.0723 34.2103 15.2179 33.9537C15.2852 33.8369 15.4645 33.7086 15.4869 33.7086C15.4982 33.7086 15.7222 33.7317 15.7671 33.6969C15.8119 33.6501 15.9465 33.3699 16.0026 33.3114C16.2267 33.1247 16.2155 33.1948 16.2827 33.1595C16.35 33.1481 16.5741 33.1948 16.5964 33.1481C16.6301 33.0779 16.7646 32.8211 16.8767 32.7161C17.0223 32.5759 17.2578 32.5525 17.2913 32.5291C17.3024 32.4943 17.3585 32.4008 17.3922 32.3307C17.437 32.2607 17.6387 32.0857 17.7732 32.1207C17.8404 32.144 17.6051 32.471 17.6051 32.5408C17.5825 32.6111 17.6497 32.6228 17.6497 32.7161V32.7161ZM17.8178 31.724C17.6497 31.7591 17.4704 31.7474 17.4592 31.654C17.4367 31.5839 17.4928 31.4788 17.6048 31.4322C17.7057 31.3855 17.8065 31.4205 17.8849 31.4205C17.9521 31.4205 18.1203 31.4205 18.0979 31.4788C18.0868 31.5371 17.9859 31.6889 17.8178 31.724V31.724ZM18.0533 30.9302C17.8627 30.9535 17.6835 30.8952 17.7058 30.8135C17.7394 30.7202 17.8515 30.6384 18.0196 30.6384C18.1877 30.6268 18.2998 30.6734 18.2998 30.7551C18.2998 30.8252 18.2325 30.9186 18.0533 30.9302ZM18.4342 29.9848C18.4007 30.1248 18.3333 30.1598 18.2101 30.1714C18.0868 30.1714 17.8403 30.1364 17.8403 29.938C17.8403 29.8446 18.098 29.7979 18.154 29.7979C18.2101 29.7745 18.4455 29.8446 18.4342 29.9848V29.9848ZM18.6136 29.2375C18.5912 29.3426 18.4455 29.436 18.3333 29.401C18.2101 29.366 18.0533 29.3426 18.0645 29.226C18.0645 29.1559 18.1652 29.0509 18.3446 29.0742C18.5351 29.0742 18.6248 29.1559 18.6136 29.2375V29.2375ZM19.2074 31.5021C19.1626 31.5488 19.1065 31.6771 18.9721 31.7122C18.8489 31.7239 18.6919 31.7822 18.6247 31.6188C18.5911 31.5371 18.6471 31.4671 18.7479 31.397C18.8263 31.3504 19.0953 31.3504 19.0953 31.3504C19.0953 31.3504 19.1288 31.257 19.1961 31.3153C19.2634 31.3621 19.2634 31.4438 19.2074 31.5021V31.5021ZM19.5212 30.8835C19.4091 30.8835 19.1401 30.8951 19.1288 30.7551C19.0953 30.6968 19.2746 30.6268 19.3866 30.5917C19.521 30.5567 19.6107 30.5567 19.6556 30.5684C19.7004 30.5917 19.8237 30.6384 19.8237 30.6968C19.8238 30.7551 19.6222 30.8602 19.5212 30.8835V30.8835ZM19.667 28.549C19.6222 28.4321 19.611 28.3271 19.6557 28.2805C19.7342 28.222 20.0032 28.3271 20.0479 28.4555C20.1153 28.5723 20.1153 28.7124 20.0032 28.7475C19.8911 28.759 19.7005 28.6541 19.667 28.549V28.549ZM20.0702 29.226C20.0478 29.1209 20.2496 29.0393 20.3841 29.0509C20.4961 29.0742 20.698 29.1909 20.6642 29.3077C20.6196 29.436 20.5971 29.471 20.4961 29.471C20.3952 29.471 20.0815 29.401 20.0702 29.226V29.226ZM20.1711 30.0546C20.1487 29.9614 20.3506 29.9145 20.4289 29.9145C20.4961 29.9145 20.7989 29.9614 20.7093 30.0897C20.6531 30.2064 20.5298 30.2647 20.4289 30.2647C20.3506 30.2647 20.2048 30.1364 20.1711 30.0546V30.0546ZM20.7763 31.0352C20.6642 31.1169 20.5858 31.1169 20.4514 31.1169C20.3282 31.1169 20.3056 31.0352 20.3056 30.9302C20.3056 30.8485 20.4289 30.7902 20.485 30.7785C20.5522 30.7551 20.6307 30.7785 20.698 30.7551C20.7428 30.7434 20.7428 30.7434 20.81 30.7202C20.8661 30.7085 20.8997 30.6968 20.9109 30.7902C20.9334 30.8835 20.8995 30.9652 20.7763 31.0352V31.0352ZM21.0004 28.6775C20.9443 28.7124 20.9443 28.7475 20.8323 28.7241C20.6979 28.7124 20.6306 28.5023 20.597 28.4904C20.5521 28.4672 20.4512 28.3505 20.496 28.2922C20.5521 28.2454 20.7988 28.2454 20.9108 28.3505C21.0453 28.4672 21.0453 28.6423 21.0004 28.6775V28.6775ZM21.247 29.1559C21.2807 29.1209 21.3591 29.0742 21.46 29.0742C21.5607 29.0742 21.6953 29.1443 21.7402 29.2143C21.7739 29.296 21.7739 29.366 21.7065 29.436C21.6616 29.4827 21.3591 29.401 21.3142 29.3426C21.247 29.2726 21.2247 29.2143 21.247 29.1559ZM21.3254 30.2064C21.292 30.2415 21.2807 30.1248 21.3254 30.0665C21.3928 30.0197 21.5384 29.938 21.6281 29.938C21.7065 29.938 21.841 29.9614 21.8188 30.0314C21.8074 30.1014 21.785 30.2764 21.6058 30.2764C21.4263 30.2998 21.3591 30.1947 21.3254 30.2064V30.2064ZM21.6729 31.0703C21.5272 31.082 21.4263 31.0586 21.404 30.9302C21.3928 30.8135 21.5049 30.7785 21.5272 30.7785C21.5384 30.7785 21.6616 30.7551 21.6953 30.7434C21.7739 30.7434 21.9082 30.6384 21.9755 30.7434C22.0089 30.8135 21.8186 31.0352 21.6729 31.0703V31.0703ZM22.1547 28.7124C22.1323 28.7591 22.0875 28.8991 21.9193 28.8525C21.7513 28.7941 21.6727 28.7124 21.628 28.6424C21.5944 28.5724 21.4709 28.4673 21.572 28.3623C21.628 28.3157 21.8857 28.4206 22.0089 28.514C22.11 28.6189 22.1659 28.6423 22.1547 28.7124V28.7124ZM22.2668 29.2143C22.3005 29.1443 22.4349 29.1092 22.536 29.1092C22.6367 29.1209 22.7711 29.1559 22.7933 29.2726C22.816 29.3777 22.7933 29.4127 22.7599 29.471C22.7041 29.5178 22.5022 29.4477 22.4237 29.4127C22.334 29.3777 22.2332 29.2609 22.2668 29.2143V29.2143ZM22.2893 30.0197C22.2893 29.938 22.4014 29.9497 22.4574 29.938C22.4798 29.9146 22.5134 29.8797 22.603 29.868C22.6703 29.8446 22.816 29.8446 22.816 29.9145C22.8385 29.9614 22.816 30.0665 22.6367 30.1248C22.4349 30.1947 22.3005 30.1014 22.2893 30.0197ZM22.9392 30.7902C22.9392 30.7902 22.7933 30.9302 22.7599 30.9886C22.7041 31.0235 22.6143 31.1169 22.4798 31.0003C22.4014 30.9186 22.4798 30.7785 22.536 30.7434C22.5807 30.6968 22.9168 30.4867 22.9841 30.5917C23.04 30.6967 22.9392 30.7902 22.9392 30.7902ZM23.1406 28.7239C23.0735 28.829 22.9725 28.8173 22.8496 28.7939C22.7373 28.7822 22.5358 28.6423 22.5469 28.5021C22.5694 28.3855 22.771 28.4205 22.883 28.4672C23.0066 28.5138 23.2192 28.6189 23.1406 28.7239ZM24.4744 30.335C24.4073 30.335 24.2392 30.1598 24.508 30.1248C24.6091 30.1014 24.6203 30.1714 24.6203 30.2764C24.6203 30.3582 24.5305 30.335 24.4744 30.335V30.335ZM24.6203 29.5178C24.508 29.4827 24.4631 29.436 24.5305 29.3426C24.6091 29.2726 24.6425 29.296 24.7432 29.3309C24.8218 29.366 24.8443 29.436 24.8218 29.5061C24.8106 29.5879 24.7432 29.5529 24.6203 29.5178ZM25.2589 32.0392C25.1018 32.0041 24.9564 31.8057 24.8778 31.6889C24.8104 31.549 24.7883 31.2921 24.8441 31.1755C24.889 31.0354 24.9564 31.0237 25.0235 31.0704C25.1018 31.117 25.0571 31.4674 25.1018 31.479C25.1579 31.514 25.1916 31.7593 25.3372 31.7943C25.3821 31.7943 25.4382 31.911 25.4382 31.911C25.4382 31.911 25.3821 32.0741 25.2589 32.0392V32.0392Z" fill="#2C3330"/>
<path d="M44.1371 10.5C47.5806 23.02 48.9848 30.3752 49.1371 45H37.6371M44.1371 10.5H40.1371H12.1371C5.95476 23.9457 4.5009 31.5133 5.13705 45H37.6371M44.1371 10.5C38.9488 23.6319 37.1279 31.133 37.6371 45" stroke="#2C3330"/>
<path d="M22.137 13.3612V7.86117C23.7294 2.83335 27.8003 2.59393 29.137 7.86117V13.3612" stroke="#2C3330"/>
<circle cx="22.137" cy="13" r="1" fill="#2C3330"/>
<circle cx="29.137" cy="13" r="1" fill="#2C3330"/>
</svg>
