<svg width="38" height="48" viewBox="0 0 38 48" fill="none" xmlns="http://www.w3.org/2000/svg">
<path d="M27.8646 30.1743L27.8628 30.1769L27.42 30.824C24.998 34.21 22.4002 37.4757 19.6366 40.6089C19.6365 40.609 19.6363 40.6091 19.6362 40.6093L19.0241 41.301L10.1392 30.1739C7.68489 26.6585 4.45046 21.9733 4.45 16.4071C4.46984 12.7063 6.00631 9.16008 8.72943 6.54371C11.4533 3.92658 15.1432 2.45315 18.9938 2.45C22.8466 2.45 26.5396 3.92204 29.2662 6.53951C31.9919 9.15617 33.5301 12.7041 33.55 16.4068C33.5496 21.9682 30.3211 26.6376 27.8793 30.1532C27.8793 30.1532 27.8793 30.1532 27.8793 30.1533L27.8646 30.1743Z" stroke="#2C3330" stroke-width="0.9"/>
<path d="M25.7461 16.3456C25.7082 16.3176 25.5828 16.4508 25.5327 16.4298C25.4761 16.4087 25.4323 16.3246 25.3883 16.3035C25.3318 16.2827 25.3004 16.3176 25.244 16.3035C25.2 16.2967 25.2314 16.2195 25.1937 16.1985C25.1434 16.1776 25.1183 16.2336 25.0618 16.2125C25.0178 16.1985 24.9866 16.1076 24.9488 16.0865C24.905 16.0726 24.8924 16.1355 24.8423 16.1145C24.7731 16.0865 24.7543 16.0304 24.7104 16.0095C24.6727 15.9814 24.5911 16.0654 24.5347 16.0304C24.4782 16.0025 24.4782 15.7853 24.4404 15.7643C24.3966 15.7433 24.2584 15.9184 24.202 15.8764C24.1517 15.8484 24.1706 15.6872 24.1266 15.6592C24.089 15.6312 23.9196 15.7923 23.8756 15.7713C23.838 15.7502 23.8316 15.6663 23.7752 15.6592C23.7249 15.6522 23.637 15.7293 23.5806 15.7082C23.4676 15.6592 23.3296 15.6803 23.1601 15.232C23.1413 15.176 23.1037 15.1409 23.066 15.162C22.9656 15.204 23.0033 15.246 23.1413 15.5542C23.3296 15.9605 23.568 15.8764 24.4591 16.2195C24.9863 16.4298 25.3125 16.4926 25.3565 16.5698C25.3944 16.6468 25.432 16.7518 25.2812 16.7658C25.0428 16.7869 24.9863 16.6468 24.9423 16.6257C24.8859 16.6047 24.8482 16.6748 24.7353 16.6538C24.6098 16.6327 24.6536 16.5698 24.6098 16.5487C24.5532 16.5417 24.4402 16.5487 24.365 16.5347C24.2897 16.5137 24.2834 16.4086 24.2457 16.4297C24.2019 16.4507 24.1642 16.5347 24.0323 16.4926C23.9132 16.4367 23.9132 16.3245 23.8629 16.3175C23.8315 16.3034 23.662 16.4086 23.5868 16.3876C23.4237 16.3315 23.4426 16.1775 23.3921 16.1635C23.3357 16.1565 23.317 16.3245 22.9655 16.2966C22.6142 16.2545 22.4635 16.2826 22.2437 16.1564C21.9488 15.9813 21.6036 16.0024 21.704 15.8483C21.8171 15.6872 21.9928 15.7713 22.1056 15.8343C22.2188 15.8833 22.3442 15.9813 22.4319 15.9253C22.4634 15.8974 22.3942 15.7853 22.363 15.6312C22.3191 15.3581 22.5325 15.274 22.5137 15.232C22.4822 15.1829 22.363 15.113 22.0743 15.162C21.8798 15.197 21.5031 15.5262 21.409 15.5752C21.3149 15.6382 20.926 15.8694 20.7124 15.5262C20.4991 15.176 20.6937 14.8188 20.7815 14.7068C20.8631 14.5947 21.0012 14.5107 21.0513 14.5947C21.1204 14.7278 20.9572 14.7628 20.8882 14.8539C20.8253 14.945 20.725 15.2531 20.8379 15.3932C20.9572 15.5333 21.1768 15.5473 21.4278 15.3372C21.6349 15.1621 21.9738 14.9169 22.3063 14.9451C22.6452 14.9659 22.8211 15.1411 22.8712 15.1552C22.9215 15.1621 22.9654 15.0362 23.0343 15.0081C23.0846 14.9871 23.1536 15.0571 23.1975 15.0361C23.2352 15.0081 23.2792 14.896 23.3293 14.8749C23.3859 14.8539 23.524 14.9589 23.5679 14.9239C23.6056 14.9029 23.5993 14.7699 23.662 14.7629C23.7247 14.7489 23.8315 14.8749 23.8755 14.8539C23.9319 14.8189 23.9319 14.7488 23.9883 14.7488C24.0323 14.7488 24.1327 14.9169 24.183 14.9029C24.2206 14.896 24.2082 14.7279 24.2646 14.7069C24.321 14.6858 24.4654 14.8189 24.5156 14.7979C24.5532 14.7769 24.5595 14.5737 24.6285 14.5317C24.6913 14.5037 24.7541 14.6158 24.7918 14.5947C24.8421 14.5737 24.8733 14.3425 24.9299 14.3356C24.98 14.3286 25.0805 14.3985 25.1243 14.3846C25.162 14.3776 25.1432 14.1675 25.2185 14.1254C25.2939 14.0975 25.388 14.2306 25.4132 14.2236C25.4507 14.2096 25.4696 14.0975 25.5073 14.0905C25.5512 14.0764 25.6642 14.1815 25.7207 14.1675C25.7646 14.1465 25.7459 13.9925 25.796 13.9854C25.8337 13.9713 25.9906 14.0064 25.978 13.8103C25.9717 13.6142 25.7459 13.4251 25.5325 13.4251C25.1433 13.4251 24.7543 13.6142 24.4216 13.6842C24.0891 13.7472 23.4051 13.9713 23.2355 14.0065C23.0661 14.0344 22.9029 13.9294 23.0535 13.7962C23.1728 13.6702 23.2355 13.7683 23.2355 13.7263C23.2355 13.6842 23.1602 13.6422 23.0535 13.6212C22.9405 13.6002 22.8088 13.7263 22.6645 13.7052C22.5202 13.6842 22.3758 13.5582 22.219 13.5932C21.8362 13.6422 21.7796 13.8314 21.5851 13.9083C21.3905 13.9925 21.2462 13.9294 21.1395 13.9434C20.876 13.9854 20.7818 14.1605 20.5873 14.1394C20.355 14.1184 20.2421 13.9713 19.9911 13.8942C19.7525 13.8102 19.2945 13.7331 19.1877 13.6911C19.0748 13.642 18.5791 13.509 18.4598 13.495C18.328 13.474 18.2652 13.516 18.2088 13.516C18.146 13.516 18.0644 13.474 17.9765 13.467C17.8949 13.4529 17.7631 13.446 17.7068 13.467C17.6568 13.4952 17.638 13.4952 17.5689 13.4741C17.5125 13.4671 17.3054 13.4251 17.2175 13.4392C17.0919 13.4462 17.0417 13.5372 16.9477 13.5512C16.8598 13.5582 16.772 13.5091 16.6716 13.5302C16.5713 13.5512 16.4896 13.5932 16.4018 13.6212C16.3202 13.6562 16.1696 13.6352 16.1006 13.6421C15.9123 13.6912 15.8872 13.7962 15.8182 13.7962C15.7554 13.7962 15.5295 13.7543 15.4605 13.7962C15.3851 13.8313 15.3224 13.8943 15.2659 13.9013C15.1969 13.9082 14.9458 13.9504 14.7889 13.9293C14.7011 13.9223 14.5504 14.0064 14.4877 14.0273C14.4124 14.0484 14.2367 14.0484 14.1865 13.9504C14.1362 13.8313 14.2743 13.6562 14.5066 13.4461C14.6634 13.3129 15.5483 12.6195 16.9854 12.3605C18.1088 12.1504 19.4203 11.6251 19.6965 11.3029C19.8158 11.1698 20.2989 10.7146 20.4181 10.4345C20.5374 10.1543 20.5749 9.99321 20.5122 10.0002C20.4495 10.0213 20.3742 10.1683 20.2549 10.2173C20.1419 10.2593 20.0415 10.1893 19.9537 10.2313C19.8722 10.2593 19.778 10.4064 19.6903 10.4134C19.5961 10.4274 19.5584 10.3363 19.4893 10.3713C19.4203 10.4274 19.3074 10.5185 19.232 10.5394C19.0751 10.5674 19.0689 10.3644 18.9245 10.4484C18.7739 10.5324 18.6672 10.6726 18.5167 10.7075C18.3785 10.7286 18.3973 10.6095 18.3033 10.6095C18.1525 10.6095 18.0083 10.8407 17.9393 10.8407C17.8703 10.8407 17.8137 10.7146 17.7259 10.7287C17.6443 10.7356 17.387 10.9528 17.2866 10.9878C17.1799 11.0089 17.1611 10.8268 17.0732 10.8408C16.9665 10.8478 16.772 11.058 16.6653 11.086C16.5523 11.107 16.4896 11.023 16.4143 11.023C16.339 11.023 16.1068 11.2401 15.9938 11.2751C15.8307 11.3171 15.8181 11.0861 15.6424 11.1C15.5169 11.107 15.385 11.2962 15.2848 11.3032C15.178 11.3171 15.134 11.2261 15.0148 11.2542C14.8831 11.2961 14.6258 11.4922 14.5379 11.5133C14.4563 11.5343 14.3935 11.4783 14.2931 11.5133C14.1048 11.5763 13.9292 11.8565 13.8098 11.9266C13.6781 12.0106 13.584 11.9686 13.5149 12.0176C13.3894 12.1156 13.3706 12.3117 13.2513 12.3678C13.1447 12.4309 13.1509 12.3398 13.0504 12.4097C12.8811 12.5497 12.9439 12.704 12.8937 12.774C12.8434 12.844 12.7053 12.9 12.6237 13.0121C12.5421 13.1171 12.5421 13.1803 12.5107 13.2503C12.4732 13.3204 12.3288 13.5304 12.2974 13.6215C12.2787 13.7123 12.3163 13.8103 12.2787 13.8803C12.2536 13.9434 12.1971 14.0485 12.1658 14.1254C12.1156 14.3076 12.1846 14.4897 12.1783 14.5598C12.1658 14.6227 12.103 14.7278 12.103 14.8119C12.103 14.896 12.1783 15.057 12.1595 15.183C12.1407 15.3092 11.9085 16.1426 12.0403 16.5208C12.1846 16.9129 12.398 17.1231 12.4732 17.0881C12.5548 17.06 12.5046 16.8919 12.5862 16.738C12.6677 16.5907 12.7619 16.4088 12.8372 16.5348C12.8999 16.6539 12.6866 16.6539 12.6677 16.9971C12.6427 17.3261 12.6802 17.1861 12.6677 17.2842C12.6615 17.3892 12.4732 17.5853 12.4732 17.6764C12.4732 17.7744 12.492 18.0196 12.7681 18.2787C12.9376 18.4467 12.9752 18.5588 13.0191 18.5659C13.0567 18.5799 13.0944 18.3697 13.176 18.3276C13.289 18.2715 13.5337 18.5168 13.5776 18.5097C13.6341 18.4887 13.6529 18.1525 13.7533 18.0895C13.8538 18.0405 14.0986 18.2577 14.1488 18.2296C14.1989 18.1876 14.1424 17.9774 14.1676 17.8934C14.1989 17.8164 14.337 17.7954 14.2931 17.6553C14.2554 17.5152 14.2366 17.2421 13.7911 17.2071C13.6593 17.193 13.4773 17.1722 13.5966 17.018C13.7346 16.8639 13.8852 16.2966 13.5588 15.8554C13.4208 15.6663 13.107 15.7713 13.0191 15.8134C12.8623 15.8764 12.7054 16.1076 12.6427 16.0445C12.5862 15.9815 12.7682 15.7224 13.0505 15.6313C13.3266 15.5332 13.6781 15.5543 13.8162 15.9394C14.0609 16.6117 13.8162 16.9269 13.8476 16.997C13.8852 17.067 14.0232 16.99 14.2178 17.1231C14.4939 17.3261 14.4563 17.5012 14.5253 17.5643C14.588 17.6202 14.9206 17.6483 15.2282 17.6693C15.542 17.6904 15.8871 17.7814 16.0314 17.6904C16.2636 17.5573 16.2824 17.0599 16.8221 16.6957C17.0919 16.5137 17.4496 16.3316 17.8513 16.4086C18.2969 16.4786 18.3032 16.5487 18.2655 16.6117C18.2592 16.6468 18.2468 16.6957 18.2404 16.6888C18.027 16.5628 17.7196 16.5487 17.5312 16.5907C17.2551 16.6468 16.7844 16.7309 16.4393 17.4032C16.1004 18.0755 16.6463 18.0825 16.7028 18.1036C16.7656 18.1316 16.866 18.1665 16.8597 18.3627C16.8472 18.5589 16.9037 18.6709 16.9665 18.797C17.0417 18.909 17.161 19 17.161 19C17.161 19 17.2488 18.7759 17.3493 18.7269C17.4497 18.664 17.5689 18.776 17.6254 18.8461C17.8011 19.0983 17.7259 18.6289 17.8513 18.58C18.0334 18.5168 18.1023 18.8181 18.2028 18.762C18.3848 18.671 18.2844 18.5309 18.4162 18.4748C18.5542 18.4328 18.6359 18.559 18.6923 18.5169C18.755 18.4678 18.7488 18.0338 18.6295 17.8586C18.4977 17.6764 18.3033 17.3683 17.889 17.3683C17.4811 17.3683 17.3493 17.3053 17.3681 17.2142C17.3869 17.1231 17.4685 17.06 17.5689 17.1021C17.7259 17.1651 17.7446 17.151 17.9956 17.1651C18.3596 17.1722 18.278 17.3472 18.5793 17.4943C18.8053 17.5993 19.1002 17.4241 19.4642 17.4943C19.8344 17.5644 20.1419 17.6414 20.4807 17.6203C21.121 17.5993 21.8302 17.2843 21.9681 17.2632C22.1126 17.2352 22.1878 17.2562 22.1878 17.2071C22.1878 17.1651 21.5665 17.06 21.6041 16.892C21.6544 16.731 21.9493 16.8641 22.3572 16.9691C22.7651 17.0671 23.6373 17.1511 23.9763 17.1302C24.3404 17.1232 24.9616 17.3054 25.4699 17.1723C25.7272 17.1022 25.9719 16.927 25.9971 16.7311C26.0285 16.5347 25.7962 16.3877 25.7461 16.3456V16.3456ZM22.2442 13.9434C22.3446 13.9223 22.5204 13.9713 22.4765 14.0974C22.4388 14.2235 22.4201 14.2024 22.3383 14.2235C22.2568 14.2444 22.0873 14.2655 22.0434 14.1814C22.0057 14.0974 22.1313 13.9713 22.2442 13.9434ZM19.6902 10.7146C19.7529 10.7496 19.7592 10.8477 19.7529 10.9108C19.734 10.9668 19.7028 11.0228 19.6713 11.0228C19.621 11.0228 19.621 10.9457 19.6023 10.8687C19.5833 10.8056 19.621 10.6726 19.6902 10.7146V10.7146ZM19.1129 10.9107C19.2446 10.9457 19.1944 11.0788 19.1693 11.2329C19.1504 11.3379 19.0689 11.3659 19.0563 11.3869C19.0124 11.478 18.9999 11.0788 18.9999 11.0788C18.9999 11.0788 19.0375 10.8896 19.1129 10.9107ZM18.4727 11.0228C18.5229 11.0158 18.6108 11.2329 18.5605 11.4221C18.5041 11.6041 18.435 11.6041 18.435 11.6041C18.435 11.6041 18.4162 11.401 18.3973 11.38C18.3785 11.3449 18.3409 11.0578 18.4727 11.0228V11.0228ZM17.8953 11.1278C18.0146 11.0788 18.0461 11.38 17.9895 11.5341C17.9393 11.6951 17.9393 11.7932 17.8513 11.7301C17.7446 11.6741 17.8326 11.4781 17.8011 11.4221C17.7635 11.3239 17.7949 11.1839 17.8953 11.1278V11.1278ZM17.2552 11.296C17.4058 11.2749 17.3869 11.541 17.3493 11.6882C17.3054 11.8212 17.274 11.8842 17.2113 11.8633C17.1422 11.8352 17.2301 11.6601 17.1924 11.5831C17.1422 11.5131 17.1736 11.3029 17.2552 11.296ZM16.5963 11.429C16.6841 11.4499 16.7469 11.597 16.703 11.8002C16.6653 12.0103 16.6088 12.0593 16.5586 12.0593C16.5084 12.0593 16.5774 11.7301 16.5335 11.7301C16.4958 11.7301 16.4896 11.4079 16.5963 11.429ZM15.9499 11.6741C16.0064 11.6741 16.1319 11.7932 16.0691 12.0103C16.0064 12.2344 16.0064 12.2135 15.9499 12.2344C15.8871 12.2484 15.9311 12.1013 15.8934 12.0173C15.8494 11.9472 15.7929 11.6671 15.9499 11.6741V11.6741ZM15.3662 11.9053C15.4792 11.8983 15.5232 12.1644 15.498 12.2764C15.4792 12.3884 15.4415 12.5286 15.3725 12.5076C15.3098 12.4936 15.385 12.2905 15.3286 12.2905C15.2847 12.2904 15.1968 11.9123 15.3662 11.9053ZM14.996 12.6686C14.9207 12.8228 14.9269 12.8228 14.8768 12.8228C14.8266 12.8228 14.8579 12.5987 14.8015 12.5987C14.7513 12.5987 14.7074 12.2695 14.8642 12.2554C15.0336 12.2484 15.0399 12.5566 14.996 12.6686ZM14.745 11.6181C14.7826 11.6181 14.8768 11.6881 14.7889 11.7932C14.7074 11.8982 14.7011 11.9682 14.6258 11.9262C14.5504 11.8983 14.6257 11.6251 14.745 11.6181ZM12.6112 13.8313C12.6614 13.8313 12.7242 13.9713 12.718 14.0274C12.7054 14.0694 12.6992 14.1395 12.6238 14.1605C12.5548 14.1814 12.5297 14.0555 12.5297 14.0344C12.5235 14.0065 12.5046 13.8173 12.6112 13.8313V13.8313ZM12.6866 14.7487C12.649 14.7487 12.605 14.7487 12.5736 14.7208C12.5547 14.6857 12.4292 14.5457 12.5234 14.4056C12.5297 14.3846 12.6866 14.5037 12.718 14.5807C12.7368 14.6367 12.7368 14.7487 12.6866 14.7487ZM12.8183 13.5791C12.7994 13.6141 12.7493 13.6351 12.718 13.6141C12.6677 13.5791 12.6677 13.467 12.6866 13.4461C12.6991 13.4391 12.7054 13.2709 12.8057 13.2919C12.8559 13.2989 12.7994 13.439 12.8057 13.453C12.8183 13.4741 12.8434 13.5511 12.8183 13.5791ZM16.9979 14.2935C17.0042 14.2445 17.0732 14.2025 17.1422 14.2235C17.2301 14.2305 17.3305 14.3146 17.3117 14.3776C17.3054 14.4406 17.2113 14.4896 17.1172 14.4406C17.0355 14.3985 16.9791 14.3565 16.9979 14.2935V14.2935ZM17.1234 14.7487C17.1799 14.7418 17.3305 14.7278 17.3179 14.8188C17.3117 14.9028 17.274 14.9239 17.1548 14.9449C17.0355 14.9658 16.9602 14.8819 16.9602 14.8399C16.9665 14.7698 17.0607 14.7628 17.1234 14.7487V14.7487ZM16.8096 13.7893C16.8786 13.7893 16.9414 13.8523 16.9225 13.9013C16.9037 13.9504 16.8975 14.0133 16.772 13.9854C16.728 13.9643 16.6715 13.8943 16.6715 13.8523C16.6716 13.7683 16.7469 13.7753 16.8096 13.7893ZM16.1319 13.9643C16.1444 13.8943 16.2636 13.8803 16.3201 13.9083C16.3829 13.9434 16.4206 14.0344 16.3829 14.0764C16.339 14.1115 16.2951 14.0975 16.2197 14.0764C16.1444 14.0554 16.1256 14.0344 16.1319 13.9643V13.9643ZM16.0503 14.2866C16.1444 14.2866 16.2573 14.3636 16.2071 14.4196C16.1695 14.4616 16.1319 14.4896 16.0314 14.4896C15.931 14.4896 15.8934 14.4476 15.8934 14.3846C15.8934 14.3286 15.9561 14.2726 16.0503 14.2866V14.2866ZM15.8871 14.7487C15.9938 14.7278 16.0691 14.7978 16.0629 14.8608C16.0629 14.9239 15.9687 14.9799 15.9059 14.9799C15.8307 14.9799 15.7239 14.9588 15.7114 14.8608C15.6989 14.7768 15.8307 14.7628 15.8871 14.7487ZM15.5985 15.3091C15.5797 15.246 15.7114 15.218 15.7742 15.204C15.8307 15.197 15.9499 15.225 15.9311 15.288C15.9123 15.3371 15.8746 15.4001 15.7742 15.4001C15.6737 15.3932 15.6172 15.3581 15.5985 15.3091ZM15.7553 15.7012C15.7365 15.7923 15.6612 15.8063 15.6047 15.8133C15.542 15.8273 15.4415 15.8133 15.4415 15.7433C15.4415 15.6663 15.5295 15.6102 15.5797 15.5892C15.6801 15.5683 15.7742 15.6312 15.7553 15.7012V15.7012ZM15.4792 13.9854C15.5168 13.9924 15.6361 14.0273 15.6424 14.0904C15.6424 14.1394 15.6737 14.2094 15.542 14.2094C15.4227 14.2094 15.3725 14.1884 15.3474 14.1184C15.3098 14.0344 15.4415 13.9713 15.4792 13.9854ZM15.4604 14.4826C15.5859 14.5107 15.6047 14.5107 15.6172 14.5736C15.6235 14.6367 15.5295 14.6787 15.4227 14.6997C15.3097 14.7207 15.247 14.6647 15.2155 14.6017C15.1968 14.5457 15.3349 14.4616 15.4604 14.4826V14.4826ZM15.247 15.0569C15.3098 15.0499 15.385 15.0779 15.385 15.155C15.3725 15.218 15.3349 15.246 15.2721 15.2741C15.2156 15.3091 15.0901 15.2531 15.0713 15.2041C15.0524 15.155 15.178 15.071 15.247 15.0569V15.0569ZM15.134 15.6382C15.134 15.7012 15.0211 15.7502 14.9646 15.7643C14.9206 15.7713 14.883 15.8133 14.8453 15.7713C14.8014 15.7293 14.8077 15.6872 14.8391 15.6592C14.8578 15.6312 14.9771 15.5682 15.0023 15.5542C15.0524 15.5332 15.1403 15.5892 15.134 15.6382V15.6382ZM14.8768 14.1464C14.9772 14.1464 15.0211 14.2094 15.04 14.2655C15.0525 14.3145 15.04 14.3424 15.0148 14.3635C14.9961 14.3845 14.8831 14.3775 14.8203 14.3355C14.7324 14.2866 14.7638 14.1464 14.8768 14.1464V14.1464ZM14.3747 12.5987C14.5128 12.5846 14.5379 12.7948 14.5065 12.9839C14.4563 13.1659 14.4374 13.1659 14.3747 13.145C14.3182 13.124 14.3747 13.0189 14.337 12.9699C14.2931 12.9279 14.2178 12.6056 14.3747 12.5987ZM14.2742 11.8142C14.3998 11.7932 14.3559 11.9683 14.3307 12.0173C14.2931 12.0804 14.337 12.1714 14.2554 12.1644C14.1676 12.1504 14.1802 12.0313 14.1676 11.9682C14.1613 11.8983 14.199 11.8211 14.2742 11.8142ZM13.8288 12.4445C13.8538 12.4026 13.8727 12.2975 13.9542 12.2905C14.0107 12.2765 13.9919 12.4516 13.9856 12.5356C13.9856 12.6196 14.0045 12.7247 13.904 12.6827C13.7973 12.6407 13.7973 12.4936 13.8288 12.4445ZM13.4396 12.4655C13.4584 12.4655 13.4584 12.4515 13.4584 12.4515C13.4584 12.4515 13.5463 12.2904 13.6341 12.3394C13.6718 12.3464 13.5776 12.5495 13.5651 12.5846C13.5463 12.6407 13.4836 12.6827 13.4271 12.6266C13.3706 12.5636 13.4208 12.4655 13.4396 12.4655ZM13.1761 12.8367C13.2263 12.8577 13.1761 13.0398 13.1572 13.1238C13.151 13.2079 13.0945 13.2499 13.038 13.2289C12.9815 13.2219 13.0129 13.0747 12.994 13.0747C12.9815 13.0609 13.0568 12.8157 13.1761 12.8367V12.8367ZM12.994 14.2306C13.0317 14.2445 13.038 14.3286 13.038 14.3425C13.038 14.3776 13.0756 14.3985 13.0945 14.4616C13.107 14.5107 13.0756 14.5597 13.0318 14.5736C12.9816 14.5736 12.9377 14.4686 12.9377 14.4686C12.9377 14.4826 12.8999 14.2235 12.994 14.2306ZM13.151 15.0919C13.1133 15.12 13.0694 15.1409 13.0129 15.1339C12.9564 15.113 12.8937 15.0079 12.9439 14.9449C12.994 14.8959 13.0694 14.9379 13.107 14.9658C13.1447 15.001 13.1886 15.0569 13.151 15.0919ZM13.1698 13.9083C13.0945 13.8943 13.1259 13.7332 13.1133 13.7332C13.1133 13.7332 13.1886 13.4462 13.2639 13.4952C13.3204 13.5372 13.2891 13.7263 13.2828 13.8173C13.2702 13.9013 13.2326 13.9294 13.1698 13.9083V13.9083ZM13.3078 14.4406C13.2828 14.4266 13.2513 14.2444 13.3643 14.2305C13.4082 14.2305 13.4836 14.3285 13.4836 14.3845C13.4773 14.4476 13.4961 14.5316 13.3894 14.5245C13.2891 14.5107 13.3266 14.4476 13.3078 14.4406V14.4406ZM13.5777 15.3371C13.5401 15.3371 13.4647 15.3302 13.4208 15.2531C13.3832 15.197 13.3706 15.099 13.4208 15.071C13.4585 15.0499 13.5588 15.12 13.6028 15.218C13.653 15.3091 13.6028 15.3371 13.5777 15.3371ZM13.7095 14.9869C13.6593 14.98 13.6028 14.9588 13.5588 14.8959C13.515 14.8399 13.515 14.7208 13.584 14.7068C13.6906 14.6857 13.7533 14.7909 13.7911 14.8819C13.8162 14.9799 13.7409 14.9869 13.7095 14.9869V14.9869ZM13.8098 14.4896C13.7596 14.4896 13.7346 14.4686 13.7095 14.4266C13.6718 14.3985 13.6593 14.2726 13.7596 14.2726C13.8098 14.2726 13.8852 14.3146 13.8914 14.3776C13.904 14.4476 13.8538 14.4826 13.8098 14.4896ZM13.904 13.0748C13.973 13.0748 14.0987 13.1589 14.0609 13.404C14.0107 13.6421 13.9856 13.5581 13.9417 13.5721C13.904 13.5931 13.9292 13.4391 13.904 13.404C13.8538 13.341 13.7346 13.0748 13.904 13.0748V13.0748ZM14.0295 15.3791C13.9856 15.3581 13.9292 15.3301 13.9228 15.2531C13.904 15.183 13.973 15.1621 14.0295 15.1761C14.0986 15.183 14.1488 15.246 14.1488 15.2951C14.1488 15.3581 14.0672 15.3932 14.0295 15.3791ZM14.1488 14.8959C14.1174 14.9028 14.0986 14.9239 14.0295 14.9028C13.9668 14.8749 13.835 14.7208 13.9542 14.6367C13.9919 14.6017 14.1362 14.6437 14.1677 14.7627C14.2178 14.8608 14.1864 14.8749 14.1488 14.8959ZM14.1613 14.4196C14.1424 14.3985 14.1801 14.2866 14.2805 14.3146C14.3747 14.3356 14.3998 14.4056 14.3935 14.4686C14.3747 14.5316 14.3119 14.5316 14.2617 14.5246C14.2178 14.5107 14.1864 14.4406 14.1613 14.4196V14.4196ZM14.5379 15.6382C14.5065 15.6592 14.4374 15.6803 14.3433 15.6663C14.2617 15.6592 14.2429 15.6312 14.2742 15.5752C14.3119 15.5262 14.337 15.5122 14.4124 15.4842C14.4876 15.4492 14.5756 15.4911 14.5944 15.5262C14.6131 15.5542 14.5755 15.6312 14.5379 15.6382V15.6382ZM14.6634 15.1829C14.6131 15.218 14.5065 15.1829 14.4751 15.0989C14.45 15.0079 14.4939 14.9868 14.5316 14.9658C14.5755 14.9588 14.6821 15.0149 14.7011 15.0919C14.7074 15.1409 14.7074 15.155 14.6634 15.1829V15.1829ZM14.7638 14.7768C14.7199 14.7768 14.5566 14.7487 14.5881 14.6577C14.6069 14.5597 14.7011 14.5597 14.7513 14.5736C14.7826 14.5736 14.9144 14.6226 14.8831 14.7067C14.8642 14.7978 14.8077 14.7698 14.7638 14.7768V14.7768ZM16.2071 16.4297C16.2071 16.4786 16.1821 16.5137 16.1444 16.5137C16.1005 16.5137 15.975 16.4786 15.9122 16.5347C15.8494 16.5836 15.8118 16.6748 15.8181 16.7379C15.8307 16.7869 15.8307 16.864 15.7993 16.8849C15.7742 16.9129 15.655 16.864 15.6047 16.8708C15.5608 16.8708 15.4039 16.9129 15.3662 17.0041C15.3223 17.0881 15.3538 17.151 15.3286 17.1722C15.3035 17.2071 15.2658 17.2212 15.2282 17.2212C15.1905 17.2352 15.0211 17.2071 14.996 17.2352C14.9583 17.2632 14.8642 17.3893 14.8391 17.3472C14.8077 17.3053 14.7638 17.3262 14.8453 17.1722C14.883 17.1021 14.9834 17.0251 14.996 17.0251C15.0023 17.0251 15.1278 17.039 15.1529 17.0181C15.178 16.9901 15.2533 16.8219 15.2848 16.7869C15.4103 16.6748 15.404 16.7169 15.4416 16.6957C15.4793 16.6888 15.6048 16.7169 15.6173 16.6888C15.6362 16.6468 15.7114 16.4926 15.7742 16.4297C15.8558 16.3455 15.9877 16.3315 16.0064 16.3175C16.0126 16.2966 16.0441 16.2405 16.0629 16.1984C16.088 16.1564 16.201 16.0514 16.2763 16.0724C16.3139 16.0864 16.1821 16.2826 16.1821 16.3245C16.1695 16.3666 16.2071 16.3737 16.2071 16.4297V16.4297ZM16.3013 15.8344C16.2071 15.8554 16.1067 15.8484 16.1004 15.7924C16.0879 15.7503 16.1193 15.6873 16.182 15.6593C16.2385 15.6313 16.2949 15.6523 16.3388 15.6523C16.3765 15.6523 16.4707 15.6523 16.4581 15.6873C16.4519 15.7223 16.3954 15.8134 16.3013 15.8344V15.8344ZM16.4331 15.3581C16.3264 15.3721 16.2261 15.3371 16.2386 15.2881C16.2573 15.2321 16.3201 15.183 16.4143 15.183C16.5084 15.1761 16.5712 15.2041 16.5712 15.2531C16.5712 15.2951 16.5335 15.3512 16.4331 15.3581ZM16.6465 14.7909C16.6277 14.8749 16.59 14.8959 16.521 14.9028C16.4519 14.9028 16.3138 14.8819 16.3138 14.7628C16.3138 14.7068 16.4582 14.6787 16.4896 14.6787C16.521 14.6647 16.6528 14.7068 16.6465 14.7909V14.7909ZM16.7469 14.3425C16.7344 14.4056 16.6528 14.4616 16.59 14.4406C16.521 14.4196 16.4331 14.4056 16.4394 14.3356C16.4394 14.2935 16.4958 14.2306 16.5963 14.2445C16.703 14.2445 16.7532 14.2935 16.7469 14.3425V14.3425ZM17.0795 15.7012C17.0544 15.7293 17.023 15.8063 16.9477 15.8273C16.8787 15.8343 16.7907 15.8693 16.7531 15.7713C16.7343 15.7223 16.7657 15.6803 16.8221 15.6382C16.866 15.6102 17.0167 15.6102 17.0167 15.6102C17.0167 15.6102 17.0354 15.5542 17.0731 15.5892C17.1108 15.6172 17.1108 15.6663 17.0795 15.7012V15.7012ZM17.2552 15.3301C17.1924 15.3301 17.0417 15.3371 17.0354 15.2531C17.0167 15.2181 17.1171 15.1761 17.1798 15.155C17.2551 15.134 17.3053 15.134 17.3304 15.141C17.3555 15.155 17.4246 15.183 17.4246 15.2181C17.4246 15.2531 17.3117 15.3161 17.2552 15.3301V15.3301ZM17.3368 13.9294C17.3117 13.8593 17.3054 13.7962 17.3305 13.7683C17.3744 13.7332 17.5251 13.7962 17.5501 13.8733C17.5879 13.9434 17.5879 14.0274 17.5251 14.0485C17.4623 14.0554 17.3556 13.9925 17.3368 13.9294V13.9294ZM17.5626 14.3356C17.5501 14.2726 17.6631 14.2235 17.7384 14.2306C17.8011 14.2445 17.9142 14.3146 17.8953 14.3846C17.8703 14.4616 17.8577 14.4826 17.8011 14.4826C17.7446 14.4826 17.5689 14.4406 17.5626 14.3356V14.3356ZM17.6191 14.8328C17.6066 14.7768 17.7196 14.7487 17.7635 14.7487C17.8011 14.7487 17.9707 14.7768 17.9205 14.8538C17.8891 14.9239 17.82 14.9588 17.7635 14.9588C17.7196 14.9588 17.638 14.8819 17.6191 14.8328V14.8328ZM17.9581 15.4211C17.8953 15.4701 17.8513 15.4701 17.7761 15.4701C17.7071 15.4701 17.6944 15.4211 17.6944 15.3581C17.6944 15.3091 17.7635 15.2741 17.7949 15.2671C17.8326 15.2531 17.8765 15.2671 17.9142 15.2531C17.9393 15.246 17.9393 15.246 17.9769 15.2321C18.0083 15.2251 18.0271 15.2181 18.0334 15.2741C18.046 15.3301 18.027 15.3791 17.9581 15.4211V15.4211ZM18.0835 14.0065C18.0521 14.0274 18.0521 14.0485 17.9894 14.0344C17.9141 14.0274 17.8764 13.9014 17.8576 13.8943C17.8325 13.8803 17.776 13.8103 17.8011 13.7753C17.8325 13.7472 17.9706 13.7472 18.0333 13.8103C18.1087 13.8803 18.1087 13.9854 18.0835 14.0065V14.0065ZM18.2216 14.2935C18.2405 14.2726 18.2844 14.2445 18.3409 14.2445C18.3973 14.2445 18.4727 14.2866 18.4978 14.3286C18.5167 14.3776 18.5167 14.4196 18.479 14.4616C18.4538 14.4896 18.2844 14.4406 18.2593 14.4056C18.2216 14.3636 18.2091 14.3286 18.2216 14.2935ZM18.2655 14.9239C18.2468 14.9449 18.2405 14.8749 18.2655 14.8399C18.3033 14.8118 18.3848 14.7628 18.435 14.7628C18.479 14.7628 18.5542 14.7768 18.5418 14.8188C18.5355 14.8608 18.5229 14.9659 18.4225 14.9659C18.322 14.9799 18.2844 14.9168 18.2655 14.9239V14.9239ZM18.4601 15.4422C18.3785 15.4492 18.322 15.4352 18.3095 15.3581C18.3033 15.2881 18.366 15.2671 18.3785 15.2671C18.3848 15.2671 18.4538 15.2531 18.4727 15.246C18.5167 15.246 18.5919 15.183 18.6296 15.246C18.6483 15.2881 18.5417 15.4211 18.4601 15.4422V15.4422ZM18.7299 14.0274C18.7174 14.0555 18.6923 14.1395 18.5981 14.1115C18.504 14.0764 18.46 14.0274 18.435 13.9854C18.4162 13.9434 18.347 13.8804 18.4036 13.8174C18.435 13.7894 18.5793 13.8524 18.6483 13.9084C18.7049 13.9713 18.7362 13.9854 18.7299 14.0274V14.0274ZM18.7927 14.3286C18.8116 14.2866 18.8869 14.2655 18.9434 14.2655C18.9999 14.2726 19.0751 14.2935 19.0876 14.3636C19.1003 14.4266 19.0876 14.4476 19.0689 14.4826C19.0376 14.5107 18.9245 14.4686 18.8806 14.4476C18.8304 14.4266 18.7739 14.3565 18.7927 14.3286V14.3286ZM18.8053 14.8118C18.8053 14.7628 18.8681 14.7698 18.8994 14.7628C18.912 14.7488 18.9308 14.7278 18.981 14.7208C19.0186 14.7068 19.1003 14.7068 19.1003 14.7487C19.1129 14.7768 19.1003 14.8399 18.9999 14.8749C18.8869 14.9168 18.8116 14.8608 18.8053 14.8118ZM19.1693 15.2741C19.1693 15.2741 19.0876 15.3581 19.0689 15.3932C19.0376 15.4141 18.9873 15.4701 18.912 15.4002C18.8681 15.3512 18.912 15.2671 18.9434 15.246C18.9685 15.2181 19.1567 15.092 19.1944 15.155C19.2257 15.218 19.1693 15.2741 19.1693 15.2741ZM19.2821 14.0344C19.2445 14.0974 19.1879 14.0904 19.1191 14.0764C19.0562 14.0693 18.9434 13.9854 18.9496 13.9013C18.9621 13.8313 19.0751 13.8523 19.1378 13.8803C19.207 13.9083 19.3261 13.9713 19.2821 14.0344ZM20.0289 15.001C19.9914 15.001 19.8972 14.8959 20.0478 14.8749C20.1044 14.8608 20.1107 14.9028 20.1107 14.9659C20.1107 15.0149 20.0604 15.001 20.0289 15.001V15.001ZM20.1107 14.5107C20.0478 14.4896 20.0227 14.4616 20.0604 14.4056C20.1044 14.3636 20.1231 14.3776 20.1795 14.3985C20.2235 14.4196 20.2361 14.4616 20.2235 14.5037C20.2172 14.5528 20.1795 14.5317 20.1107 14.5107ZM20.4683 16.0235C20.3803 16.0025 20.2989 15.8834 20.2549 15.8134C20.2172 15.7294 20.2047 15.5752 20.236 15.5053C20.2612 15.4212 20.2989 15.4142 20.3364 15.4422C20.3803 15.4702 20.3553 15.6804 20.3803 15.6874C20.4117 15.7084 20.4306 15.8556 20.5121 15.8766C20.5373 15.8766 20.5687 15.9466 20.5687 15.9466C20.5687 15.9466 20.5373 16.0445 20.4683 16.0235V16.0235Z" fill="#2C3330"/>
</svg>
