<svg width="74" height="43" viewBox="0 0 74 43" fill="none" xmlns="http://www.w3.org/2000/svg">
<path fill-rule="evenodd" clip-rule="evenodd" d="M72.658 30.3179C72.4578 30.1839 71.7949 30.8205 71.5299 30.72C71.2309 30.6195 70.9991 30.2174 70.7665 30.1169C70.4683 30.0171 70.3021 30.1839 70.0039 30.1169C69.7713 30.0842 69.9374 29.7156 69.7381 29.6151C69.4723 29.5153 69.3394 29.7826 69.0412 29.6821C68.8086 29.6151 68.6432 29.1807 68.4439 29.0801C68.2121 29.0135 68.1457 29.3139 67.8806 29.2138C67.5152 29.0801 67.4155 28.8121 67.1837 28.712C66.9843 28.5779 66.5532 28.9792 66.255 28.8121C65.9559 28.6784 65.9559 27.6409 65.7566 27.5404C65.5248 27.4403 64.7946 28.2768 64.4964 28.0761C64.2306 27.9425 64.3303 27.1722 64.0977 27.0386C63.8991 26.9046 63.0036 27.6744 62.7711 27.5739C62.5725 27.4734 62.5385 27.0721 62.2402 27.0386C61.9744 27.0051 61.5101 27.3733 61.2118 27.2727C60.6146 27.0386 59.8848 27.1391 58.9893 24.9974C58.8896 24.7298 58.6911 24.5622 58.4917 24.6628C57.9609 24.8634 58.1602 25.0641 58.8896 26.5368C59.8848 28.4778 61.1454 28.0761 65.8555 29.7156C68.6421 30.72 70.3662 31.0204 70.5988 31.3889C70.7989 31.7567 70.9975 32.2585 70.2009 32.3256C68.9407 32.4261 68.6421 31.7567 68.4095 31.6562C68.1112 31.5557 67.9119 31.8908 67.3154 31.7902C66.6517 31.6897 66.8835 31.3889 66.6517 31.2884C66.3527 31.2549 65.7554 31.2884 65.3579 31.2214C64.96 31.1209 64.9267 30.6191 64.7274 30.7196C64.4956 30.8201 64.2963 31.2214 63.5993 31.0204C62.9696 30.7531 62.9696 30.217 62.7038 30.1835C62.5377 30.1165 61.6422 30.6191 61.2447 30.5186C60.3824 30.2505 60.4821 29.5149 60.2155 29.4479C59.9172 29.4144 59.8184 30.217 57.9605 30.0838C56.1034 29.8827 55.3068 30.0167 54.1455 29.414C52.5867 28.5775 50.7617 28.678 51.2925 27.9421C51.8905 27.1722 52.8189 27.5739 53.4154 27.8751C54.0134 28.1092 54.6763 28.5775 55.1403 28.3099C55.3064 28.1762 54.9409 27.6409 54.7756 26.9046C54.5438 25.5998 55.6719 25.1981 55.5722 24.9974C55.4061 24.7629 54.7756 24.4286 53.25 24.6628C52.2216 24.8299 50.2309 26.4028 49.7333 26.6373C49.2357 26.9381 47.1801 28.0426 46.0512 26.4027C44.9239 24.7298 45.9523 23.0233 46.4167 22.488C46.8478 21.9527 47.578 21.551 47.8426 21.9527C48.2081 22.5885 47.345 22.7557 46.9803 23.1908C46.6481 23.626 46.118 25.0984 46.7145 25.7677C47.345 26.4367 48.5059 26.5037 49.8326 25.5001C50.9274 24.6636 52.7188 23.492 54.4762 23.6264C56.2676 23.7262 57.1971 24.563 57.4621 24.6305C57.7279 24.6636 57.9597 24.0616 58.3244 23.9276C58.5902 23.8271 58.9549 24.1618 59.1867 24.0612C59.386 23.9276 59.6186 23.3919 59.8836 23.2914C60.1826 23.1908 60.9128 23.6927 61.1446 23.5255C61.3439 23.425 61.3107 22.7896 61.6422 22.756C61.9736 22.689 62.5377 23.2914 62.7703 23.1908C63.0685 23.0237 63.0685 22.6886 63.3667 22.6886C63.5993 22.6886 64.1301 23.492 64.3959 23.425C64.5945 23.3919 64.5288 22.5889 64.8271 22.4884C65.1253 22.3879 65.8887 23.0237 66.1541 22.9232C66.3527 22.8231 66.3859 21.8522 66.7506 21.6515C67.0828 21.5179 67.4143 22.0532 67.6136 21.9527C67.8795 21.8522 68.0448 20.7476 68.3438 20.7145C68.6088 20.681 69.1396 21.0153 69.3714 20.9487C69.5708 20.9151 69.4711 19.9115 69.869 19.7105C70.2677 19.5769 70.7653 20.2127 70.8982 20.1796C71.0968 20.1126 71.1964 19.5769 71.3958 19.5433C71.6276 19.4763 72.2249 19.9781 72.5239 19.9115C72.7557 19.811 72.6568 19.075 72.9218 19.0411C73.1211 18.9741 73.9502 19.1417 73.8837 18.2047C73.8505 17.2676 72.6568 16.3641 71.5291 16.3641C69.4719 16.3641 67.4155 17.2676 65.6569 17.6023C63.8995 17.9035 60.2839 18.9741 59.3876 19.1421C58.4921 19.2757 57.6294 18.7739 58.4257 18.1376C59.0561 17.5353 59.3876 18.004 59.3876 17.8034C59.3876 17.6023 58.9897 17.4017 58.4257 17.3012C57.8284 17.201 57.1322 17.8034 56.3692 17.7028C55.6066 17.6023 54.8436 17.0004 54.0146 17.1675C51.9914 17.4017 51.6924 18.3056 50.664 18.673C49.6356 19.075 48.8726 18.7739 48.3085 18.8405C46.9158 19.0411 46.4183 19.878 45.3898 19.7771C44.1621 19.6766 43.5652 18.9741 42.2386 18.6055C40.9776 18.2043 38.5565 17.8361 37.9921 17.6354C37.3956 17.4009 34.7751 16.765 34.1447 16.6984C33.4481 16.5979 33.1162 16.7985 32.818 16.7985C32.4858 16.7985 32.0546 16.5979 31.5903 16.5644C31.1587 16.4974 30.4622 16.4643 30.1643 16.5644C29.9001 16.6992 29.8008 16.6992 29.4357 16.5987C29.1375 16.5652 28.0427 16.3645 27.5783 16.4316C26.9146 16.4651 26.6492 16.8999 26.152 16.9669C25.6876 17.0004 25.2232 16.7658 24.6928 16.8664C24.1624 16.9669 23.7309 17.1675 23.2665 17.3012C22.8354 17.4687 22.0392 17.3682 21.6745 17.4013C20.6793 17.6358 20.5464 18.1376 20.1817 18.1376C19.8498 18.1376 18.6561 17.937 18.291 18.1376C17.8927 18.3052 17.5612 18.6059 17.2626 18.6394C16.8979 18.6726 15.5709 18.874 14.7414 18.7735C14.2771 18.74 13.4809 19.1417 13.1494 19.2418C12.7515 19.3423 11.8224 19.3423 11.557 18.874C11.2915 18.3052 12.0213 17.4687 13.2491 16.4647C14.0781 15.8284 18.7554 12.5156 26.3513 11.2778C32.2892 10.2742 39.2214 7.76436 40.6813 6.22502C41.3118 5.58918 43.8658 3.414 44.4955 2.07571C45.126 0.737013 45.3246 -0.0324564 44.9931 0.00105079C44.6617 0.101572 44.2637 0.804028 43.6333 1.03818C43.036 1.23882 42.5052 0.904549 42.0412 1.10519C41.6101 1.23882 41.1125 1.94168 40.6485 1.97518C40.1509 2.0418 39.9516 1.607 39.5861 1.77414C39.2214 2.0418 38.6249 2.47739 38.2262 2.57712C37.3972 2.71115 37.364 1.74103 36.601 2.14232C35.8047 2.54361 35.2411 3.21336 34.4453 3.38049C33.7151 3.48102 33.8144 2.91219 33.3172 2.91219C32.5206 2.91219 31.7584 4.01673 31.3933 4.01673C31.0286 4.01673 30.7296 3.414 30.2656 3.48141C29.8341 3.51452 28.4742 4.55205 27.9434 4.71959C27.3793 4.82011 27.2801 3.95012 26.8153 4.01713C26.2517 4.05064 25.2232 5.05466 24.6592 5.18869C24.0623 5.28881 23.7305 4.88752 23.3326 4.88752C22.9347 4.88752 21.7073 5.92505 21.11 6.09219C20.2478 6.29283 20.1813 5.18909 19.2526 5.2557C18.5893 5.28921 17.8923 6.19311 17.3623 6.22621C16.7979 6.29283 16.5657 5.85803 15.9356 5.99206C15.239 6.19271 13.8792 7.12931 13.4144 7.23024C12.9833 7.33076 12.6514 7.0631 12.1206 7.23024C11.1254 7.5314 10.1971 8.8701 9.5662 9.20477C8.87005 9.60606 8.37246 9.40541 8.00738 9.63956C7.34406 10.1079 7.24438 11.0449 6.61389 11.3129C6.05064 11.6141 6.08347 11.1789 5.55226 11.5132C4.65716 12.1821 4.98901 12.9189 4.72361 13.2536C4.4582 13.5878 3.72803 13.8555 3.29689 14.3912C2.86536 14.893 2.86536 15.1946 2.69963 15.5293C2.50107 15.8639 1.73807 16.8676 1.57194 17.3027C1.47306 17.7363 1.67162 18.2047 1.47306 18.5393C1.34055 18.8405 1.04192 19.3427 0.87619 19.7105C0.610783 20.5809 0.975866 21.4509 0.942641 21.7855C0.87619 22.0863 0.544332 22.5885 0.544332 22.9902C0.544332 23.3919 0.942641 24.1614 0.842965 24.7633C0.743684 25.366 -0.483676 29.3478 0.21287 31.1548C0.975866 33.0284 2.10355 34.0328 2.50146 33.8653C2.9326 33.7313 2.66719 32.9279 3.09833 32.1927C3.52947 31.4891 4.02706 30.6199 4.42537 31.2218C4.75683 31.7906 3.62915 31.7906 3.52947 33.4305C3.39697 35.0025 3.59553 34.3336 3.52947 34.8023C3.49625 35.3041 2.50107 36.2411 2.50107 36.6759C2.50107 37.1442 2.60074 38.3158 4.05989 39.5539C4.95579 40.3565 5.15474 40.8922 5.38653 40.9257C5.58549 40.9928 5.78484 39.9883 6.21598 39.7873C6.81324 39.5192 8.10666 40.6912 8.33884 40.6577C8.63747 40.5572 8.73675 38.9508 9.26757 38.65C9.79878 38.4155 11.0926 39.4534 11.358 39.3194C11.623 39.1183 11.3244 38.1143 11.4573 37.713C11.623 37.3453 12.3528 37.2447 12.1206 36.5754C11.9216 35.906 11.822 34.6013 9.46732 34.4337C8.77037 34.3667 7.80882 34.267 8.43891 33.5306C9.16868 32.7943 9.96451 30.0838 8.23956 27.976C7.51018 27.0721 5.85129 27.5739 5.38693 27.775C4.55787 28.0761 3.72843 29.1807 3.39697 28.8795C3.09833 28.5783 4.06029 27.3402 5.55266 26.905C7.0122 26.4363 8.87005 26.5372 9.59982 28.3773C10.8932 31.5892 9.59982 33.0954 9.76595 33.4301C9.96451 33.7644 10.6943 33.3966 11.7227 34.0324C13.1822 35.0025 12.9833 35.839 13.348 36.1406C13.6794 36.4078 15.4376 36.5419 17.0633 36.6424C18.7218 36.7429 20.546 37.1777 21.309 36.7429C22.5363 36.1071 22.6356 33.7309 25.4883 31.9905C26.9146 31.1209 28.8053 30.2509 30.9281 30.6191C33.2836 30.9534 33.3168 31.2884 33.1174 31.5892C33.0842 31.7567 33.0185 31.9905 32.9849 31.9578C31.8568 31.3554 30.232 31.2884 29.2364 31.4887C27.7769 31.7567 25.2889 32.1588 23.4647 35.3707C21.6733 38.583 24.5591 38.6165 24.8578 38.7171C25.1896 38.8511 25.7204 39.0178 25.6872 39.9552C25.6208 40.8926 25.9194 41.4276 26.2513 42.0299C26.6492 42.5652 27.2797 43 27.2797 43C27.2797 43 27.7436 41.9294 28.2748 41.6952C28.8057 41.3944 29.4358 41.9298 29.7344 42.2648C30.6631 43.4695 30.2656 41.2269 30.9285 40.9932C31.8909 40.6916 32.2552 42.1308 32.7864 41.8627C33.7483 41.4279 33.2175 40.7586 33.9144 40.4909C34.6438 40.2899 35.0754 40.893 35.3736 40.692C35.7051 40.4574 35.6722 38.3836 35.0417 37.5467C34.3452 36.6763 33.3172 35.204 31.1275 35.204C28.9714 35.204 28.2748 34.9032 28.3741 34.4676C28.4738 34.0328 28.9049 33.7313 29.4357 33.9323C30.2656 34.2331 30.3645 34.1661 31.6911 34.2331C33.615 34.2674 33.1839 35.1035 34.7763 35.8059C35.9709 36.3077 37.5297 35.4708 39.4536 35.8059C41.4103 36.141 43.036 36.5088 44.8266 36.4082C48.2112 36.3077 51.9594 34.8027 52.6887 34.7022C53.4521 34.5681 53.8501 34.6687 53.8501 34.4341C53.8501 34.2331 50.5659 33.7313 50.7644 32.9283C51.0302 32.1592 52.5891 32.7951 54.7452 33.2969C56.9012 33.7652 61.5117 34.1665 63.3035 34.0667C65.2278 34.0332 68.5111 34.9036 71.198 34.2678C72.5583 33.9327 73.8517 33.0958 73.9846 32.1596C74.1507 31.2214 72.923 30.519 72.658 30.3179V30.3179ZM54.1479 18.8405C54.6787 18.74 55.6078 18.9741 55.3756 19.5765C55.1763 20.1792 55.0774 20.0783 54.6455 20.1792C54.2143 20.2789 53.3188 20.3794 53.0867 19.9777C52.8873 19.5765 53.551 18.9741 54.1479 18.8405ZM40.6481 3.414C40.9796 3.58154 41.0128 4.05024 40.9796 4.35141C40.8799 4.61906 40.7146 4.88672 40.5484 4.88672C40.2826 4.88672 40.2826 4.51854 40.1838 4.15036C40.0833 3.8492 40.2826 3.21336 40.6481 3.414V3.414ZM37.5965 4.35101C38.2927 4.51814 38.0277 5.15438 37.8948 5.89034C37.7951 6.39216 37.3639 6.52618 37.2975 6.62631C37.0653 7.0615 36.9993 5.15438 36.9993 5.15438C36.9993 5.15438 37.1982 4.25048 37.5965 4.35101ZM34.2127 4.88672C34.4781 4.85322 34.9429 5.89074 34.677 6.79424C34.3788 7.66423 34.0137 7.66423 34.0137 7.66423C34.0137 7.66423 33.9144 6.69372 33.8144 6.5932C33.7151 6.42566 33.5161 5.05386 34.2127 4.88672V4.88672ZM31.1607 5.38853C31.7916 5.15438 31.9577 6.5932 31.6587 7.32956C31.3933 8.09903 31.3933 8.56773 30.9285 8.26617C30.3645 7.99851 30.8292 7.0619 30.6631 6.79424C30.4642 6.32514 30.6303 5.65619 31.1607 5.38853V5.38853ZM27.7773 6.19191C28.5735 6.09139 28.4738 7.36267 28.2748 8.06592C28.0427 8.70136 27.8769 9.00253 27.5455 8.9024C27.1804 8.76838 27.6447 7.93149 27.4458 7.56371C27.1804 7.22904 27.3461 6.22502 27.7773 6.19191ZM24.2945 6.82735C24.7589 6.92747 25.0907 7.63033 24.8586 8.60084C24.6596 9.60486 24.361 9.83901 24.0956 9.83901C23.8302 9.83901 24.1948 8.26617 23.9627 8.26617C23.7637 8.26617 23.7309 6.72683 24.2945 6.82735ZM20.8778 7.99851C21.1765 7.99851 21.8398 8.56733 21.5079 9.60486C21.1765 10.6755 21.1765 10.5754 20.8778 10.6755C20.546 10.7425 20.7786 10.0397 20.5792 9.63837C20.347 9.3033 20.0484 7.965 20.8778 7.99851V7.99851ZM17.793 9.10305C18.3903 9.06954 18.6225 10.3412 18.4896 10.8761C18.3903 11.4115 18.1909 12.0812 17.8263 11.9807C17.4944 11.9141 17.8923 10.9436 17.5941 10.9436C17.3619 10.9432 16.8975 9.13656 17.793 9.10305ZM15.8359 12.7502C15.438 13.4865 15.4708 13.4865 15.2058 13.4865C14.9404 13.4865 15.1061 12.4159 14.8079 12.4159C14.5425 12.4159 14.3103 10.843 15.1394 10.776C16.0349 10.7425 16.0681 12.2148 15.8359 12.7502ZM14.5093 7.73085C14.7082 7.73085 15.2058 8.06552 14.7414 8.56733C14.3103 9.06914 14.2771 9.40382 13.8792 9.20317C13.4809 9.06954 13.8788 7.76436 14.5093 7.73085ZM3.23084 18.3052C3.49585 18.3052 3.8281 18.9741 3.79488 19.2422C3.72843 19.4428 3.6956 19.7775 3.29729 19.878C2.9326 19.9777 2.8001 19.3762 2.8001 19.2757C2.76687 19.1421 2.66719 18.2382 3.23084 18.3052V18.3052ZM3.62915 22.6882C3.43019 22.6882 3.19761 22.6882 3.03188 22.555C2.93221 22.3875 2.26889 21.7185 2.76647 21.0488C2.7997 20.9487 3.62915 21.5175 3.79488 21.8857C3.89455 22.1529 3.89455 22.6882 3.62915 22.6882ZM4.3253 17.1001C4.22562 17.2672 3.96061 17.3678 3.79488 17.2672C3.52947 17.1001 3.52947 16.5648 3.62915 16.4647C3.6952 16.4312 3.72843 15.6278 4.25885 15.7279C4.52425 15.7614 4.22562 16.4308 4.25885 16.4978C4.3253 16.5987 4.4582 16.9665 4.3253 17.1001ZM26.4174 20.5135C26.4506 20.2793 26.8153 20.0787 27.1804 20.1792C27.6447 20.2123 28.1756 20.614 28.0763 20.9151C28.0431 21.2163 27.5455 21.4505 27.0479 21.2163C26.6163 21.0153 26.3181 20.8146 26.4174 20.5135V20.5135ZM27.0807 22.6882C27.3793 22.6551 28.1756 22.5885 28.1091 23.0233C28.0763 23.4246 27.8769 23.5251 27.2468 23.6256C26.6163 23.7254 26.2184 23.3245 26.2184 23.1238C26.2517 22.7892 26.7492 22.7556 27.0807 22.6882V22.6882ZM25.4222 18.1045C25.7869 18.1045 26.1188 18.4053 26.0191 18.6394C25.9198 18.874 25.8866 19.1748 25.2233 19.0411C24.9911 18.9406 24.6924 18.6059 24.6924 18.4053C24.6928 18.004 25.0907 18.0375 25.4222 18.1045ZM21.8398 18.9406C21.9059 18.6059 22.5363 18.5393 22.835 18.673C23.1668 18.8405 23.3658 19.2757 23.1668 19.4763C22.9347 19.6439 22.7025 19.5769 22.3042 19.4763C21.9063 19.3758 21.807 19.2753 21.8398 18.9406V18.9406ZM21.4087 20.4803C21.9063 20.4803 22.5031 20.8481 22.2377 21.1158C22.0388 21.3164 21.8398 21.4505 21.309 21.4505C20.7782 21.4505 20.5792 21.2498 20.5792 20.9487C20.5792 20.681 20.9111 20.4133 21.4087 20.4803V20.4803ZM20.546 22.6882C21.11 22.5885 21.5079 22.9228 21.4751 23.224C21.4751 23.5251 20.9775 23.7928 20.6457 23.7928C20.2478 23.7928 19.6837 23.6923 19.6173 23.224C19.5512 22.8227 20.2478 22.7556 20.546 22.6882ZM19.0204 25.3656C18.9211 25.0645 19.6173 24.9304 19.9491 24.8634C20.2478 24.8299 20.8778 24.9639 20.7786 25.2651C20.6793 25.4993 20.4799 25.8004 19.9491 25.8004C19.4183 25.7673 19.1197 25.5998 19.0204 25.3656ZM19.8494 27.2392C19.7502 27.6744 19.3523 27.741 19.0536 27.7746C18.7218 27.8416 18.1909 27.7746 18.1909 27.4403C18.1909 27.0721 18.6557 26.8044 18.9211 26.7039C19.4519 26.6042 19.9491 26.9046 19.8494 27.2392V27.2392ZM18.3903 19.0411C18.5889 19.0746 19.2193 19.2418 19.2526 19.5429C19.2526 19.7771 19.4183 20.1118 18.7218 20.1118C18.0917 20.1118 17.8263 20.0112 17.6934 19.6766C17.4944 19.2753 18.1909 18.9741 18.3903 19.0411ZM18.2906 21.417C18.9539 21.551 19.0536 21.551 19.1197 21.8518C19.1529 22.1529 18.6557 22.3536 18.0913 22.4541C17.494 22.5546 17.1625 22.2869 16.9964 21.9858C16.8975 21.7185 17.6273 21.3164 18.2906 21.417V21.417ZM17.1629 24.161C17.4944 24.1275 17.8923 24.2611 17.8923 24.6297C17.8263 24.9304 17.6273 25.0645 17.2954 25.1985C16.9968 25.3656 16.3335 25.098 16.2338 24.8638C16.1341 24.6297 16.7979 24.228 17.1629 24.161V24.161ZM16.5653 26.9381C16.5653 27.2392 15.9684 27.4734 15.6698 27.5404C15.4376 27.5739 15.2386 27.7746 15.0397 27.5739C14.8075 27.3733 14.8407 27.1722 15.0065 27.0386C15.1057 26.9046 15.7362 26.6038 15.8691 26.5368C16.1341 26.4363 16.5989 26.7039 16.5653 26.9381V26.9381ZM15.2058 19.8106C15.7366 19.8106 15.9688 20.1118 16.0685 20.3794C16.1345 20.6136 16.0685 20.7472 15.9356 20.8477C15.8363 20.9483 15.239 20.9147 14.9072 20.7141C14.4428 20.4804 14.6085 19.8106 15.2058 19.8106V19.8106ZM12.5521 12.4159C13.2819 12.3489 13.4144 13.3529 13.2487 14.2564C12.9833 15.126 12.8836 15.126 12.5521 15.0263C12.2535 14.9257 12.5521 14.4235 12.3528 14.1894C12.1206 13.9887 11.7227 12.449 12.5521 12.4159ZM12.0209 8.66786C12.6846 8.56773 12.4525 9.40422 12.3196 9.63837C12.1206 9.93953 12.3528 10.3743 11.9216 10.3408C11.4573 10.2742 11.5237 9.70498 11.4573 9.40382C11.4241 9.06954 11.6234 8.70096 12.0209 8.66786ZM9.66627 11.6795C9.79878 11.4789 9.89845 10.9771 10.3296 10.9436C10.6278 10.8765 10.5285 11.713 10.4953 12.1147C10.4953 12.516 10.595 13.0182 10.0642 12.8176C9.50015 12.6165 9.50015 11.9137 9.66627 11.6795ZM7.60946 11.7796C7.70875 11.7796 7.70875 11.7126 7.70875 11.7126C7.70875 11.7126 8.17311 10.9432 8.63747 11.1773C8.83643 11.2108 8.33884 12.1809 8.27278 12.3489C8.1735 12.6165 7.84165 12.8172 7.54301 12.5495C7.24478 12.2483 7.51018 11.7796 7.60946 11.7796ZM6.21637 13.5531C6.48178 13.6537 6.21637 14.5236 6.1167 14.9249C6.08387 15.3266 5.78524 15.5273 5.4866 15.4267C5.18797 15.3936 5.3541 14.6904 5.25402 14.6904C5.18797 14.6242 5.58588 13.453 6.21637 13.5531V13.5531ZM5.25402 20.2127C5.45338 20.2793 5.4866 20.681 5.4866 20.7476C5.4866 20.9151 5.68556 21.0153 5.78524 21.3164C5.85129 21.551 5.68556 21.7851 5.45377 21.8518C5.18837 21.8518 4.95618 21.3499 4.95618 21.3499C4.95618 21.417 4.75683 20.1792 5.25402 20.2127ZM6.08387 24.3281C5.88452 24.4621 5.65273 24.5622 5.3541 24.5287C5.05546 24.4286 4.724 23.9268 4.98941 23.6256C5.25402 23.3915 5.65273 23.5921 5.85129 23.7254C6.05064 23.8937 6.28282 24.161 6.08387 24.3281ZM6.18315 18.673C5.78524 18.6059 5.95097 17.8365 5.88452 17.8365C5.88452 17.8365 6.28282 16.4651 6.68074 16.6992C6.97937 16.8999 6.81364 17.8034 6.78041 18.2382C6.71396 18.6394 6.51501 18.7739 6.18315 18.673V18.673ZM6.91252 21.2163C6.78041 21.1493 6.61389 20.2789 7.21116 20.2123C7.44334 20.2123 7.84165 20.6806 7.84165 20.9483C7.80842 21.2494 7.9077 21.6511 7.34406 21.6172C6.81364 21.551 7.0122 21.2498 6.91252 21.2163V21.2163ZM8.33924 25.4997C8.14068 25.4997 7.74197 25.4665 7.51018 25.098C7.31123 24.8303 7.24478 24.362 7.51018 24.228C7.70914 24.1275 8.23956 24.4621 8.47214 24.9304C8.73715 25.3656 8.47214 25.4997 8.33924 25.4997ZM9.03578 23.8263C8.77037 23.7932 8.47214 23.6923 8.23956 23.3915C8.00777 23.1238 8.00777 22.555 8.37246 22.488C8.93611 22.3875 9.26757 22.8897 9.46732 23.3245C9.59982 23.7928 9.20191 23.8263 9.03578 23.8263V23.8263ZM9.5662 21.4505C9.30079 21.4505 9.16868 21.3499 9.03578 21.1493C8.83683 21.0153 8.77037 20.4133 9.30079 20.4133C9.5662 20.4133 9.96451 20.614 9.99734 20.9151C10.0642 21.2498 9.79878 21.417 9.5662 21.4505ZM10.0642 14.6908C10.4289 14.6908 11.093 15.0925 10.8932 16.2636C10.6278 17.4013 10.4953 17 10.2631 17.0666C10.0642 17.1671 10.1971 16.4312 10.0642 16.2636C9.79878 15.9625 9.16868 14.6908 10.0642 14.6908V14.6908ZM10.7275 25.7003C10.4953 25.5998 10.1971 25.4661 10.1635 25.098C10.0642 24.7633 10.4289 24.6632 10.7275 24.7302C11.0926 24.7633 11.358 25.0645 11.358 25.299C11.358 25.5998 10.9265 25.7673 10.7275 25.7003ZM11.358 23.3915C11.1919 23.4246 11.0926 23.5251 10.7275 23.4246C10.396 23.291 9.6991 22.555 10.3296 22.1529C10.5285 21.9858 11.2915 22.1864 11.4577 22.7553C11.7227 23.224 11.5566 23.291 11.358 23.3915ZM11.4241 21.1158C11.3244 21.0153 11.5233 20.4804 12.0541 20.614C12.5521 20.7145 12.6846 21.0488 12.6514 21.3499C12.5521 21.6511 12.2203 21.6511 11.9545 21.6176C11.7227 21.551 11.5566 21.2163 11.4241 21.1158V21.1158ZM13.4144 26.9381C13.2487 27.0386 12.8836 27.1391 12.386 27.0721C11.9545 27.0386 11.8552 26.9046 12.0209 26.6373C12.2203 26.4028 12.3528 26.3361 12.7511 26.2021C13.149 26.035 13.6138 26.2352 13.7134 26.4027C13.8123 26.5368 13.6134 26.9046 13.4144 26.9381V26.9381ZM14.0777 24.7629C13.8123 24.9304 13.2487 24.7629 13.0825 24.3616C12.95 23.9268 13.1822 23.8259 13.3812 23.7254C13.6134 23.6919 14.177 23.9599 14.2771 24.3281C14.3103 24.5622 14.3103 24.6297 14.0777 24.7629V24.7629ZM14.6085 22.8227C14.3764 22.8227 13.5137 22.6882 13.6798 22.2534C13.7791 21.7851 14.2771 21.7851 14.5425 21.8518C14.7082 21.8518 15.4048 22.0859 15.239 22.4876C15.1394 22.9228 14.8407 22.7892 14.6085 22.8227V22.8227ZM22.2377 30.7196C22.2377 30.9534 22.1052 31.1209 21.9063 31.1209C21.6741 31.1209 21.0108 30.9534 20.6789 31.2214C20.347 31.4552 20.1481 31.8908 20.1813 32.1923C20.2478 32.4261 20.2478 32.7947 20.082 32.8944C19.9495 33.0284 19.319 32.7947 19.0536 32.8274C18.8214 32.8274 17.992 33.0284 17.793 33.464C17.5609 33.8653 17.727 34.1661 17.5941 34.2674C17.4616 34.4341 17.2622 34.5011 17.0633 34.5011C16.8643 34.5681 15.9684 34.4341 15.8359 34.5681C15.6369 34.7022 15.1394 35.3045 15.0065 35.1035C14.8407 34.9032 14.6085 35.0029 15.0397 34.2674C15.2386 33.9323 15.7695 33.5645 15.8359 33.5645C15.8691 33.5645 16.5324 33.6307 16.6653 33.531C16.7979 33.397 17.1962 32.5936 17.3623 32.4261C18.0256 31.8908 17.9924 32.0918 18.1913 31.9905C18.3907 31.9578 19.054 32.0918 19.1201 31.9578C19.2197 31.7567 19.6177 31.0204 19.9495 30.7196C20.3807 30.3175 21.0776 30.2505 21.1769 30.1835C21.2097 30.0838 21.3758 29.8157 21.4755 29.6147C21.608 29.414 22.2053 28.9122 22.6032 29.0127C22.8021 29.0793 22.1056 30.0167 22.1056 30.217C22.0388 30.4184 22.2377 30.4519 22.2377 30.7196V30.7196ZM22.7353 27.8755C22.2377 27.976 21.7069 27.9425 21.6737 27.6748C21.6072 27.4738 21.7734 27.1726 22.1048 27.039C22.4034 26.905 22.7017 27.0055 22.9339 27.0055C23.1328 27.0055 23.6308 27.0055 23.5644 27.1726C23.5315 27.3398 23.2329 27.775 22.7353 27.8755V27.8755ZM23.4322 25.5998C22.8682 25.6668 22.3378 25.4997 22.4038 25.2655C22.5031 24.9978 22.835 24.7633 23.3326 24.7633C23.8302 24.7302 24.162 24.8638 24.162 25.098C24.162 25.299 23.9627 25.5667 23.4322 25.5998ZM24.5599 22.8897C24.4606 23.291 24.2613 23.3915 23.8966 23.4246C23.5315 23.4246 22.8018 23.3245 22.8018 22.7556C22.8018 22.488 23.5648 22.354 23.7305 22.354C23.8966 22.2869 24.5932 22.488 24.5599 22.8897V22.8897ZM25.0907 20.7476C25.0247 21.0488 24.5932 21.3164 24.2613 21.2163C23.8966 21.1158 23.4322 21.0488 23.4655 20.7145C23.4655 20.5135 23.7637 20.2127 24.2945 20.2793C24.8586 20.2793 25.124 20.5135 25.0907 20.7476V20.7476ZM26.8485 27.2392C26.716 27.3733 26.5499 27.741 26.152 27.8416C25.7873 27.8751 25.3225 28.0422 25.1236 27.5739C25.0243 27.3398 25.19 27.1391 25.4883 26.9381C25.7204 26.8044 26.5167 26.8044 26.5167 26.8044C26.5167 26.8044 26.6159 26.5368 26.8149 26.7039C27.0143 26.8379 27.0143 27.0721 26.8485 27.2392V27.2392ZM27.7773 25.4661C27.4454 25.4661 26.6492 25.4993 26.6159 25.098C26.5167 24.9308 27.0475 24.7302 27.3789 24.6297C27.7769 24.5291 28.0423 24.5291 28.1752 24.5626C28.3077 24.6297 28.6728 24.7633 28.6728 24.9308C28.6731 25.098 28.0763 25.3991 27.7773 25.4661V25.4661ZM28.2088 18.7739C28.0763 18.4388 28.0431 18.1376 28.1756 18.004C28.4077 17.8365 29.204 18.1376 29.3365 18.5058C29.5358 18.8405 29.5358 19.2422 29.204 19.3427C28.8721 19.3758 28.3081 19.075 28.2088 18.7739V18.7739ZM29.4025 20.7145C29.3361 20.4133 29.9333 20.1792 30.3316 20.2127C30.6631 20.2793 31.2608 20.614 31.1607 20.9487C31.0286 21.3164 30.9621 21.417 30.6631 21.417C30.3645 21.417 29.4357 21.2163 29.4025 20.7145V20.7145ZM29.7012 23.0899C29.6347 22.8227 30.2324 22.6882 30.4642 22.6882C30.6631 22.6882 31.5594 22.8227 31.294 23.1904C31.1279 23.5251 30.7628 23.6923 30.4642 23.6923C30.2324 23.6923 29.8008 23.3245 29.7012 23.0899V23.0899ZM31.4926 25.9009C31.1607 26.1351 30.9285 26.1351 30.5306 26.1351C30.1659 26.1351 30.0991 25.9009 30.0991 25.5998C30.0991 25.3656 30.4642 25.1985 30.6303 25.165C30.8292 25.098 31.0614 25.165 31.2608 25.098C31.3933 25.0645 31.3933 25.0645 31.5922 24.9978C31.7584 24.9643 31.8576 24.9308 31.8909 25.1985C31.9573 25.4661 31.8572 25.7003 31.4926 25.9009V25.9009ZM32.1559 19.1421C31.9898 19.2422 31.9898 19.3427 31.6583 19.2757C31.2604 19.2422 31.061 18.6398 30.9617 18.6059C30.8288 18.5393 30.5302 18.2047 30.6627 18.0375C30.8288 17.9035 31.559 17.9035 31.8905 18.2047C32.2888 18.5393 32.2888 19.0411 32.1559 19.1421V19.1421ZM32.8856 20.5135C32.9853 20.4133 33.2175 20.2793 33.5161 20.2793C33.8144 20.2793 34.2127 20.4804 34.3456 20.681C34.4453 20.9151 34.4453 21.1158 34.2459 21.3164C34.113 21.4505 33.2175 21.2163 33.0846 21.0488C32.8856 20.8481 32.8196 20.681 32.8856 20.5135ZM33.1178 23.5251C33.0189 23.6256 32.9853 23.291 33.1178 23.1238C33.3172 22.9898 33.7483 22.7556 34.0137 22.7556C34.2459 22.7556 34.6438 22.8227 34.5782 23.0233C34.5445 23.224 34.4781 23.7258 33.9477 23.7258C33.4165 23.7928 33.2175 23.4916 33.1178 23.5251V23.5251ZM34.1462 26.0015C33.7151 26.035 33.4165 25.968 33.3504 25.5998C33.3172 25.2655 33.649 25.165 33.7151 25.165C33.7483 25.165 34.113 25.098 34.2127 25.0645C34.4453 25.0645 34.8428 24.7633 35.0421 25.0645C35.141 25.2655 34.5778 25.9009 34.1462 26.0015V26.0015ZM35.5725 19.2422C35.5061 19.3762 35.3736 19.7775 34.8756 19.6439C34.3784 19.4763 34.1458 19.2422 34.0133 19.0415C33.9141 18.8409 33.5486 18.5397 33.8476 18.2386C34.0133 18.1049 34.7763 18.4057 35.141 18.6734C35.44 18.9741 35.6058 19.0411 35.5725 19.2422V19.2422ZM35.9044 20.681C36.0041 20.4804 36.402 20.3798 36.701 20.3798C36.9993 20.4133 37.3972 20.5135 37.4628 20.8481C37.5301 21.1493 37.4628 21.2498 37.364 21.417C37.1986 21.551 36.601 21.3499 36.3688 21.2498C36.1034 21.1493 35.8047 20.8146 35.9044 20.681V20.681ZM35.9709 22.9898C35.9709 22.7556 36.3027 22.7892 36.4685 22.7556C36.5349 22.6886 36.6342 22.5885 36.8996 22.555C37.0985 22.488 37.5301 22.488 37.5301 22.6882C37.5965 22.8227 37.5301 23.1238 36.9993 23.291C36.402 23.4916 36.0041 23.224 35.9709 22.9898ZM37.8948 25.1985C37.8948 25.1985 37.4628 25.5998 37.364 25.7673C37.1986 25.8674 36.9328 26.1351 36.5349 25.8008C36.3027 25.5667 36.5349 25.165 36.701 25.0645C36.8335 24.9308 37.8283 24.3285 38.0277 24.6297C38.193 24.9304 37.8948 25.1985 37.8948 25.1985ZM38.4908 19.2753C38.2923 19.5765 37.9933 19.5429 37.6294 19.4759C37.2971 19.4424 36.7006 19.0411 36.7335 18.6394C36.7999 18.3052 37.3968 18.4053 37.7282 18.5393C38.0941 18.673 38.7234 18.9741 38.4908 19.2753ZM42.4387 23.8937C42.2402 23.8937 41.7426 23.3915 42.5384 23.291C42.8374 23.224 42.8707 23.4246 42.8707 23.7258C42.8707 23.9603 42.6049 23.8937 42.4387 23.8937V23.8937ZM42.8707 21.551C42.5384 21.4505 42.4055 21.3164 42.6049 21.0488C42.8374 20.8481 42.9363 20.9151 43.2346 21.0153C43.4671 21.1158 43.5336 21.3164 43.4671 21.5175C43.4339 21.752 43.2346 21.6515 42.8707 21.551ZM44.7609 28.779C44.2958 28.6784 43.8654 28.1096 43.6329 27.775C43.4335 27.3737 43.3679 26.6373 43.5332 26.303C43.6661 25.9013 43.8654 25.8678 44.064 26.0019C44.2958 26.1355 44.1637 27.1399 44.2958 27.173C44.4619 27.2735 44.5616 27.9768 44.9927 28.0769C45.1256 28.0769 45.2918 28.4116 45.2918 28.4116C45.2918 28.4116 45.1256 28.8791 44.7609 28.779V28.779Z" fill="#2C3330"/>
</svg>
