<svg width="50" height="50" viewBox="0 0 50 50" fill="none" xmlns="http://www.w3.org/2000/svg">
<path d="M17.5 48C19.433 48 21 46.433 21 44.5C21 42.567 19.433 41 17.5 41C15.567 41 14 42.567 14 44.5C14 46.433 15.567 48 17.5 48Z" fill="#00532C"/>
<path d="M37.5 48C39.433 48 41 46.433 41 44.5C41 42.567 39.433 41 37.5 41C35.567 41 34 42.567 34 44.5C34 46.433 35.567 48 37.5 48Z" fill="#00532C"/>
<path d="M47.6313 7.29385C47.4885 7.11758 47.3084 6.97517 47.1041 6.87686C46.8997 6.77856 46.6761 6.72679 46.4494 6.72529H14.4913L15.4891 9.79858H44.4386L40.3402 28.2383H17.3157L10.3009 6.00307C10.225 5.76713 10.0932 5.55307 9.91681 5.37915C9.7404 5.20522 9.52459 5.0766 9.28777 5.00425L2.99439 3.06808C2.80088 3.00855 2.59755 2.98776 2.39601 3.0069C2.19448 3.02603 1.99868 3.08472 1.8198 3.17961C1.45853 3.37125 1.1881 3.69871 1.06801 4.08995C0.947912 4.48119 0.987987 4.90417 1.17942 5.26583C1.37084 5.62749 1.69795 5.89821 2.08876 6.01844L7.59931 7.70875L14.6448 29.9901L12.1275 32.0492L11.9279 32.249C11.3052 32.9673 10.9523 33.8806 10.9299 34.8314C10.9075 35.7823 11.217 36.7112 11.8051 37.4582C12.2235 37.9675 12.7551 38.3718 13.3575 38.6386C13.9599 38.9054 14.6163 39.0274 15.2742 38.9948H40.8928C41.2999 38.9948 41.6903 38.8329 41.9782 38.5448C42.2661 38.2566 42.4278 37.8657 42.4278 37.4582C42.4278 37.0506 42.2661 36.6598 41.9782 36.3716C41.6903 36.0834 41.2999 35.9215 40.8928 35.9215H15.0286C14.8518 35.9155 14.6796 35.8639 14.5286 35.7718C14.3775 35.6797 14.2528 35.5501 14.1664 35.3956C14.0799 35.2412 14.0348 35.067 14.0352 34.8899C14.0357 34.7129 14.0818 34.5389 14.169 34.3849L17.8683 31.3116H41.5682C41.923 31.3203 42.2699 31.2056 42.5498 30.9871C42.8296 30.7685 43.0252 30.4597 43.1032 30.113L47.969 8.6C48.0157 8.37091 48.0096 8.13418 47.951 7.90784C47.8925 7.68149 47.7832 7.4715 47.6313 7.29385Z" fill="#00532C"/>
<path d="M35.728 21.0507C35.6874 21.0195 35.553 21.1676 35.4993 21.1442C35.4387 21.1208 35.3917 21.0273 35.3446 21.0039C35.2841 20.9807 35.2504 21.0195 35.19 21.0039C35.1428 20.9963 35.1765 20.9106 35.1361 20.8872C35.0822 20.864 35.0553 20.9262 34.9948 20.9028C34.9477 20.8872 34.9142 20.7862 34.8738 20.7628C34.8268 20.7473 34.8133 20.8172 34.7596 20.7939C34.6855 20.7628 34.6653 20.7005 34.6183 20.6772C34.5779 20.646 34.4905 20.7394 34.4301 20.7005C34.3694 20.6694 34.3694 20.4281 34.329 20.4047C34.2821 20.3815 34.134 20.576 34.0736 20.5293C34.0197 20.4983 34.0399 20.3191 33.9928 20.288C33.9525 20.2569 33.771 20.4359 33.7239 20.4125C33.6836 20.3892 33.6767 20.2958 33.6163 20.288C33.5624 20.2803 33.4683 20.3659 33.4078 20.3425C33.2867 20.288 33.1388 20.3114 32.9573 19.8134C32.9371 19.7511 32.8968 19.7122 32.8564 19.7355C32.7488 19.7822 32.7892 19.8289 32.9371 20.1713C33.1388 20.6227 33.3943 20.5293 34.3491 20.9106C34.9139 21.1442 35.2634 21.214 35.3106 21.2998C35.3511 21.3853 35.3914 21.502 35.2299 21.5176C34.9745 21.5409 34.9139 21.3853 34.8668 21.3619C34.8063 21.3385 34.7659 21.4165 34.645 21.3931C34.5105 21.3697 34.5575 21.2998 34.5105 21.2764C34.4499 21.2686 34.3288 21.2764 34.2482 21.2608C34.1676 21.2374 34.1608 21.1207 34.1204 21.1441C34.0734 21.1675 34.033 21.2608 33.8918 21.214C33.7641 21.1519 33.7641 21.0272 33.7102 21.0194C33.6766 21.0038 33.495 21.1207 33.4145 21.0973C33.2397 21.035 33.2599 20.8639 33.2058 20.8484C33.1454 20.8406 33.1253 21.0272 32.7488 20.9962C32.3723 20.9495 32.2108 20.9806 31.9754 20.8405C31.6595 20.6459 31.2895 20.6693 31.3971 20.4982C31.5184 20.3191 31.7065 20.4125 31.8274 20.4826C31.9487 20.537 32.083 20.6459 32.1771 20.5837C32.2108 20.5526 32.1367 20.4281 32.1032 20.2569C32.0562 19.9534 32.2848 19.86 32.2646 19.8134C32.231 19.7588 32.1032 19.6811 31.7939 19.7355C31.5855 19.7744 31.1819 20.1402 31.0811 20.1947C30.9802 20.2647 30.5635 20.5215 30.3347 20.1402C30.1062 19.7511 30.3147 19.3543 30.4088 19.2298C30.4962 19.1053 30.6442 19.0119 30.6978 19.1053C30.7719 19.2531 30.597 19.292 30.523 19.3932C30.4557 19.4944 30.3483 19.8368 30.4692 19.9925C30.597 20.1481 30.8323 20.1636 31.1012 19.9302C31.3231 19.7357 31.6862 19.4633 32.0425 19.4945C32.4056 19.5177 32.594 19.7123 32.6477 19.728C32.7016 19.7357 32.7486 19.5957 32.8225 19.5646C32.8764 19.5412 32.9503 19.619 32.9973 19.5956C33.0377 19.5646 33.0849 19.44 33.1386 19.4166C33.1992 19.3932 33.3472 19.5099 33.3942 19.4711C33.4346 19.4477 33.4278 19.2999 33.495 19.2921C33.5622 19.2765 33.6766 19.4166 33.7237 19.3932C33.7842 19.3544 33.7842 19.2764 33.8446 19.2764C33.8918 19.2764 33.9994 19.4633 34.0532 19.4477C34.0935 19.44 34.0802 19.2532 34.1406 19.2299C34.2011 19.2065 34.3558 19.3544 34.4096 19.331C34.4499 19.3077 34.4566 19.0819 34.5305 19.0352C34.5979 19.0042 34.6651 19.1286 34.7055 19.1053C34.7593 19.0819 34.7929 18.825 34.8535 18.8173C34.9072 18.8095 35.0148 18.8873 35.0618 18.8718C35.1022 18.864 35.082 18.6306 35.1626 18.5838C35.2435 18.5528 35.3443 18.7006 35.3713 18.6929C35.4115 18.6773 35.4317 18.5528 35.4721 18.545C35.5191 18.5294 35.6402 18.6461 35.7008 18.6306C35.7478 18.6072 35.7277 18.4361 35.7814 18.4282C35.8219 18.4126 35.9899 18.4515 35.9764 18.2336C35.9697 18.0157 35.7277 17.8056 35.4991 17.8056C35.0821 17.8056 34.6653 18.0157 34.3088 18.0936C33.9526 18.1636 33.2197 18.4126 33.038 18.4516C32.8565 18.4827 32.6816 18.366 32.843 18.2181C32.9708 18.078 33.038 18.187 33.038 18.1403C33.038 18.0936 32.9574 18.0469 32.843 18.0235C32.722 18.0002 32.5809 18.1403 32.4262 18.1169C32.2716 18.0936 32.117 17.9536 31.9489 17.9924C31.5388 18.0469 31.4782 18.2571 31.2697 18.3425C31.0613 18.4361 30.9066 18.366 30.7923 18.3815C30.51 18.4282 30.4091 18.6228 30.2006 18.5993C29.9518 18.5759 29.8308 18.4126 29.5619 18.3269C29.3063 18.2335 28.8155 18.1479 28.7011 18.1013C28.5802 18.0467 28.049 17.8988 27.9212 17.8834C27.78 17.86 27.7128 17.9066 27.6523 17.9066C27.585 17.9066 27.4976 17.86 27.4034 17.8522C27.316 17.8366 27.1748 17.8289 27.1144 17.8522C27.0608 17.8835 27.0407 17.8835 26.9667 17.8602C26.9063 17.8524 26.6843 17.8057 26.5902 17.8213C26.4557 17.8291 26.4019 17.9302 26.3011 17.9458C26.2069 17.9536 26.1128 17.899 26.0053 17.9224C25.8978 17.9458 25.8103 17.9924 25.7162 18.0235C25.6288 18.0625 25.4674 18.0391 25.3935 18.0468C25.1917 18.1014 25.1648 18.2181 25.0909 18.2181C25.0236 18.2181 24.7816 18.1714 24.7076 18.2181C24.6269 18.257 24.5597 18.327 24.4992 18.3348C24.4253 18.3425 24.1563 18.3893 23.9881 18.3659C23.894 18.3581 23.7326 18.4515 23.6654 18.4748C23.5848 18.4982 23.3964 18.4982 23.3426 18.3893C23.2888 18.257 23.4368 18.0625 23.6856 17.829C23.8537 17.681 24.8018 16.9106 26.3415 16.6228C27.5451 16.3894 28.9503 15.8057 29.2462 15.4477C29.374 15.2998 29.8917 14.794 30.0194 14.4827C30.1472 14.1714 30.1874 13.9925 30.1202 14.0002C30.053 14.0236 29.9724 14.187 29.8446 14.2414C29.7235 14.2881 29.6159 14.2104 29.5219 14.257C29.4345 14.2881 29.3336 14.4516 29.2396 14.4593C29.1387 14.4748 29.0983 14.3737 29.0242 14.4126C28.9503 14.4748 28.8294 14.5761 28.7486 14.5993C28.5805 14.6305 28.5738 14.4049 28.4191 14.4982C28.2577 14.5915 28.1435 14.7473 27.9821 14.7862C27.8341 14.8095 27.8543 14.6773 27.7535 14.6773C27.592 14.6773 27.4375 14.9341 27.3635 14.9341C27.2896 14.9341 27.229 14.794 27.1349 14.8096C27.0474 14.8173 26.7718 15.0586 26.6642 15.0976C26.5499 15.121 26.5297 14.9186 26.4355 14.9342C26.3213 14.942 26.1128 15.1755 25.9985 15.2067C25.8775 15.23 25.8102 15.1366 25.7296 15.1366C25.6489 15.1366 25.4001 15.3779 25.2791 15.4168C25.1043 15.4634 25.0908 15.2068 24.9025 15.2223C24.7681 15.23 24.6268 15.4403 24.5194 15.448C24.405 15.4634 24.3579 15.3623 24.2302 15.3935C24.089 15.4402 23.8133 15.658 23.7191 15.6815C23.6317 15.7048 23.5645 15.6426 23.4569 15.6815C23.2552 15.7515 23.067 16.0628 22.9391 16.1406C22.798 16.234 22.6971 16.1873 22.6231 16.2418C22.4887 16.3507 22.4685 16.5686 22.3407 16.6309C22.2265 16.701 22.2331 16.5997 22.1255 16.6775C21.944 16.8331 22.0113 17.0044 21.9575 17.0822C21.9037 17.16 21.7557 17.2222 21.6683 17.3468C21.5808 17.4635 21.5808 17.5336 21.5472 17.6115C21.507 17.6893 21.3523 17.9227 21.3186 18.0239C21.2986 18.1247 21.3388 18.2336 21.2986 18.3115C21.2717 18.3815 21.2112 18.4983 21.1776 18.5838C21.1238 18.7862 21.1978 18.9886 21.1911 19.0664C21.1776 19.1363 21.1103 19.2531 21.1103 19.3466C21.1103 19.44 21.1911 19.6189 21.1709 19.7589C21.1507 19.8991 20.902 20.8251 21.0431 21.2453C21.1978 21.681 21.4264 21.9146 21.5071 21.8756C21.5944 21.8445 21.5406 21.6576 21.628 21.4867C21.7154 21.323 21.8163 21.1209 21.897 21.2609C21.9642 21.3932 21.7356 21.3932 21.7154 21.7745C21.6886 22.1401 21.7288 21.9846 21.7154 22.0936C21.7087 22.2103 21.507 22.4282 21.507 22.5293C21.507 22.6382 21.5272 22.9106 21.823 23.1986C22.0046 23.3852 22.0449 23.5098 22.0919 23.5176C22.1322 23.5332 22.1726 23.2996 22.26 23.2529C22.3811 23.1905 22.6432 23.4631 22.6903 23.4553C22.7508 23.4319 22.771 23.0583 22.8786 22.9884C22.9862 22.9338 23.2485 23.1752 23.3023 23.144C23.356 23.0973 23.2955 22.8638 23.3224 22.7705C23.356 22.6849 23.5039 22.6616 23.4569 22.5059C23.4165 22.3502 23.3963 22.0468 22.9191 22.0078C22.7778 21.9923 22.5829 21.9691 22.7106 21.7978C22.8585 21.6266 23.0198 20.9962 22.6702 20.506C22.5223 20.2958 22.1861 20.4125 22.0919 20.4593C21.9239 20.5293 21.7558 20.7862 21.6886 20.7162C21.628 20.6461 21.823 20.3582 22.1255 20.257C22.4214 20.148 22.798 20.1714 22.9459 20.5994C23.2081 21.3463 22.9459 21.6966 22.9796 21.7744C23.0198 21.8522 23.1678 21.7666 23.3762 21.9145C23.6721 22.1401 23.6317 22.3347 23.7057 22.4048C23.7729 22.4669 24.1292 22.4981 24.4588 22.5215C24.795 22.5449 25.1647 22.646 25.3194 22.5449C25.5682 22.397 25.5883 21.8444 26.1665 21.4396C26.4557 21.2374 26.8389 21.0351 27.2692 21.1207C27.7467 21.1985 27.7534 21.2764 27.713 21.3463C27.7063 21.3853 27.6929 21.4396 27.6861 21.432C27.4575 21.292 27.1281 21.2764 26.9263 21.3229C26.6304 21.3853 26.1261 21.4788 25.7564 22.2257C25.3932 22.9728 25.9782 22.9806 26.0387 23.004C26.106 23.0351 26.2136 23.0739 26.2069 23.2919C26.1934 23.5099 26.2539 23.6343 26.3212 23.7744C26.4019 23.8989 26.5297 24 26.5297 24C26.5297 24 26.6237 23.751 26.7314 23.6966C26.839 23.6266 26.9667 23.7511 27.0272 23.829C27.2155 24.1092 27.1349 23.5877 27.2693 23.5333C27.4644 23.4632 27.5382 23.7979 27.6459 23.7355C27.8409 23.6344 27.7333 23.4787 27.8746 23.4165C28.0224 23.3697 28.1099 23.51 28.1703 23.4633C28.2375 23.4087 28.2309 22.9264 28.1031 22.7318C27.9619 22.5294 27.7535 22.187 27.3096 22.187C26.8726 22.187 26.7314 22.117 26.7515 22.0157C26.7717 21.9146 26.8591 21.8445 26.9667 21.8912C27.1349 21.9612 27.155 21.9456 27.4239 21.9612C27.8139 21.9692 27.7265 22.1636 28.0493 22.327C28.2914 22.4437 28.6074 22.249 28.9973 22.327C29.394 22.4049 29.7235 22.4904 30.0865 22.467C30.7725 22.4437 31.5323 22.0937 31.6802 22.0703C31.8349 22.0391 31.9156 22.0625 31.9156 22.0079C31.9156 21.9612 31.2498 21.8445 31.2901 21.6577C31.344 21.4789 31.6599 21.6268 32.097 21.7435C32.534 21.8524 33.4686 21.9457 33.8318 21.9225C34.2218 21.9147 34.8874 22.1171 35.432 21.9692C35.7078 21.8913 35.9699 21.6967 35.9969 21.479C36.0306 21.2608 35.7817 21.0974 35.728 21.0507V21.0507ZM31.9759 18.3815C32.0835 18.3581 32.2719 18.4126 32.2248 18.5527C32.1844 18.6928 32.1643 18.6694 32.0768 18.6928C31.9894 18.716 31.8079 18.7394 31.7608 18.646C31.7204 18.5527 31.8549 18.4126 31.9759 18.3815ZM29.2395 14.794C29.3067 14.8329 29.3134 14.9419 29.3067 15.012C29.2865 15.0742 29.253 15.1364 29.2193 15.1364C29.1654 15.1364 29.1654 15.0508 29.1454 14.9652C29.125 14.8952 29.1654 14.7473 29.2395 14.794V14.794ZM28.6209 15.0119C28.762 15.0507 28.7083 15.1987 28.6814 15.3698C28.6612 15.4865 28.5738 15.5177 28.5603 15.541C28.5132 15.6422 28.4999 15.1987 28.4999 15.1987C28.4999 15.1987 28.5402 14.9885 28.6209 15.0119ZM27.935 15.1364C27.9888 15.1287 28.083 15.3699 28.0291 15.5801C27.9687 15.7824 27.8947 15.7824 27.8947 15.7824C27.8947 15.7824 27.8746 15.5567 27.8543 15.5333C27.8341 15.4943 27.7938 15.1753 27.935 15.1364V15.1364ZM27.3164 15.2531C27.4442 15.1987 27.4779 15.5333 27.4173 15.7045C27.3635 15.8835 27.3635 15.9925 27.2693 15.9224C27.155 15.8601 27.2492 15.6423 27.2155 15.5801C27.1752 15.471 27.2088 15.3154 27.3164 15.2531V15.2531ZM26.6305 15.44C26.7919 15.4166 26.7717 15.7122 26.7314 15.8758C26.6843 16.0236 26.6507 16.0936 26.5835 16.0703C26.5095 16.0392 26.6037 15.8445 26.5633 15.759C26.5095 15.6812 26.5431 15.4477 26.6305 15.44ZM25.9246 15.5878C26.0187 15.611 26.086 15.7745 26.0389 16.0002C25.9986 16.2337 25.938 16.2881 25.8842 16.2881C25.8304 16.2881 25.9044 15.9224 25.8573 15.9224C25.817 15.9224 25.8103 15.5644 25.9246 15.5878ZM25.232 15.8601C25.2925 15.8601 25.427 15.9924 25.3597 16.2337C25.2925 16.4827 25.2925 16.4594 25.232 16.4827C25.1647 16.4983 25.2119 16.3348 25.1715 16.2415C25.1244 16.1636 25.0639 15.8523 25.232 15.8601V15.8601ZM24.6067 16.117C24.7278 16.1092 24.7748 16.4049 24.7479 16.5293C24.7278 16.6538 24.6874 16.8096 24.6134 16.7862C24.5462 16.7707 24.6268 16.545 24.5664 16.545C24.5193 16.5449 24.4252 16.1248 24.6067 16.117ZM24.21 16.9652C24.1293 17.1364 24.136 17.1364 24.0823 17.1364C24.0285 17.1364 24.0621 16.8874 24.0016 16.8874C23.9478 16.8874 23.9007 16.5216 24.0688 16.5061C24.2503 16.4983 24.257 16.8407 24.21 16.9652ZM23.9411 15.7979C23.9814 15.7979 24.0823 15.8757 23.9881 15.9924C23.9007 16.1091 23.894 16.1869 23.8133 16.1403C23.7326 16.1092 23.8133 15.8057 23.9411 15.7979ZM21.6549 18.257C21.7086 18.257 21.776 18.4126 21.7692 18.4749C21.7558 18.5216 21.7491 18.5994 21.6684 18.6228C21.5944 18.646 21.5676 18.5061 21.5676 18.4827C21.5609 18.4516 21.5406 18.2414 21.6549 18.257V18.257ZM21.7356 19.2763C21.6953 19.2763 21.6482 19.2763 21.6146 19.2454C21.5944 19.2064 21.4599 19.0508 21.5608 18.8951C21.5675 18.8718 21.7356 19.0041 21.7692 19.0897C21.7894 19.1518 21.7894 19.2763 21.7356 19.2763ZM21.8767 17.9768C21.8565 18.0156 21.8028 18.039 21.7692 18.0156C21.7154 17.9768 21.7154 17.8523 21.7356 17.829C21.749 17.8212 21.7558 17.6344 21.8633 17.6577C21.9171 17.6654 21.8565 17.8211 21.8633 17.8367C21.8767 17.8602 21.9037 17.9457 21.8767 17.9768ZM26.3549 18.7706C26.3616 18.7161 26.4355 18.6695 26.5095 18.6928C26.6037 18.7005 26.7113 18.7939 26.6911 18.864C26.6844 18.934 26.5835 18.9885 26.4827 18.934C26.3952 18.8873 26.3348 18.8406 26.3549 18.7706V18.7706ZM26.4893 19.2763C26.5499 19.2686 26.7113 19.2531 26.6978 19.3543C26.6911 19.4476 26.6507 19.471 26.523 19.4943C26.3952 19.5175 26.3145 19.4243 26.3145 19.3776C26.3213 19.2998 26.4221 19.292 26.4893 19.2763V19.2763ZM26.1532 18.2104C26.2271 18.2104 26.2943 18.2803 26.2741 18.3348C26.254 18.3893 26.2473 18.4592 26.1128 18.4282C26.0658 18.4048 26.0052 18.327 26.0052 18.2803C26.0053 18.187 26.086 18.1948 26.1532 18.2104ZM25.427 18.4048C25.4404 18.327 25.5682 18.3115 25.6287 18.3425C25.696 18.3815 25.7363 18.4827 25.696 18.5294C25.6489 18.5683 25.6019 18.5528 25.5211 18.5294C25.4405 18.506 25.4203 18.4826 25.427 18.4048V18.4048ZM25.3396 18.7629C25.4405 18.7629 25.5614 18.8484 25.5076 18.9106C25.4673 18.9573 25.427 18.9885 25.3194 18.9885C25.2118 18.9885 25.1715 18.9418 25.1715 18.8718C25.1715 18.8095 25.2387 18.7473 25.3396 18.7629V18.7629ZM25.1647 19.2763C25.2791 19.2531 25.3597 19.3309 25.3531 19.4009C25.3531 19.471 25.2522 19.5332 25.1849 19.5332C25.1043 19.5332 24.9899 19.5098 24.9765 19.4009C24.9631 19.3076 25.1043 19.292 25.1647 19.2763ZM24.8555 19.899C24.8354 19.8289 24.9765 19.7978 25.0437 19.7822C25.1043 19.7744 25.232 19.8056 25.2119 19.8756C25.1917 19.9301 25.1513 20.0001 25.0437 20.0001C24.9361 19.9924 24.8756 19.9534 24.8555 19.899ZM25.0235 20.3347C25.0034 20.4359 24.9228 20.4514 24.8622 20.4592C24.795 20.4748 24.6874 20.4592 24.6874 20.3815C24.6874 20.2958 24.7816 20.2336 24.8354 20.2102C24.943 20.187 25.0437 20.2569 25.0235 20.3347V20.3347ZM24.7278 18.4282C24.768 18.436 24.8958 18.4748 24.9025 18.5449C24.9025 18.5993 24.9361 18.6772 24.795 18.6772C24.6672 18.6772 24.6134 18.6538 24.5865 18.5759C24.5462 18.4826 24.6874 18.4126 24.7278 18.4282ZM24.7076 18.9807C24.842 19.0119 24.8622 19.0119 24.8756 19.0818C24.8823 19.1518 24.7816 19.1985 24.6671 19.2219C24.5461 19.2453 24.4789 19.183 24.4452 19.113C24.4252 19.0508 24.5731 18.9573 24.7076 18.9807V18.9807ZM24.479 19.6188C24.5462 19.611 24.6268 19.6421 24.6268 19.7278C24.6134 19.7978 24.5731 19.8289 24.5058 19.8601C24.4453 19.899 24.3108 19.8367 24.2906 19.7823C24.2704 19.7278 24.405 19.6344 24.479 19.6188V19.6188ZM24.3578 20.2647C24.3578 20.3347 24.2368 20.3892 24.1763 20.4047C24.1292 20.4125 24.0889 20.4592 24.0486 20.4125C24.0015 20.3659 24.0083 20.3191 24.0418 20.288C24.062 20.2569 24.1898 20.1869 24.2167 20.1713C24.2704 20.148 24.3646 20.2102 24.3578 20.2647V20.2647ZM24.0823 18.6071C24.1899 18.6071 24.2369 18.6772 24.2571 18.7394C24.2705 18.7939 24.2571 18.8249 24.2302 18.8483C24.2101 18.8717 24.089 18.8639 24.0217 18.8172C23.9276 18.7629 23.9612 18.6071 24.0823 18.6071V18.6071ZM23.5444 16.8874C23.6923 16.8718 23.7191 17.1053 23.6855 17.3154C23.6317 17.5177 23.6115 17.5177 23.5444 17.4945C23.4838 17.4711 23.5444 17.3543 23.5039 17.2999C23.4569 17.2532 23.3762 16.8951 23.5444 16.8874ZM23.4367 16.0158C23.5712 15.9925 23.5241 16.187 23.4972 16.2415C23.4569 16.3115 23.5039 16.4126 23.4165 16.4048C23.3224 16.3894 23.3359 16.257 23.3224 16.1869C23.3157 16.1092 23.3561 16.0235 23.4367 16.0158ZM22.9594 16.7162C22.9862 16.6695 23.0064 16.5528 23.0938 16.545C23.1543 16.5294 23.1342 16.724 23.1274 16.8174C23.1274 16.9107 23.1476 17.0275 23.04 16.9808C22.9257 16.9341 22.9257 16.7706 22.9594 16.7162ZM22.5425 16.7395C22.5626 16.7395 22.5626 16.7239 22.5626 16.7239C22.5626 16.7239 22.6567 16.5449 22.7508 16.5994C22.7912 16.6072 22.6903 16.8328 22.6769 16.8718C22.6568 16.9341 22.5895 16.9807 22.529 16.9185C22.4685 16.8485 22.5223 16.7395 22.5425 16.7395ZM22.2601 17.1519C22.3139 17.1753 22.2601 17.3776 22.2399 17.4709C22.2332 17.5643 22.1727 17.611 22.1121 17.5876C22.0516 17.5799 22.0853 17.4164 22.065 17.4164C22.0516 17.401 22.1323 17.1286 22.2601 17.1519V17.1519ZM22.065 18.7006C22.1054 18.7161 22.1121 18.8095 22.1121 18.825C22.1121 18.864 22.1525 18.8873 22.1727 18.9573C22.1861 19.0119 22.1525 19.0663 22.1055 19.0818C22.0517 19.0818 22.0046 18.9651 22.0046 18.9651C22.0046 18.9807 21.9642 18.6928 22.065 18.7006ZM22.2332 19.6577C22.1928 19.6889 22.1458 19.7122 22.0853 19.7044C22.0248 19.6811 21.9576 19.5644 22.0114 19.4943C22.065 19.4399 22.1458 19.4865 22.1861 19.5175C22.2265 19.5567 22.2735 19.6188 22.2332 19.6577ZM22.2533 18.3425C22.1727 18.327 22.2063 18.148 22.1928 18.148C22.1928 18.148 22.2735 17.8291 22.3542 17.8835C22.4147 17.9302 22.3811 18.1403 22.3744 18.2414C22.3609 18.3348 22.3206 18.366 22.2533 18.3425V18.3425ZM22.4012 18.934C22.3744 18.9184 22.3407 18.716 22.4617 18.7005C22.5088 18.7005 22.5895 18.8094 22.5895 18.8717C22.5828 18.9417 22.6029 19.0351 22.4887 19.0273C22.3811 19.0119 22.4214 18.9418 22.4012 18.934V18.934ZM22.6904 19.9302C22.6501 19.9302 22.5693 19.9225 22.5223 19.8367C22.482 19.7745 22.4685 19.6656 22.5223 19.6344C22.5627 19.611 22.6702 19.6889 22.7173 19.7978C22.771 19.899 22.7173 19.9302 22.6904 19.9302ZM22.8316 19.541C22.7778 19.5333 22.7173 19.5098 22.6702 19.4399C22.6232 19.3776 22.6232 19.2454 22.6971 19.2298C22.8114 19.2064 22.8786 19.3232 22.9191 19.4243C22.9459 19.5332 22.8653 19.541 22.8316 19.541V19.541ZM22.9391 18.9885C22.8853 18.9885 22.8585 18.9651 22.8316 18.9184C22.7912 18.8873 22.7778 18.7473 22.8853 18.7473C22.9391 18.7473 23.0198 18.7939 23.0265 18.864C23.04 18.9418 22.9862 18.9807 22.9391 18.9885ZM23.04 17.4165C23.114 17.4165 23.2486 17.5099 23.2081 17.7822C23.1543 18.0468 23.1274 17.9535 23.0804 17.969C23.04 17.9924 23.067 17.8212 23.04 17.7822C22.9862 17.7122 22.8585 17.4165 23.04 17.4165V17.4165ZM23.1745 19.9768C23.1274 19.9534 23.067 19.9224 23.0602 19.8367C23.04 19.7589 23.114 19.7356 23.1745 19.7512C23.2485 19.7589 23.3023 19.8289 23.3023 19.8835C23.3023 19.9534 23.2148 19.9924 23.1745 19.9768ZM23.3023 19.4399C23.2686 19.4476 23.2485 19.471 23.1745 19.4476C23.1073 19.4165 22.966 19.2453 23.0938 19.1518C23.1342 19.113 23.2888 19.1596 23.3225 19.2919C23.3762 19.4009 23.3425 19.4165 23.3023 19.4399ZM23.3157 18.9106C23.2955 18.8873 23.3358 18.7629 23.4434 18.7939C23.5444 18.8173 23.5712 18.8951 23.5645 18.9651C23.5444 19.0351 23.4771 19.0351 23.4232 19.0273C23.3762 19.0119 23.3425 18.934 23.3157 18.9106V18.9106ZM23.7191 20.2647C23.6855 20.288 23.6115 20.3114 23.5107 20.2958C23.4232 20.288 23.4031 20.2569 23.4367 20.1947C23.4771 20.1402 23.5039 20.1247 23.5847 20.0935C23.6653 20.0546 23.7595 20.1012 23.7798 20.1402C23.7998 20.1713 23.7595 20.2569 23.7191 20.2647V20.2647ZM23.8536 19.7588C23.7998 19.7978 23.6855 19.7588 23.6519 19.6655C23.625 19.5644 23.6721 19.5409 23.7124 19.5175C23.7595 19.5097 23.8737 19.5721 23.894 19.6577C23.9007 19.7122 23.9007 19.7278 23.8536 19.7588V19.7588ZM23.9612 19.3076C23.9141 19.3076 23.7393 19.2763 23.7729 19.1752C23.7931 19.0663 23.894 19.0663 23.9478 19.0818C23.9814 19.0818 24.1226 19.1363 24.089 19.2297C24.0688 19.3309 24.0083 19.2998 23.9612 19.3076V19.3076ZM25.5076 21.1441C25.5076 21.1985 25.4808 21.2374 25.4405 21.2374C25.3934 21.2374 25.2589 21.1985 25.1917 21.2608C25.1244 21.3152 25.0841 21.4165 25.0908 21.4866C25.1043 21.5409 25.1043 21.6267 25.0707 21.6499C25.0438 21.681 24.916 21.6267 24.8622 21.6343C24.8152 21.6343 24.647 21.681 24.6067 21.7823C24.5596 21.8756 24.5933 21.9456 24.5664 21.9692C24.5395 22.0079 24.4991 22.0235 24.4588 22.0235C24.4184 22.0391 24.2368 22.0079 24.21 22.0391C24.1697 22.0703 24.0688 22.2103 24.0418 22.1636C24.0083 22.117 23.9612 22.1402 24.0486 21.9692C24.0889 21.8912 24.1965 21.8057 24.21 21.8057C24.2167 21.8057 24.3512 21.8211 24.3781 21.7979C24.405 21.7667 24.4857 21.5799 24.5194 21.5409C24.6538 21.4165 24.6471 21.4632 24.6874 21.4396C24.7278 21.432 24.8623 21.4632 24.8757 21.432C24.8959 21.3853 24.9766 21.214 25.0438 21.1441C25.1312 21.0506 25.2725 21.035 25.2926 21.0194C25.2993 20.9962 25.3329 20.9339 25.3531 20.8871C25.38 20.8405 25.5011 20.7238 25.5817 20.7471C25.6221 20.7626 25.4809 20.9806 25.4809 21.0272C25.4673 21.0741 25.5076 21.0818 25.5076 21.1441V21.1441ZM25.6085 20.4827C25.5076 20.506 25.4 20.4983 25.3933 20.436C25.3798 20.3893 25.4135 20.3192 25.4807 20.2881C25.5412 20.257 25.6017 20.2803 25.6488 20.2803C25.6891 20.2803 25.79 20.2803 25.7766 20.3192C25.7699 20.3581 25.7094 20.4593 25.6085 20.4827V20.4827ZM25.7498 19.9534C25.6354 19.969 25.5279 19.9302 25.5413 19.8757C25.5614 19.8135 25.6287 19.7589 25.7296 19.7589C25.8304 19.7512 25.8977 19.7823 25.8977 19.8367C25.8977 19.8835 25.8573 19.9457 25.7498 19.9534ZM25.9784 19.3232C25.9582 19.4165 25.9178 19.4399 25.8439 19.4476C25.7699 19.4476 25.622 19.4243 25.622 19.292C25.622 19.2298 25.7766 19.1986 25.8102 19.1986C25.8439 19.183 25.9851 19.2298 25.9784 19.3232V19.3232ZM26.086 18.825C26.0726 18.8951 25.9851 18.9573 25.9178 18.934C25.8439 18.9106 25.7498 18.8951 25.7565 18.8173C25.7565 18.7706 25.817 18.7006 25.9246 18.7161C26.0389 18.7161 26.0927 18.7706 26.086 18.825V18.825ZM26.4423 20.3347C26.4154 20.3659 26.3817 20.4514 26.3011 20.4748C26.2272 20.4826 26.1329 20.5214 26.0926 20.4125C26.0725 20.3581 26.1061 20.3114 26.1665 20.2647C26.2136 20.2336 26.375 20.2336 26.375 20.2336C26.375 20.2336 26.3951 20.1713 26.4355 20.2102C26.4759 20.2414 26.4759 20.2958 26.4423 20.3347V20.3347ZM26.6305 19.9224C26.5633 19.9224 26.4019 19.9301 26.3951 19.8367C26.375 19.7979 26.4826 19.7512 26.5498 19.7278C26.6304 19.7045 26.6842 19.7045 26.7112 19.7122C26.738 19.7278 26.812 19.7589 26.812 19.7979C26.8121 19.8367 26.6911 19.9068 26.6305 19.9224V19.9224ZM26.718 18.366C26.6911 18.2881 26.6844 18.2181 26.7113 18.187C26.7583 18.148 26.9197 18.2181 26.9466 18.3037C26.987 18.3815 26.987 18.4749 26.9197 18.4983C26.8525 18.506 26.7381 18.4361 26.718 18.366V18.366ZM26.96 18.8173C26.9465 18.7473 27.0676 18.6928 27.1483 18.7006C27.2155 18.7161 27.3366 18.7939 27.3164 18.8718C27.2896 18.9573 27.2761 18.9807 27.2155 18.9807C27.155 18.9807 26.9667 18.934 26.96 18.8173V18.8173ZM27.0205 19.3698C27.007 19.3076 27.1282 19.2763 27.1752 19.2763C27.2155 19.2763 27.3972 19.3076 27.3434 19.3931C27.3097 19.471 27.2357 19.5098 27.1752 19.5098C27.1282 19.5098 27.0407 19.4243 27.0205 19.3698V19.3698ZM27.3836 20.0235C27.3164 20.0779 27.2693 20.0779 27.1886 20.0779C27.1147 20.0779 27.1012 20.0235 27.1012 19.9534C27.1012 19.899 27.1752 19.8601 27.2088 19.8523C27.2492 19.8367 27.2962 19.8523 27.3366 19.8367C27.3635 19.8289 27.3635 19.8289 27.4038 19.8135C27.4375 19.8057 27.4576 19.7979 27.4644 19.8601C27.4778 19.9224 27.4576 19.9768 27.3836 20.0235V20.0235ZM27.5181 18.4516C27.4844 18.4749 27.4844 18.4983 27.4172 18.4827C27.3366 18.4749 27.2962 18.3348 27.276 18.327C27.2491 18.3115 27.1886 18.2336 27.2154 18.1948C27.2491 18.1636 27.3971 18.1636 27.4643 18.2336C27.545 18.3115 27.545 18.4282 27.5181 18.4516V18.4516ZM27.666 18.7706C27.6862 18.7473 27.7333 18.7161 27.7938 18.7161C27.8543 18.7161 27.935 18.7629 27.9619 18.8095C27.9821 18.864 27.9821 18.9106 27.9417 18.9573C27.9148 18.9885 27.7333 18.934 27.7063 18.8951C27.666 18.8484 27.6526 18.8095 27.666 18.7706ZM27.7131 19.471C27.693 19.4943 27.6862 19.4165 27.7131 19.3776C27.7535 19.3465 27.8409 19.292 27.8947 19.292C27.9417 19.292 28.0224 19.3076 28.0091 19.3543C28.0023 19.4009 27.9888 19.5176 27.8813 19.5176C27.7736 19.5332 27.7333 19.4632 27.7131 19.471V19.471ZM27.9215 20.0469C27.8341 20.0546 27.7736 20.0391 27.7602 19.9534C27.7535 19.8757 27.8208 19.8523 27.8341 19.8523C27.8409 19.8523 27.9148 19.8367 27.935 19.8289C27.9821 19.8289 28.0627 19.7589 28.1031 19.8289C28.1232 19.8757 28.009 20.0235 27.9215 20.0469V20.0469ZM28.2107 18.4749C28.1972 18.5061 28.1703 18.5994 28.0694 18.5683C27.9686 18.5294 27.9215 18.4749 27.8946 18.4283C27.8745 18.3816 27.8004 18.3116 27.861 18.2415C27.8946 18.2104 28.0493 18.2804 28.1232 18.3426C28.1838 18.4126 28.2174 18.4282 28.2107 18.4749V18.4749ZM28.2779 18.8095C28.2981 18.7629 28.3788 18.7395 28.4394 18.7395C28.4999 18.7473 28.5805 18.7706 28.5938 18.8484C28.6074 18.9184 28.5938 18.9418 28.5738 18.9807C28.5403 19.0119 28.4191 18.9651 28.372 18.9418C28.3182 18.9184 28.2577 18.8406 28.2779 18.8095V18.8095ZM28.2914 19.3465C28.2914 19.292 28.3587 19.2998 28.3923 19.292C28.4057 19.2764 28.4258 19.2531 28.4796 19.2454C28.52 19.2298 28.6074 19.2298 28.6074 19.2763C28.6209 19.3076 28.6074 19.3776 28.4999 19.4165C28.3788 19.4632 28.2981 19.4009 28.2914 19.3465ZM28.6814 19.8601C28.6814 19.8601 28.5938 19.9534 28.5738 19.9924C28.5403 20.0157 28.4864 20.0779 28.4057 20.0002C28.3587 19.9457 28.4057 19.8523 28.4394 19.8289C28.4663 19.7979 28.6679 19.6578 28.7083 19.7278C28.7418 19.7978 28.6814 19.8601 28.6814 19.8601ZM28.8022 18.4826C28.7619 18.5527 28.7013 18.5449 28.6276 18.5293C28.5602 18.5215 28.4393 18.4282 28.446 18.3348C28.4594 18.257 28.5804 18.2803 28.6476 18.3115C28.7218 18.3425 28.8493 18.4126 28.8022 18.4826ZM29.6024 19.5567C29.5622 19.5567 29.4613 19.4399 29.6226 19.4165C29.6833 19.4009 29.69 19.4476 29.69 19.5176C29.69 19.5722 29.6361 19.5567 29.6024 19.5567V19.5567ZM29.69 19.0119C29.6226 18.9885 29.5957 18.9573 29.6361 18.8951C29.6833 18.8484 29.7033 18.864 29.7638 18.8873C29.8109 18.9106 29.8244 18.9573 29.8109 19.0041C29.8042 19.0586 29.7638 19.0352 29.69 19.0119ZM30.0732 20.6928C29.9789 20.6694 29.8916 20.5371 29.8445 20.4593C29.8041 20.366 29.7908 20.1947 29.8243 20.117C29.8512 20.0236 29.8916 20.0158 29.9319 20.0469C29.9789 20.078 29.9521 20.3116 29.9789 20.3193C30.0126 20.3427 30.0328 20.5062 30.1201 20.5295C30.1471 20.5295 30.1808 20.6073 30.1808 20.6073C30.1808 20.6073 30.1471 20.7161 30.0732 20.6928V20.6928Z" fill="#00532C"/>
</svg>
