<svg width="55" height="48" viewBox="0 0 55 48" fill="none" xmlns="http://www.w3.org/2000/svg">
<path d="M27 4.45C32.2765 4.45 36.55 8.72353 36.55 14C36.55 19.2765 32.2765 23.55 27 23.55C21.7235 23.55 17.45 19.2765 17.45 14C17.45 8.72353 21.7235 4.45 27 4.45ZM27.0001 43.55C27 43.55 27 43.55 27 44C27 43.55 27 43.55 26.9999 43.55H26.9993H26.9968L26.9864 43.55L26.9444 43.5499C26.9072 43.5497 26.8517 43.5494 26.7791 43.5488C26.634 43.5476 26.4206 43.5452 26.1487 43.5403C25.6048 43.5306 24.8271 43.5112 23.8937 43.4723C22.0258 43.3944 19.5391 43.2389 17.0558 42.9285C14.5657 42.6172 12.1077 42.1535 10.283 41.4693C9.3692 41.1266 8.64464 40.7396 8.1557 40.3117C7.67255 39.889 7.45 39.4561 7.45 39C7.45 36.2345 9.72172 33.2274 13.3985 30.8793C17.048 28.5484 21.9645 26.95 27 26.95C32.0355 26.95 36.952 28.5484 40.6015 30.8793C44.2783 33.2274 46.55 36.2345 46.55 39C46.55 39.4561 46.3275 39.889 45.8443 40.3117C45.3554 40.7396 44.6308 41.1266 43.717 41.4693C41.8923 42.1535 39.4343 42.6172 36.9442 42.9285C34.4609 43.2389 31.9742 43.3944 30.1063 43.4723C29.1729 43.5112 28.3952 43.5306 27.8513 43.5403C27.5794 43.5452 27.366 43.5476 27.2209 43.5488C27.1483 43.5494 27.0928 43.5497 27.0556 43.5499L27.0136 43.55L27.0032 43.55H27.0007H27.0001Z" stroke="#2C3330" stroke-width="0.9"/>
<path d="M42.9093 38.1152C42.8958 38.1059 42.851 38.1503 42.8331 38.1433C42.8129 38.1362 42.7972 38.1082 42.7815 38.1012C42.7614 38.0942 42.7501 38.1059 42.73 38.1012C42.7143 38.0989 42.7255 38.0732 42.712 38.0662C42.6941 38.0592 42.6851 38.0779 42.6649 38.0708C42.6492 38.0662 42.6381 38.0359 42.6246 38.0288C42.6089 38.0242 42.6044 38.0452 42.5865 38.0382C42.5618 38.0288 42.5551 38.0101 42.5394 38.0032C42.526 37.9938 42.4968 38.0218 42.4767 38.0101C42.4565 38.0008 42.4565 37.9284 42.443 37.9214C42.4274 37.9144 42.378 37.9728 42.3579 37.9588C42.3399 37.9495 42.3466 37.8957 42.3309 37.8864C42.3175 37.8771 42.257 37.9308 42.2413 37.9238C42.2279 37.9167 42.2256 37.8888 42.2054 37.8864C42.1875 37.8841 42.1561 37.9098 42.1359 37.9027C42.0956 37.8864 42.0463 37.8934 41.9858 37.744C41.979 37.7253 41.9656 37.7136 41.9521 37.7207C41.9163 37.7347 41.9297 37.7487 41.979 37.8514C42.0463 37.9868 42.1314 37.9588 42.4497 38.0732C42.638 38.1433 42.7545 38.1642 42.7702 38.1899C42.7837 38.2156 42.7971 38.2506 42.7433 38.2553C42.6582 38.2623 42.638 38.2156 42.6223 38.2086C42.6021 38.2016 42.5886 38.2249 42.5483 38.2179C42.5035 38.2109 42.5192 38.1899 42.5035 38.1829C42.4833 38.1806 42.4429 38.1829 42.4161 38.1782C42.3892 38.1712 42.3869 38.1362 42.3735 38.1432C42.3578 38.1502 42.3443 38.1782 42.2973 38.1642C42.2547 38.1456 42.2547 38.1082 42.2367 38.1058C42.2255 38.1011 42.165 38.1362 42.1382 38.1292C42.0799 38.1105 42.0866 38.0592 42.0686 38.0545C42.0485 38.0522 42.0418 38.1082 41.9163 38.0989C41.7908 38.0848 41.7369 38.0942 41.6585 38.0521C41.5532 37.9938 41.4298 38.0008 41.4657 37.9494C41.5061 37.8957 41.5688 37.9238 41.6091 37.9448C41.6496 37.9611 41.6943 37.9938 41.7257 37.9751C41.7369 37.9658 41.7122 37.9284 41.7011 37.8771C41.6854 37.786 41.7616 37.758 41.7549 37.744C41.7437 37.7276 41.7011 37.7043 41.598 37.7207C41.5285 37.7323 41.394 37.8421 41.3604 37.8584C41.3267 37.8794 41.1878 37.9565 41.1116 37.8421C41.0354 37.7253 41.1049 37.6063 41.1363 37.5689C41.1654 37.5316 41.2147 37.5036 41.2326 37.5316C41.2573 37.5759 41.199 37.5876 41.1743 37.618C41.1519 37.6483 41.1161 37.751 41.1564 37.7977C41.199 37.8444 41.2774 37.8491 41.3671 37.7791C41.441 37.7207 41.5621 37.639 41.6808 37.6484C41.8019 37.6553 41.8647 37.7137 41.8826 37.7184C41.9005 37.7207 41.9162 37.6787 41.9408 37.6694C41.9588 37.6624 41.9834 37.6857 41.9991 37.6787C42.0126 37.6694 42.0283 37.632 42.0462 37.625C42.0664 37.618 42.1157 37.653 42.1314 37.6413C42.1449 37.6343 42.1426 37.59 42.165 37.5876C42.1874 37.583 42.2255 37.625 42.2412 37.618C42.2614 37.6063 42.2614 37.5829 42.2815 37.5829C42.2973 37.5829 42.3331 37.639 42.3511 37.6343C42.3645 37.632 42.3601 37.576 42.3802 37.569C42.4004 37.5619 42.4519 37.6063 42.4699 37.5993C42.4833 37.5923 42.4855 37.5246 42.5102 37.5106C42.5326 37.5012 42.555 37.5386 42.5685 37.5316C42.5864 37.5246 42.5976 37.4475 42.6178 37.4452C42.6357 37.4429 42.6716 37.4662 42.6873 37.4615C42.7007 37.4592 42.694 37.3892 42.7209 37.3751C42.7478 37.3658 42.7814 37.4102 42.7904 37.4079C42.8038 37.4032 42.8106 37.3658 42.824 37.3635C42.8397 37.3588 42.8801 37.3938 42.9003 37.3892C42.9159 37.3822 42.9092 37.3308 42.9271 37.3285C42.9406 37.3238 42.9966 37.3355 42.9921 37.2701C42.9899 37.2047 42.9092 37.1417 42.833 37.1417C42.694 37.1417 42.5551 37.2047 42.4363 37.2281C42.3175 37.2491 42.0732 37.3238 42.0127 37.3355C41.9522 37.3448 41.8939 37.3098 41.9477 37.2654C41.9903 37.2234 42.0127 37.2561 42.0127 37.2421C42.0127 37.2281 41.9858 37.2141 41.9477 37.2071C41.9073 37.2001 41.8603 37.2421 41.8087 37.2351C41.7572 37.2281 41.7057 37.1861 41.6496 37.1977C41.5129 37.2141 41.4927 37.2771 41.4232 37.3028C41.3538 37.3308 41.3022 37.3098 41.2641 37.3145C41.17 37.3285 41.1364 37.3868 41.0669 37.3798C40.9839 37.3728 40.9436 37.3238 40.854 37.2981C40.7688 37.2701 40.6052 37.2444 40.567 37.2304C40.5267 37.214 40.3497 37.1697 40.3071 37.165C40.26 37.158 40.2376 37.172 40.2174 37.172C40.195 37.172 40.1659 37.158 40.1345 37.1557C40.1053 37.151 40.0583 37.1487 40.0381 37.1557C40.0203 37.1651 40.0136 37.1651 39.9889 37.158C39.9688 37.1557 39.8948 37.1417 39.8634 37.1464C39.8186 37.1487 39.8006 37.1791 39.767 37.1837C39.7356 37.1861 39.7043 37.1697 39.6684 37.1767C39.6326 37.1837 39.6034 37.1977 39.5721 37.2071C39.5429 37.2187 39.4891 37.2117 39.4645 37.214C39.3972 37.2304 39.3883 37.2654 39.3636 37.2654C39.3412 37.2654 39.2605 37.2514 39.2359 37.2654C39.209 37.2771 39.1866 37.2981 39.1664 37.3004C39.1418 37.3027 39.0521 37.3168 38.996 37.3098C38.9647 37.3074 38.9109 37.3355 38.8885 37.3424C38.8616 37.3495 38.7988 37.3495 38.7809 37.3168C38.7629 37.2771 38.8123 37.2187 38.8952 37.1487C38.9512 37.1043 39.2673 36.8732 39.7805 36.7868C40.1817 36.7168 40.6501 36.5417 40.7487 36.4343C40.7913 36.3899 40.9639 36.2382 41.0065 36.1448C41.0491 36.0514 41.0625 35.9977 41.0401 36.0001C41.0177 36.0071 40.9908 36.0561 40.9482 36.0724C40.9078 36.0864 40.872 36.0631 40.8406 36.0771C40.8115 36.0864 40.7779 36.1355 40.7465 36.1378C40.7129 36.1425 40.6994 36.1121 40.6747 36.1238C40.6501 36.1425 40.6098 36.1728 40.5829 36.1798C40.5268 36.1891 40.5246 36.1215 40.473 36.1495C40.4192 36.1775 40.3812 36.2242 40.3274 36.2358C40.278 36.2429 40.2848 36.2032 40.2512 36.2032C40.1973 36.2032 40.1458 36.2802 40.1212 36.2802C40.0965 36.2802 40.0763 36.2382 40.045 36.2429C40.0158 36.2452 39.9239 36.3176 39.8881 36.3293C39.85 36.3363 39.8432 36.2756 39.8118 36.2803C39.7738 36.2826 39.7043 36.3527 39.6662 36.362C39.6258 36.369 39.6034 36.341 39.5765 36.341C39.5496 36.341 39.4667 36.4134 39.4264 36.425C39.3681 36.439 39.3636 36.362 39.3008 36.3667C39.256 36.369 39.2089 36.4321 39.1731 36.4344C39.135 36.439 39.1193 36.4087 39.0767 36.4181C39.0297 36.432 38.9378 36.4974 38.9064 36.5044C38.8772 36.5114 38.8548 36.4928 38.819 36.5044C38.7517 36.5254 38.689 36.6188 38.6464 36.6422C38.5993 36.6702 38.5657 36.6562 38.541 36.6725C38.4962 36.7052 38.4895 36.7706 38.4469 36.7893C38.4088 36.8103 38.411 36.7799 38.3752 36.8032C38.3147 36.8499 38.3371 36.9013 38.3192 36.9247C38.3012 36.948 38.2519 36.9667 38.2228 37.004C38.1936 37.039 38.1936 37.0601 38.1824 37.0834C38.169 37.1068 38.1174 37.1768 38.1062 37.2072C38.0995 37.2374 38.1129 37.2701 38.0995 37.2934C38.0906 37.3145 38.0704 37.3495 38.0592 37.3751C38.0413 37.4359 38.0659 37.4966 38.0637 37.5199C38.0592 37.5409 38.0368 37.5759 38.0368 37.604C38.0368 37.632 38.0637 37.6857 38.057 37.7277C38.0502 37.7697 37.9673 38.0475 38.0144 38.1736C38.0659 38.3043 38.1421 38.3744 38.169 38.3627C38.1981 38.3533 38.1802 38.2973 38.2093 38.246C38.2385 38.1969 38.2721 38.1363 38.299 38.1783C38.3214 38.218 38.2452 38.218 38.2385 38.3324C38.2295 38.442 38.2429 38.3954 38.2385 38.4281C38.2362 38.4631 38.169 38.5284 38.169 38.5588C38.169 38.5915 38.1757 38.6732 38.2743 38.7596C38.3349 38.8156 38.3483 38.8529 38.364 38.8553C38.3774 38.86 38.3909 38.7899 38.42 38.7759C38.4604 38.7572 38.5477 38.8389 38.5634 38.8366C38.5836 38.8296 38.5903 38.7175 38.6262 38.6965C38.6621 38.6802 38.7495 38.7526 38.7674 38.7432C38.7853 38.7292 38.7652 38.6591 38.7741 38.6311C38.7853 38.6055 38.8346 38.5985 38.819 38.5518C38.8055 38.5051 38.7988 38.414 38.6397 38.4024C38.5926 38.3977 38.5276 38.3907 38.5702 38.3393C38.6195 38.288 38.6733 38.0989 38.5567 37.9518C38.5074 37.8888 38.3954 37.9238 38.364 37.9378C38.308 37.9588 38.2519 38.0359 38.2295 38.0148C38.2093 37.9938 38.2743 37.9075 38.3752 37.8771C38.4738 37.8444 38.5993 37.8514 38.6486 37.9798C38.736 38.2039 38.6486 38.309 38.6599 38.3323C38.6733 38.3557 38.7226 38.33 38.7921 38.3744C38.8907 38.442 38.8772 38.5004 38.9019 38.5214C38.9243 38.5401 39.0431 38.5494 39.1529 38.5564C39.265 38.5635 39.3882 38.5938 39.4398 38.5635C39.5227 38.5191 39.5294 38.3533 39.7222 38.2319C39.8186 38.1712 39.9463 38.1105 40.0897 38.1362C40.2489 38.1595 40.2511 38.1829 40.2377 38.2039C40.2354 38.2156 40.231 38.2319 40.2287 38.2296C40.1525 38.1876 40.0427 38.1829 39.9754 38.1969C39.8768 38.2156 39.7087 38.2436 39.5855 38.4677C39.4644 38.6918 39.6594 38.6942 39.6796 38.7012C39.702 38.7105 39.7379 38.7222 39.7356 38.7876C39.7311 38.853 39.7513 38.8903 39.7737 38.9323C39.8006 38.9697 39.8432 39 39.8432 39C39.8432 39 39.8746 38.9253 39.9105 38.909C39.9463 38.888 39.9889 38.9253 40.0091 38.9487C40.0718 39.0328 40.045 38.8763 40.0898 38.86C40.1548 38.8389 40.1794 38.9394 40.2153 38.9207C40.2803 38.8903 40.2444 38.8436 40.2915 38.8249C40.3408 38.8109 40.37 38.853 40.3901 38.839C40.4125 38.8226 40.4103 38.6779 40.3677 38.6195C40.3206 38.5588 40.2512 38.4561 40.1032 38.4561C39.9575 38.4561 39.9105 38.4351 39.9172 38.4047C39.9239 38.3744 39.953 38.3533 39.9889 38.3674C40.045 38.3884 40.0517 38.3837 40.1413 38.3884C40.2713 38.3907 40.2422 38.4491 40.3498 38.4981C40.4305 38.5331 40.5358 38.4747 40.6658 38.4981C40.798 38.5215 40.9078 38.5471 41.0288 38.5401C41.2575 38.5331 41.5108 38.4281 41.5601 38.4211C41.6116 38.4117 41.6385 38.4187 41.6385 38.4024C41.6385 38.3884 41.4166 38.3533 41.43 38.2973C41.448 38.2437 41.5533 38.288 41.699 38.323C41.8447 38.3557 42.1562 38.3837 42.2773 38.3767C42.4073 38.3744 42.6291 38.4351 42.8107 38.3908C42.9026 38.3674 42.99 38.309 42.999 38.2437C43.0102 38.1782 42.9272 38.1292 42.9093 38.1152V38.1152ZM41.6586 37.3145C41.6945 37.3074 41.7573 37.3238 41.7416 37.3658C41.7281 37.4078 41.7214 37.4008 41.6923 37.4078C41.6631 37.4148 41.6026 37.4218 41.5869 37.3938C41.5735 37.3658 41.6183 37.3238 41.6586 37.3145ZM40.7465 36.2382C40.7689 36.2499 40.7711 36.2826 40.7689 36.3036C40.7622 36.3223 40.751 36.3409 40.7398 36.3409C40.7218 36.3409 40.7218 36.3152 40.7151 36.2896C40.7083 36.2685 40.7218 36.2242 40.7465 36.2382V36.2382ZM40.5403 36.3036C40.5873 36.3152 40.5694 36.3596 40.5605 36.411C40.5537 36.446 40.5246 36.4553 40.5201 36.4623C40.5044 36.4927 40.5 36.3596 40.5 36.3596C40.5 36.3596 40.5134 36.2965 40.5403 36.3036ZM40.3117 36.3409C40.3296 36.3386 40.361 36.411 40.343 36.474C40.3229 36.5347 40.2982 36.5347 40.2982 36.5347C40.2982 36.5347 40.2915 36.467 40.2848 36.46C40.278 36.4483 40.2646 36.3526 40.3117 36.3409V36.3409ZM40.1055 36.3759C40.1481 36.3596 40.1593 36.46 40.1391 36.5114C40.1212 36.565 40.1212 36.5977 40.0898 36.5767C40.0517 36.558 40.0831 36.4927 40.0718 36.474C40.0584 36.4413 40.0696 36.3946 40.1055 36.3759V36.3759ZM39.8768 36.432C39.9306 36.425 39.9239 36.5137 39.9105 36.5627C39.8948 36.6071 39.8836 36.6281 39.8612 36.6211C39.8365 36.6117 39.8679 36.5534 39.8544 36.5277C39.8365 36.5044 39.8477 36.4343 39.8768 36.432ZM39.6415 36.4763C39.6729 36.4833 39.6953 36.5323 39.6796 36.6001C39.6662 36.6701 39.646 36.6864 39.6281 36.6864C39.6101 36.6864 39.6348 36.5767 39.6191 36.5767C39.6057 36.5767 39.6034 36.4693 39.6415 36.4763ZM39.4107 36.558C39.4308 36.558 39.4757 36.5977 39.4532 36.6701C39.4308 36.7448 39.4308 36.7378 39.4107 36.7448C39.3882 36.7495 39.404 36.7004 39.3905 36.6724C39.3748 36.6491 39.3546 36.5557 39.4107 36.558V36.558ZM39.2022 36.6351C39.2426 36.6328 39.2583 36.7215 39.2493 36.7588C39.2426 36.7961 39.2291 36.8429 39.2045 36.8359C39.1821 36.8312 39.2089 36.7635 39.1888 36.7635C39.1731 36.7635 39.1417 36.6374 39.2022 36.6351ZM39.07 36.8895C39.0431 36.9409 39.0453 36.9409 39.0274 36.9409C39.0095 36.9409 39.0207 36.8662 39.0005 36.8662C38.9826 36.8662 38.9669 36.7565 39.0229 36.7518C39.0834 36.7495 39.0857 36.8522 39.07 36.8895ZM38.9804 36.5394C38.9938 36.5394 39.0274 36.5627 38.996 36.5977C38.9669 36.6327 38.9647 36.6561 38.9378 36.6421C38.9109 36.6328 38.9378 36.5417 38.9804 36.5394ZM38.2183 37.2771C38.2362 37.2771 38.2587 37.3238 38.2564 37.3425C38.2519 37.3565 38.2497 37.3798 38.2228 37.3868C38.1981 37.3938 38.1892 37.3518 38.1892 37.3448C38.187 37.3355 38.1802 37.2724 38.2183 37.2771V37.2771ZM38.2452 37.5829C38.2318 37.5829 38.2161 37.5829 38.2049 37.5736C38.1981 37.5619 38.1533 37.5152 38.1869 37.4685C38.1892 37.4615 38.2452 37.5012 38.2564 37.5269C38.2631 37.5456 38.2631 37.5829 38.2452 37.5829ZM38.2922 37.193C38.2855 37.2047 38.2676 37.2117 38.2564 37.2047C38.2385 37.193 38.2385 37.1557 38.2452 37.1487C38.2497 37.1464 38.2519 37.0903 38.2878 37.0973C38.3057 37.0996 38.2855 37.1463 38.2878 37.151C38.2922 37.158 38.3012 37.1837 38.2922 37.193ZM39.785 37.4312C39.7872 37.4148 39.8118 37.4008 39.8365 37.4078C39.8679 37.4102 39.9038 37.4382 39.897 37.4592C39.8948 37.4802 39.8612 37.4965 39.8276 37.4802C39.7984 37.4662 39.7783 37.4522 39.785 37.4312V37.4312ZM39.8298 37.5829C39.85 37.5806 39.9038 37.5759 39.8993 37.6063C39.897 37.6343 39.8836 37.6413 39.841 37.6483C39.7984 37.6553 39.7715 37.6273 39.7715 37.6133C39.7738 37.5899 39.8074 37.5876 39.8298 37.5829V37.5829ZM39.7177 37.2631C39.7424 37.2631 39.7648 37.2841 39.758 37.3004C39.7513 37.3168 39.7491 37.3378 39.7043 37.3285C39.6886 37.3214 39.6684 37.2981 39.6684 37.2841C39.6684 37.2561 39.6953 37.2584 39.7177 37.2631ZM39.4757 37.3214C39.4801 37.2981 39.5227 37.2934 39.5429 37.3028C39.5653 37.3145 39.5788 37.3448 39.5653 37.3588C39.5496 37.3705 39.534 37.3658 39.507 37.3588C39.4802 37.3518 39.4734 37.3448 39.4757 37.3214V37.3214ZM39.4465 37.4289C39.4802 37.4289 39.5205 37.4545 39.5025 37.4732C39.4891 37.4872 39.4757 37.4965 39.4398 37.4965C39.4039 37.4965 39.3905 37.4825 39.3905 37.4615C39.3905 37.4429 39.4129 37.4242 39.4465 37.4289V37.4289ZM39.3882 37.5829C39.4264 37.5759 39.4532 37.5993 39.451 37.6203C39.451 37.6413 39.4174 37.66 39.395 37.66C39.3681 37.66 39.33 37.6529 39.3255 37.6203C39.321 37.5923 39.3681 37.5876 39.3882 37.5829ZM39.2852 37.7697C39.2785 37.7487 39.3255 37.7393 39.3479 37.7347C39.3681 37.7323 39.4107 37.7417 39.404 37.7627C39.3972 37.779 39.3838 37.8 39.3479 37.8C39.312 37.7977 39.2919 37.786 39.2852 37.7697ZM39.3412 37.9004C39.3345 37.9308 39.3076 37.9354 39.2874 37.9378C39.265 37.9424 39.2291 37.9378 39.2291 37.9144C39.2291 37.8888 39.2605 37.8701 39.2785 37.8631C39.3143 37.8561 39.3479 37.8771 39.3412 37.9004V37.9004ZM39.2426 37.3285C39.256 37.3308 39.2986 37.3424 39.3008 37.3635C39.3008 37.3798 39.312 37.4031 39.265 37.4031C39.2224 37.4031 39.2045 37.3961 39.1955 37.3728C39.1821 37.3448 39.2291 37.3238 39.2426 37.3285ZM39.2359 37.4942C39.2807 37.5036 39.2874 37.5036 39.2919 37.5245C39.2941 37.5456 39.2605 37.5596 39.2224 37.5666C39.182 37.5736 39.1596 37.5549 39.1484 37.5339C39.1417 37.5152 39.191 37.4872 39.2359 37.4942V37.4942ZM39.1597 37.6856C39.1821 37.6833 39.2089 37.6926 39.2089 37.7183C39.2045 37.7393 39.191 37.7487 39.1686 37.758C39.1484 37.7697 39.1036 37.751 39.0969 37.7347C39.0901 37.7183 39.135 37.6903 39.1597 37.6856V37.6856ZM39.1193 37.8794C39.1193 37.9004 39.0789 37.9167 39.0588 37.9214C39.0431 37.9238 39.0296 37.9378 39.0162 37.9238C39.0005 37.9098 39.0028 37.8957 39.0139 37.8864C39.0207 37.8771 39.0633 37.8561 39.0722 37.8514C39.0901 37.8444 39.1215 37.8631 39.1193 37.8794V37.8794ZM39.0274 37.3821C39.0633 37.3821 39.079 37.4031 39.0857 37.4218C39.0902 37.4382 39.0857 37.4475 39.0767 37.4545C39.07 37.4615 39.0297 37.4592 39.0072 37.4452C38.9759 37.4289 38.9871 37.3821 39.0274 37.3821V37.3821ZM38.8481 36.8662C38.8974 36.8615 38.9064 36.9316 38.8952 36.9946C38.8772 37.0553 38.8705 37.0553 38.8481 37.0483C38.8279 37.0413 38.8481 37.0063 38.8346 36.99C38.819 36.976 38.7921 36.8685 38.8481 36.8662ZM38.8122 36.6047C38.8571 36.5977 38.8414 36.6561 38.8324 36.6724C38.819 36.6935 38.8346 36.7238 38.8055 36.7215C38.7741 36.7168 38.7786 36.6771 38.7741 36.6561C38.7719 36.6328 38.7854 36.607 38.8122 36.6047ZM38.6531 36.8148C38.6621 36.8009 38.6688 36.7658 38.6979 36.7635C38.7181 36.7588 38.7114 36.8172 38.7091 36.8452C38.7091 36.8732 38.7159 36.9082 38.68 36.8942C38.6419 36.8802 38.6419 36.8312 38.6531 36.8148ZM38.5142 36.8218C38.5209 36.8218 38.5209 36.8172 38.5209 36.8172C38.5209 36.8172 38.5522 36.7635 38.5836 36.7798C38.5971 36.7821 38.5634 36.8498 38.559 36.8615C38.5523 36.8802 38.5298 36.8942 38.5097 36.8755C38.4895 36.8545 38.5074 36.8218 38.5142 36.8218ZM38.42 36.9456C38.438 36.9526 38.42 37.0133 38.4133 37.0413C38.4111 37.0693 38.3909 37.0833 38.3707 37.0763C38.3505 37.074 38.3618 37.0249 38.355 37.0249C38.3505 37.0203 38.3774 36.9386 38.42 36.9456V36.9456ZM38.355 37.4102C38.3685 37.4148 38.3707 37.4429 38.3707 37.4475C38.3707 37.4592 38.3842 37.4662 38.3909 37.4872C38.3954 37.5036 38.3842 37.5199 38.3685 37.5245C38.3506 37.5245 38.3349 37.4895 38.3349 37.4895C38.3349 37.4942 38.3214 37.4078 38.355 37.4102ZM38.4111 37.6973C38.3976 37.7067 38.3819 37.7136 38.3618 37.7113C38.3416 37.7043 38.3192 37.6693 38.3371 37.6483C38.355 37.632 38.3819 37.646 38.3954 37.6553C38.4088 37.667 38.4245 37.6856 38.4111 37.6973ZM38.4178 37.3028C38.3909 37.2981 38.4021 37.2444 38.3976 37.2444C38.3976 37.2444 38.4245 37.1487 38.4514 37.1651C38.4716 37.1791 38.4604 37.2421 38.4581 37.2724C38.4536 37.3004 38.4402 37.3098 38.4178 37.3028V37.3028ZM38.4671 37.4802C38.4581 37.4755 38.4469 37.4148 38.4872 37.4102C38.5029 37.4102 38.5298 37.4428 38.5298 37.4615C38.5276 37.4825 38.5343 37.5105 38.4962 37.5082C38.4604 37.5036 38.4738 37.4825 38.4671 37.4802V37.4802ZM38.5635 37.779C38.55 37.779 38.5231 37.7767 38.5074 37.751C38.494 37.7323 38.4895 37.6997 38.5074 37.6903C38.5209 37.6833 38.5567 37.7067 38.5724 37.7393C38.5903 37.7697 38.5724 37.779 38.5635 37.779ZM38.6105 37.6623C38.5926 37.66 38.5724 37.6529 38.5567 37.632C38.5411 37.6133 38.5411 37.5736 38.5657 37.5689C38.6038 37.5619 38.6262 37.597 38.6397 37.6273C38.6486 37.66 38.6218 37.6623 38.6105 37.6623V37.6623ZM38.6464 37.4965C38.6284 37.4965 38.6195 37.4895 38.6105 37.4755C38.5971 37.4662 38.5926 37.4242 38.6284 37.4242C38.6464 37.4242 38.6733 37.4382 38.6755 37.4592C38.68 37.4825 38.6621 37.4942 38.6464 37.4965ZM38.68 37.0249C38.7047 37.0249 38.7495 37.053 38.736 37.1347C38.7181 37.214 38.7091 37.186 38.6935 37.1907C38.68 37.1977 38.689 37.1464 38.68 37.1347C38.6621 37.1137 38.6195 37.0249 38.68 37.0249V37.0249ZM38.7248 37.793C38.7091 37.786 38.689 37.7767 38.6867 37.751C38.68 37.7277 38.7047 37.7207 38.7248 37.7254C38.7495 37.7277 38.7674 37.7487 38.7674 37.765C38.7674 37.786 38.7383 37.7977 38.7248 37.793ZM38.7674 37.632C38.7562 37.6343 38.7495 37.6413 38.7248 37.6343C38.7024 37.625 38.6553 37.5736 38.6979 37.5456C38.7114 37.5339 38.7629 37.5479 38.7742 37.5876C38.7921 37.6203 38.7808 37.625 38.7674 37.632ZM38.7719 37.4732C38.7652 37.4662 38.7786 37.4289 38.8145 37.4382C38.8481 37.4452 38.8571 37.4685 38.8548 37.4895C38.8481 37.5105 38.8257 37.5105 38.8077 37.5082C38.7921 37.5036 38.7808 37.4802 38.7719 37.4732V37.4732ZM38.9064 37.8794C38.8952 37.8864 38.8705 37.8934 38.8369 37.8888C38.8077 37.8864 38.801 37.8771 38.8122 37.8584C38.8257 37.8421 38.8346 37.8374 38.8616 37.8281C38.8884 37.8164 38.9198 37.8304 38.9266 37.8421C38.9333 37.8514 38.9198 37.8771 38.9064 37.8794V37.8794ZM38.9512 37.7276C38.9333 37.7393 38.8952 37.7276 38.884 37.6996C38.875 37.6693 38.8907 37.6623 38.9041 37.6553C38.9198 37.6529 38.9579 37.6716 38.9647 37.6973C38.9669 37.7136 38.9669 37.7183 38.9512 37.7276V37.7276ZM38.9871 37.5923C38.9714 37.5923 38.9131 37.5829 38.9243 37.5526C38.931 37.5199 38.9647 37.5199 38.9826 37.5245C38.9938 37.5245 39.0409 37.5409 39.0297 37.5689C39.0229 37.5993 39.0028 37.5899 38.9871 37.5923V37.5923ZM39.5025 38.1432C39.5025 38.1595 39.4936 38.1712 39.4802 38.1712C39.4645 38.1712 39.4196 38.1595 39.3972 38.1782C39.3748 38.1945 39.3614 38.2249 39.3636 38.246C39.3681 38.2623 39.3681 38.288 39.3569 38.295C39.3479 38.3043 39.3053 38.288 39.2874 38.2903C39.2717 38.2903 39.2157 38.3043 39.2022 38.3347C39.1865 38.3627 39.1978 38.3837 39.1888 38.3907C39.1798 38.4024 39.1664 38.4071 39.1529 38.4071C39.1395 38.4117 39.0789 38.4024 39.07 38.4117C39.0566 38.4211 39.0229 38.4631 39.0139 38.4491C39.0028 38.4351 38.9871 38.4421 39.0162 38.3907C39.0296 38.3674 39.0655 38.3417 39.07 38.3417C39.0722 38.3417 39.1171 38.3463 39.126 38.3394C39.135 38.33 39.1619 38.274 39.1731 38.2623C39.2179 38.2249 39.2157 38.239 39.2291 38.2319C39.2426 38.2296 39.2874 38.239 39.2919 38.2296C39.2986 38.2156 39.3255 38.1642 39.3479 38.1432C39.3771 38.1152 39.4242 38.1105 39.4309 38.1058C39.4331 38.0989 39.4443 38.0802 39.451 38.0661C39.46 38.0521 39.5004 38.0171 39.5272 38.0241C39.5407 38.0288 39.4936 38.0942 39.4936 38.1082C39.4891 38.1222 39.5025 38.1246 39.5025 38.1432V38.1432ZM39.5362 37.9448C39.5025 37.9518 39.4667 37.9495 39.4644 37.9308C39.4599 37.9168 39.4712 37.8958 39.4936 37.8864C39.5137 37.8771 39.5339 37.8841 39.5496 37.8841C39.563 37.8841 39.5967 37.8841 39.5922 37.8958C39.59 37.9074 39.5698 37.9378 39.5362 37.9448V37.9448ZM39.5833 37.786C39.5451 37.7907 39.5093 37.779 39.5138 37.7627C39.5205 37.744 39.5429 37.7277 39.5765 37.7277C39.6101 37.7254 39.6326 37.7347 39.6326 37.751C39.6326 37.765 39.6191 37.7837 39.5833 37.786ZM39.6595 37.597C39.6527 37.625 39.6393 37.632 39.6146 37.6343C39.59 37.6343 39.5407 37.6273 39.5407 37.5876C39.5407 37.5689 39.5922 37.5596 39.6034 37.5596C39.6146 37.5549 39.6617 37.5689 39.6595 37.597V37.597ZM39.6953 37.4475C39.6909 37.4685 39.6617 37.4872 39.6393 37.4802C39.6146 37.4732 39.5833 37.4685 39.5855 37.4452C39.5855 37.4312 39.6057 37.4102 39.6415 37.4148C39.6796 37.4148 39.6976 37.4312 39.6953 37.4475V37.4475ZM39.8141 37.9004C39.8051 37.9098 39.7939 37.9354 39.767 37.9424C39.7424 37.9448 39.711 37.9564 39.6975 37.9238C39.6908 37.9074 39.702 37.8934 39.7222 37.8794C39.7379 37.8701 39.7917 37.8701 39.7917 37.8701C39.7917 37.8701 39.7984 37.8514 39.8118 37.8631C39.8253 37.8724 39.8253 37.8888 39.8141 37.9004V37.9004ZM39.8768 37.7767C39.8544 37.7767 39.8006 37.779 39.7984 37.751C39.7917 37.7394 39.8275 37.7254 39.8499 37.7183C39.8768 37.7113 39.8947 37.7113 39.9037 37.7137C39.9127 37.7183 39.9373 37.7277 39.9373 37.7394C39.9374 37.751 39.897 37.772 39.8768 37.7767V37.7767ZM39.906 37.3098C39.897 37.2864 39.8948 37.2654 39.9038 37.2561C39.9194 37.2444 39.9732 37.2654 39.9822 37.2911C39.9957 37.3145 39.9957 37.3425 39.9732 37.3495C39.9508 37.3518 39.9127 37.3308 39.906 37.3098V37.3098ZM39.9867 37.4452C39.9822 37.4242 40.0225 37.4078 40.0494 37.4102C40.0718 37.4148 40.1122 37.4382 40.1055 37.4615C40.0965 37.4872 40.092 37.4942 40.0718 37.4942C40.0517 37.4942 39.9889 37.4802 39.9867 37.4452V37.4452ZM40.0068 37.6109C40.0023 37.5923 40.0427 37.5829 40.0584 37.5829C40.0718 37.5829 40.1324 37.5923 40.1145 37.6179C40.1032 37.6413 40.0786 37.6529 40.0584 37.6529C40.0427 37.6529 40.0136 37.6273 40.0068 37.6109V37.6109ZM40.1279 37.807C40.1055 37.8234 40.0898 37.8234 40.0629 37.8234C40.0382 37.8234 40.0337 37.807 40.0337 37.786C40.0337 37.7697 40.0584 37.758 40.0696 37.7557C40.0831 37.751 40.0987 37.7557 40.1122 37.751C40.1212 37.7487 40.1212 37.7487 40.1346 37.744C40.1458 37.7417 40.1525 37.7394 40.1548 37.758C40.1593 37.7767 40.1525 37.793 40.1279 37.807V37.807ZM40.1727 37.3355C40.1615 37.3425 40.1615 37.3495 40.1391 37.3448C40.1122 37.3425 40.0987 37.3005 40.092 37.2981C40.083 37.2934 40.0629 37.2701 40.0718 37.2584C40.083 37.2491 40.1324 37.2491 40.1548 37.2701C40.1817 37.2934 40.1817 37.3285 40.1727 37.3355V37.3355ZM40.222 37.4312C40.2287 37.4242 40.2444 37.4148 40.2646 37.4148C40.2848 37.4148 40.3117 37.4289 40.3206 37.4429C40.3274 37.4592 40.3274 37.4732 40.3139 37.4872C40.3049 37.4965 40.2444 37.4802 40.2354 37.4685C40.222 37.4545 40.2175 37.4429 40.222 37.4312ZM40.2377 37.6413C40.231 37.6483 40.2287 37.625 40.2377 37.6133C40.2512 37.6039 40.2803 37.5876 40.2982 37.5876C40.3139 37.5876 40.3408 37.5923 40.3364 37.6063C40.3341 37.6203 40.3296 37.6553 40.2938 37.6553C40.2579 37.66 40.2444 37.6389 40.2377 37.6413V37.6413ZM40.3072 37.8141C40.278 37.8164 40.2579 37.8117 40.2534 37.786C40.2512 37.7627 40.2736 37.7557 40.278 37.7557C40.2803 37.7557 40.3049 37.751 40.3117 37.7487C40.3274 37.7487 40.3542 37.7277 40.3677 37.7487C40.3744 37.7627 40.3363 37.807 40.3072 37.8141V37.8141ZM40.4036 37.3425C40.3991 37.3518 40.3901 37.3798 40.3565 37.3705C40.3229 37.3588 40.3072 37.3425 40.2982 37.3285C40.2915 37.3145 40.2668 37.2935 40.287 37.2725C40.2982 37.2631 40.3498 37.2841 40.3744 37.3028C40.3946 37.3238 40.4058 37.3285 40.4036 37.3425V37.3425ZM40.426 37.4429C40.4327 37.4289 40.4596 37.4218 40.4798 37.4218C40.5 37.4242 40.5268 37.4312 40.5313 37.4545C40.5358 37.4755 40.5313 37.4825 40.5246 37.4942C40.5134 37.5036 40.473 37.4895 40.4573 37.4825C40.4394 37.4755 40.4192 37.4522 40.426 37.4429V37.4429ZM40.4305 37.6039C40.4305 37.5876 40.4529 37.5899 40.4641 37.5876C40.4686 37.5829 40.4753 37.5759 40.4932 37.5736C40.5067 37.5689 40.5358 37.5689 40.5358 37.5829C40.5403 37.5923 40.5358 37.6133 40.5 37.625C40.4596 37.6389 40.4327 37.6203 40.4305 37.6039ZM40.5605 37.758C40.5605 37.758 40.5313 37.786 40.5246 37.7977C40.5134 37.8047 40.4955 37.8234 40.4686 37.8001C40.4529 37.7837 40.4686 37.7557 40.4798 37.7487C40.4888 37.7394 40.556 37.6973 40.5694 37.7183C40.5806 37.7393 40.5605 37.758 40.5605 37.758ZM40.6007 37.3448C40.5873 37.3658 40.5671 37.3635 40.5425 37.3588C40.5201 37.3564 40.4798 37.3285 40.482 37.3004C40.4865 37.2771 40.5268 37.2841 40.5492 37.2934C40.5739 37.3028 40.6164 37.3238 40.6007 37.3448ZM40.8675 37.667C40.8541 37.667 40.8204 37.632 40.8742 37.625C40.8944 37.6203 40.8967 37.6343 40.8967 37.6553C40.8967 37.6716 40.8787 37.667 40.8675 37.667V37.667ZM40.8967 37.5036C40.8742 37.4965 40.8652 37.4872 40.8787 37.4685C40.8944 37.4545 40.9011 37.4592 40.9213 37.4662C40.937 37.4732 40.9415 37.4872 40.937 37.5012C40.9347 37.5176 40.9213 37.5106 40.8967 37.5036ZM41.0244 38.0078C40.993 38.0008 40.9639 37.9611 40.9482 37.9378C40.9347 37.9098 40.9303 37.8584 40.9414 37.8351C40.9504 37.8071 40.9639 37.8047 40.9773 37.8141C40.993 37.8234 40.984 37.8935 40.993 37.8958C41.0042 37.9028 41.0109 37.9519 41.04 37.9589C41.049 37.9589 41.0603 37.9822 41.0603 37.9822C41.0603 37.9822 41.049 38.0148 41.0244 38.0078V38.0078Z" fill="#2C3330"/>
</svg>
