<svg width="212" height="45" viewBox="0 0 212 45" fill="none" xmlns="http://www.w3.org/2000/svg">
<path d="M6.85 15.5H8.7V31.4H18.5V33H6.85V15.5ZM32.5955 28.325H22.8455L20.7455 33H18.8205L26.8205 15.5H28.6455L36.6455 33H34.6955L32.5955 28.325ZM31.9205 26.825L27.7205 17.425L23.5205 26.825H31.9205ZM46.8963 33.15C45.163 33.15 43.5963 32.7667 42.1963 32C40.813 31.2333 39.7213 30.175 38.9213 28.825C38.138 27.4583 37.7463 25.9333 37.7463 24.25C37.7463 22.5667 38.138 21.05 38.9213 19.7C39.7213 18.3333 40.8213 17.2667 42.2213 16.5C43.6213 15.7333 45.188 15.35 46.9213 15.35C48.2213 15.35 49.4213 15.5667 50.5213 16C51.6213 16.4333 52.5546 17.0667 53.3213 17.9L52.1463 19.075C50.7796 17.6917 49.0546 17 46.9713 17C45.588 17 44.3296 17.3167 43.1963 17.95C42.063 18.5833 41.1713 19.45 40.5213 20.55C39.888 21.65 39.5713 22.8833 39.5713 24.25C39.5713 25.6167 39.888 26.85 40.5213 27.95C41.1713 29.05 42.063 29.9167 43.1963 30.55C44.3296 31.1833 45.588 31.5 46.9713 31.5C49.0713 31.5 50.7963 30.8 52.1463 29.4L53.3213 30.575C52.5546 31.4083 51.613 32.05 50.4963 32.5C49.3963 32.9333 48.1963 33.15 46.8963 33.15ZM64.5488 33.15C62.8155 33.15 61.2405 32.7667 59.8238 32C58.4238 31.2167 57.3238 30.15 56.5238 28.8C55.7405 27.45 55.3488 25.9333 55.3488 24.25C55.3488 22.5667 55.7405 21.05 56.5238 19.7C57.3238 18.35 58.4238 17.2917 59.8238 16.525C61.2405 15.7417 62.8155 15.35 64.5488 15.35C66.2822 15.35 67.8405 15.7333 69.2238 16.5C70.6238 17.2667 71.7238 18.3333 72.5238 19.7C73.3238 21.05 73.7238 22.5667 73.7238 24.25C73.7238 25.9333 73.3238 27.4583 72.5238 28.825C71.7238 30.175 70.6238 31.2333 69.2238 32C67.8405 32.7667 66.2822 33.15 64.5488 33.15ZM64.5488 31.5C65.9322 31.5 67.1822 31.1917 68.2988 30.575C69.4155 29.9417 70.2905 29.075 70.9238 27.975C71.5572 26.8583 71.8738 25.6167 71.8738 24.25C71.8738 22.8833 71.5572 21.65 70.9238 20.55C70.2905 19.4333 69.4155 18.5667 68.2988 17.95C67.1822 17.3167 65.9322 17 64.5488 17C63.1655 17 61.9072 17.3167 60.7738 17.95C59.6572 18.5667 58.7738 19.4333 58.1238 20.55C57.4905 21.65 57.1738 22.8833 57.1738 24.25C57.1738 25.6167 57.4905 26.8583 58.1238 27.975C58.7738 29.075 59.6572 29.9417 60.7738 30.575C61.9072 31.1917 63.1655 31.5 64.5488 31.5ZM82.6955 33.15C81.3955 33.15 80.1455 32.9417 78.9455 32.525C77.7622 32.1083 76.8455 31.5583 76.1955 30.875L76.9205 29.45C77.5538 30.0833 78.3955 30.6 79.4455 31C80.4955 31.3833 81.5788 31.575 82.6955 31.575C84.2622 31.575 85.4372 31.2917 86.2205 30.725C87.0038 30.1417 87.3955 29.3917 87.3955 28.475C87.3955 27.775 87.1788 27.2167 86.7455 26.8C86.3288 26.3833 85.8122 26.0667 85.1955 25.85C84.5788 25.6167 83.7205 25.3667 82.6205 25.1C81.3038 24.7667 80.2538 24.45 79.4705 24.15C78.6872 23.8333 78.0122 23.3583 77.4455 22.725C76.8955 22.0917 76.6205 21.2333 76.6205 20.15C76.6205 19.2667 76.8538 18.4667 77.3205 17.75C77.7872 17.0167 78.5038 16.4333 79.4705 16C80.4372 15.5667 81.6372 15.35 83.0705 15.35C84.0705 15.35 85.0455 15.4917 85.9955 15.775C86.9622 16.0417 87.7955 16.4167 88.4955 16.9L87.8705 18.375C87.1372 17.8917 86.3538 17.5333 85.5205 17.3C84.6872 17.05 83.8705 16.925 83.0705 16.925C81.5372 16.925 80.3788 17.225 79.5955 17.825C78.8288 18.4083 78.4455 19.1667 78.4455 20.1C78.4455 20.8 78.6538 21.3667 79.0705 21.8C79.5038 22.2167 80.0372 22.5417 80.6705 22.775C81.3205 22.9917 82.1872 23.2333 83.2705 23.5C84.5538 23.8167 85.5872 24.1333 86.3705 24.45C87.1705 24.75 87.8455 25.2167 88.3955 25.85C88.9455 26.4667 89.2205 27.3083 89.2205 28.375C89.2205 29.2583 88.9788 30.0667 88.4955 30.8C88.0288 31.5167 87.3038 32.0917 86.3205 32.525C85.3372 32.9417 84.1288 33.15 82.6955 33.15ZM96.4072 17.1H90.2572V15.5H104.407V17.1H98.2572V33H96.4072V17.1ZM119.738 31.4V33H107.363V15.5H119.363V17.1H109.213V23.325H118.263V24.9H109.213V31.4H119.738Z" fill="#2C3330"/>
<path fill-rule="evenodd" clip-rule="evenodd" d="M193.058 25.9217C192.378 24.9643 192.261 23.2711 190.882 23.1206C189.544 22.7384 188.212 22.3306 186.862 22L178.929 23.3657L178 27.8881L190.827 29.6576L194.173 32.0175L202.91 33L207 31.4275C202.762 29.9805 198.421 28.8281 194.301 27.0259C193.795 26.7793 193.443 26.328 193.058 25.9217V25.9217Z" fill="#DB0026"/>
<path d="M207.923 31.0199C207.638 30.6446 207.18 30.4948 206.863 30.3504C206.553 30.2021 206.597 29.8963 206.338 29.8073C206.073 29.7213 205.609 30.2687 205.248 30.155C204.888 30.0354 204.914 29.3537 204.614 29.2531C204.305 29.1549 203.77 29.6658 203.49 29.5749C203.208 29.4923 203.153 28.7761 202.881 28.6852C202.612 28.6021 202.04 29.1111 201.761 29.0236C201.482 28.9283 201.464 28.2311 201.153 28.1275C200.843 28.0313 200.299 28.5525 200.029 28.4581C199.75 28.3711 199.723 27.6754 199.426 27.5742C199.126 27.4775 198.576 27.9885 198.299 27.8966C198.014 27.8032 197.936 27.0885 197.676 27.002C197.411 26.9198 196.893 27.3418 196.471 27.3175C193.548 27.0414 192.429 25.1793 192.23 25.7301C192.035 26.2698 192.84 27.583 193.851 28.0264C194.658 28.3813 203.367 30.823 203.595 30.9319C203.818 31.0432 204.367 31.2912 204.171 31.6126C203.869 32.0239 203.018 31.6174 202.802 31.4356C202.583 31.2513 202.633 31.1842 202.427 31.1283C201.96 31.0165 201.701 31.8775 201.208 31.7623C200.758 31.6602 200.79 30.7462 200.334 30.6392C199.83 30.5157 199.602 31.3821 199.123 31.2693C198.725 31.1784 198.671 30.2473 198.244 30.1433C197.754 30.0232 197.532 30.892 197.022 30.7715C196.583 30.6674 196.607 29.7592 196.148 29.6474C195.69 29.5375 195.369 30.3796 194.936 30.2799C194.502 30.1778 194.438 29.2502 194.053 29.1578C193.658 29.0688 193.347 29.5404 192.816 29.6104C192.816 29.6104 191.293 30.0276 188.884 27.4799C186.471 24.9376 185.481 24.4436 184.108 25.4792C181.865 27.1707 180.473 26.0525 180.066 25.5497C179.579 24.9731 180.09 24.4436 180.09 24.4436C180.09 24.4436 180.802 25.557 181.698 25.5765C183.143 25.6202 184.232 23.6244 186.708 23.5889C189.845 23.4747 190.662 24.6026 191.519 24.6926C192.314 24.7713 192.579 24.6415 193.128 24.3182H193.125C193.57 24.1582 193.956 25.028 194.422 24.853C194.915 24.6649 194.555 23.7883 195.085 23.586C195.581 23.4061 195.904 24.2876 196.379 24.1087C196.878 23.9239 196.56 23.023 197.039 22.8475C197.532 22.6671 197.82 23.5573 198.332 23.3672C198.846 23.182 198.515 22.2898 198.982 22.1104C199.465 21.932 199.814 22.8081 200.289 22.6369C200.738 22.4746 200.481 21.5416 200.949 21.3719C201.435 21.1954 201.749 22.0744 202.266 21.8819C202.692 21.7317 202.456 20.7977 202.898 20.6285C203.338 20.4617 203.747 21.3276 204.207 21.1536C204.637 20.9931 204.385 20.065 204.843 19.8914C205.328 19.7144 205.702 20.5799 206.16 20.4165C206.614 20.2517 206.269 19.5029 206.861 19.2059C206.861 19.2059 207.68 18.9331 207.628 18.3244C207.621 18.2223 207.452 16.9213 206.104 16.6456C204.806 16.3816 194.563 19.2501 194.431 19.0848C193.488 17.1984 192.28 17.723 192.096 17.7648C191.909 17.8134 190.765 18.3059 189.498 17.8134C187.011 16.6733 185.025 19.5725 183.663 19.1908C182.408 18.8339 181.449 19.0396 180.923 19.221C180.441 19.3897 179.661 20.0246 178.006 19.4485C165.217 15.0271 155.221 18.8923 155.221 18.8923C149.585 20.7987 148.864 18.8923 148.864 18.8923C148.864 18.8923 147.009 16.3412 160.068 13.2986C178.838 8.93262 179.405 1.70778 179.182 1.25076C178.874 0.588078 178.757 1.3689 178.139 2.08701C177.62 2.68406 177.017 2.38894 177.017 2.38894C176.426 2.10208 176.048 2.7847 176.048 2.7847C176.048 2.7847 175.289 3.97879 174.617 3.30006C173.971 2.64613 173.114 4.12173 172.794 4.18008C172.41 4.24814 172.223 4.05853 171.709 3.81932C170.938 3.47412 170.11 4.89672 169.686 4.99737C169.037 5.14809 168.582 4.22335 168.024 4.61327C166.356 5.78014 166.094 5.94204 165.645 5.48842C165.313 5.14468 165.264 4.77275 164.15 5.85307C163.202 6.77343 162.748 6.94603 162.367 6.36065C161.975 5.77139 162.076 4.96674 160.446 6.55027C159.668 7.3063 159.271 7.32088 158.825 6.98104C158.49 6.72578 158.492 5.50787 157.323 6.61056C156.264 7.60239 155.495 8.03753 155.195 7.15655C154.864 6.16666 153.615 7.33887 153.327 7.61503C153.027 7.8907 152.386 8.62048 151.936 7.86737C151.486 7.10939 150.41 8.24076 149.77 8.95838C149.276 9.51605 148.877 9.08577 148.355 8.73182C147.763 8.3205 145.99 10.8268 145.829 10.9766C145.667 11.1195 145.544 10.9766 145.138 10.628C144.513 10.0922 142.829 13.0696 142.557 13.2636C142.557 13.2636 142.441 13.5208 141.982 13.0769C141.329 12.4478 137.861 17.07 136.552 22.3C134.878 29.0046 137.546 34.1466 137.546 34.1466C137.546 34.1466 138.347 34.1709 138.688 33.623L139.207 32.4376C139.629 31.4497 140.319 31.7604 140.319 31.7604L138.683 36.6899C138.425 37.339 138.581 38.2574 139.152 39.1257C139.691 39.9979 140.062 40.5877 140.493 40.9932C141.821 42.2592 141.685 40.7618 141.72 40.5751C141.875 39.7733 142.752 40.3888 143.44 40.7729C144.689 41.4828 144.55 39.9153 144.824 39.4043C145.014 39.0382 145.628 39.0217 146.295 39.5871C146.813 40.0261 147.33 38.5389 147.33 38.5389C147.977 35.3689 146.456 35.0023 145.633 34.9556L143.968 34.8788C143.968 34.8788 144.077 34.3965 144.251 33.9448L144.325 33.6249C146.141 29.0425 143.106 28.1582 142.198 28.2311C141.196 28.3215 141.266 27.6754 141.266 27.6754C141.266 27.6754 146.752 26.5814 145.729 32.4722C145.729 32.4722 145.527 33.498 145.406 34.0328L146.914 34.2113C148.211 34.3751 148.441 35.929 148.441 35.929C148.441 35.929 153.213 37.2062 155.919 36.6957C155.919 36.6957 157.128 36.404 157.464 35.6417C157.464 35.6417 159.217 31.4604 164.333 31.2839C164.333 31.2839 164.513 31.825 163.696 32.107C162.716 32.4415 159.45 32.7041 158.771 36.5022V36.5173C158.698 37.1406 158.863 38.4679 160.198 39.0829C161.336 39.6027 161.736 41.7001 161.972 42.2665C162.635 43.8744 163.626 42.3375 163.626 42.3375C163.626 42.3375 164.255 41.0394 164.794 41.7594C165.706 42.9734 166.129 42.3618 166.336 41.5888C166.563 40.7545 166.893 40.3903 167.847 41.405C168.254 41.8455 169.054 41.5051 169.134 40.7515C169.303 39.0922 170.409 40.4112 170.568 40.4754C170.757 40.5483 171.917 40.2843 171.268 38.413C171.268 38.413 170.392 36.6296 166.441 35.8604C165.514 35.6825 165.661 35.0028 165.661 35.0028L166.531 35.1268C166.791 35.1696 169.088 35.4277 169.333 35.4671C178.97 36.4298 186.283 33.1198 186.503 32.884C193.989 34.3362 204.168 33.8413 206.079 33.1441C208 32.4585 208.143 31.3228 207.922 31.0199H207.923ZM192.465 18.9239C192.622 18.6686 192.77 18.5242 192.906 18.4547C193.487 18.1202 193.857 19.167 193.787 19.2054C193.783 19.2073 193.77 19.2117 193.764 19.2141C193.763 19.2156 193.763 19.2195 193.762 19.221C193.671 19.2657 192.55 19.5875 192.44 19.5136C192.218 19.3581 192.465 18.9239 192.465 18.9239V18.9239ZM188.209 19.255C188.209 19.255 188.353 19.0702 188.634 18.9764C188.91 18.8743 189.328 18.8573 189.881 19.218C190.517 19.6274 190.501 19.9473 190.501 19.9473C190.474 19.9595 190.447 19.9702 190.419 19.9794C189.958 20.1603 188.067 20.3951 188.067 20.3951C187.959 20.217 187.914 20.007 187.94 19.7997C187.966 19.5924 188.061 19.4002 188.209 19.255V19.255ZM152.926 9.9862C153.244 10.2342 152.94 11.6631 152.713 11.4526L151.08 10.5774C151.08 10.5774 152.601 9.74553 152.926 9.9862V9.9862ZM150.27 10.8988C150.591 11.1409 150.29 12.5727 150.062 12.3598L148.433 11.4832C148.433 11.4832 149.947 10.6503 150.27 10.8988V10.8988ZM149.351 13.692C149.673 13.936 149.371 15.3703 149.14 15.1632L147.509 14.2759C147.509 14.2759 149.026 13.4494 149.351 13.692ZM147.796 17.4425L146.162 16.5639C146.162 16.5639 147.681 15.7306 148.004 15.9756C148.33 16.2197 148.018 17.653 147.796 17.4425V17.4425ZM147.488 20.2716L145.859 19.3926C145.859 19.3926 147.375 18.5631 147.698 18.8028C148.021 19.045 147.72 20.4724 147.488 20.2711L147.488 20.2716ZM147.458 11.8945C147.782 12.1381 147.476 13.5636 147.249 13.3609L145.614 12.4794C145.614 12.4794 147.136 11.647 147.458 11.8945V11.8945ZM146.041 14.0722C146.361 14.3153 146.058 15.7413 145.833 15.5385L144.201 14.66C144.201 14.66 145.719 13.8247 146.041 14.0717V14.0722ZM143.129 17.4886C143.129 17.4886 144.652 16.6524 144.97 16.8999C145.295 17.142 144.989 18.5709 144.761 18.3638L143.129 17.4886ZM144.38 21.067L142.752 20.1851C142.752 20.1851 144.27 19.3576 144.591 19.6016C144.915 19.8447 144.611 21.2722 144.38 21.067ZM143.219 15.064C143.541 15.3022 143.237 16.7331 143.008 16.5265L141.383 15.645C141.383 15.645 142.893 14.8175 143.219 15.064V15.064ZM141.751 17.9452C142.075 18.1873 141.772 19.6245 141.538 19.413L139.91 18.5359C139.911 18.5359 141.429 17.7099 141.751 17.9452V17.9452ZM139.606 21.3583C139.606 21.3583 141.125 20.5317 141.446 20.7748C141.772 21.016 141.462 22.4493 141.239 22.2412L139.606 21.3583ZM142.517 24.5866L140.887 23.7071C140.887 23.7071 142.406 22.8742 142.729 23.1188C143.052 23.3638 142.743 24.7913 142.517 24.5871V24.5866ZM144.855 26.5046L143.225 25.6285C143.225 25.6285 144.744 24.7956 145.067 25.0373C145.387 25.2775 145.078 26.7161 144.855 26.5046V26.5046ZM145.586 23.5111L143.954 22.6287C143.954 22.6287 145.474 21.8022 145.796 22.0389C146.119 22.2835 145.813 23.7119 145.586 23.5111ZM147.754 27.7964L146.127 26.9179C146.127 26.9179 147.637 26.087 147.963 26.3306C148.285 26.5761 147.986 27.9982 147.754 27.7964ZM148.537 25.0387L146.908 24.1607C146.908 24.1607 148.424 23.3342 148.746 23.5782C149.068 23.8184 148.768 25.2498 148.537 25.0387ZM149.077 22.4327L147.448 21.5527C147.448 21.5527 148.964 20.7262 149.29 20.9693C149.613 21.2148 149.304 22.6379 149.077 22.4327V22.4327ZM151.369 27.4634L149.739 26.5795C149.739 26.5795 151.256 25.7544 151.581 25.9941C151.907 26.2372 151.598 27.672 151.369 27.4634ZM152.075 24.7179L150.446 23.8413C150.446 23.8413 151.965 23.0055 152.287 23.253C152.605 23.4888 152.299 24.923 152.074 24.7179H152.075ZM152.665 21.8094L151.036 20.9304C151.036 20.9304 152.553 20.1063 152.878 20.3455C153.199 20.5896 152.893 22.0166 152.665 21.809V21.8094ZM154.954 26.9485L153.32 26.0695C153.32 26.0695 154.839 25.2376 155.165 25.4797C155.485 25.7301 155.176 27.16 154.954 26.948V26.9485ZM155.502 24.0119L153.873 23.1285C153.873 23.1285 155.392 22.3 155.713 22.5407C156.037 22.7872 155.731 24.2103 155.502 24.0114L155.502 24.0119ZM156.07 20.9965L154.44 20.1165C154.44 20.1165 155.957 19.2885 156.281 19.5297C156.603 19.7791 156.299 21.2037 156.07 20.9965ZM158.523 25.7875L156.892 24.9167C156.892 24.9167 158.41 24.0853 158.729 24.327C159.057 24.5691 158.751 25.9961 158.523 25.7875V25.7875ZM158.969 22.8946L157.335 22.0205C157.335 22.0205 158.853 21.1905 159.174 21.4297C159.505 21.6753 159.194 23.11 158.969 22.8946H158.969ZM159.535 20.0601L157.9 19.1859C157.9 19.1859 159.422 18.3507 159.742 18.5913C160.064 18.8378 159.759 20.2716 159.535 20.0596V20.0601ZM162.032 25.1763L160.401 24.2963C160.401 24.2963 161.916 23.4645 162.242 23.708C162.568 23.9536 162.26 25.3791 162.031 25.1763H162.032ZM162.476 22.4755L160.845 21.5994C160.845 21.5994 162.366 20.7617 162.685 21.0111C163.008 21.2474 162.703 22.6841 162.476 22.4755ZM163.013 19.5939L161.38 18.7168C161.38 18.7168 162.899 17.8771 163.225 18.1275C163.547 18.3721 163.245 19.7976 163.013 19.5939V19.5939ZM165.272 25.2264L163.646 24.3479C163.646 24.3479 165.162 23.5136 165.485 23.7625C165.808 24.0027 165.502 25.4316 165.272 25.2264ZM165.811 22.3268L164.176 21.4502C164.176 21.4502 165.698 20.6139 166.022 20.8619C166.341 21.1069 166.036 22.5329 165.811 22.3268ZM166.422 19.4402L164.789 18.5631C164.789 18.5631 166.309 17.7269 166.632 17.9758C166.958 18.2175 166.649 19.6488 166.421 19.4402H166.422ZM168.67 25.2264L167.039 24.3435C167.039 24.3435 168.556 23.514 168.878 23.763C169.2 24.0027 168.901 25.4316 168.67 25.2264V25.2264ZM169.192 22.4877L167.564 21.6057C167.564 21.6057 169.08 20.7831 169.402 21.0174C169.726 21.2639 169.421 22.6963 169.192 22.4877ZM169.809 19.6843L168.183 18.8067C168.183 18.8067 169.7 17.9782 170.024 18.2175C170.342 18.4605 170.037 19.8914 169.809 19.6843ZM171.864 25.6402L170.233 24.7524C170.233 24.7524 171.752 23.9293 172.075 24.1748C172.401 24.413 172.096 25.8449 171.864 25.6402H171.864ZM172.44 22.9841L170.81 22.1085C170.81 22.1085 172.331 21.278 172.651 21.5211C172.977 21.7686 172.662 23.1946 172.44 22.9846V22.9841ZM173.063 20.2711L171.429 19.3965C171.429 19.3965 172.949 18.5651 173.274 18.8023C173.595 19.0445 173.285 20.4719 173.063 20.2706V20.2711ZM175.605 23.5573L173.977 22.6875C173.977 22.6875 175.493 21.8542 175.818 22.0929C176.139 22.3389 175.833 23.7673 175.605 23.5573V23.5573Z" fill="#00532C"/>
</svg>
